%
M48
M72
T01C0.02362
T02C0.02400
T03C0.03200
T04C0.03600
T05C0.04000
%
T01
X91500Y90000
X6500Y347500
X91500Y387500
X334000Y382500
T02
X320500Y352400
X347500Y326300
X353800Y229100
X348400Y217400
X343900Y212900
X370900Y185000
X379900Y215600
X369100Y130100
X349300Y126500
X356500Y101300
X349300Y89600
X341200Y77000
X348400Y73400
X338700Y65300
X360100Y77000
X372700Y84200
X303400Y68900
X293500Y53600
X276400Y59000
X272200Y66400
X262700Y75200
X271900Y81500
X260200Y89600
X260200Y95000
X237700Y115700
X217000Y104900
X217000Y95000
X213400Y91400
X224200Y80600
X235500Y72700
X246700Y56300
X230500Y50900
X223300Y53600
X213400Y53600
X190000Y57200
X186400Y81500
X197200Y93200
X178300Y104900
X174700Y110300
X136000Y102200
X127900Y92300
X123400Y95000
X110800Y104900
X111700Y122900
X79100Y104900
X101800Y82200
X131500Y68000
X138700Y55400
X142300Y51800
X152200Y50900
X159400Y58100
X162100Y50000
X152200Y67100
X238600Y153500
X245800Y140900
X273700Y213800
X274600Y219200
X271000Y222800
X282700Y225500
X251200Y223700
X251200Y215600
X159400Y203900
X100000Y201200
X100000Y195800
X78400Y203900
X163900Y341600
X173800Y341600
X173800Y347000
X213400Y341600
X107200Y350600
X81100Y353300
X70100Y345000
T03
X71500Y330000
X71500Y320000
X71500Y310000
X71500Y300000
X71500Y290000
X71500Y280000
X71500Y270000
X71500Y260000
X71500Y250000
X71500Y240000
X71500Y220000
X71500Y210000
X71500Y200000
X71500Y190000
X71500Y180000
X71500Y170000
X71500Y160000
X71500Y150000
X71500Y140000
X71500Y130000
X71500Y120000
X71500Y110000
X41500Y110000
X41500Y120000
X41500Y130000
X41500Y140000
X41500Y150000
X41500Y160000
X41500Y170000
X41500Y180000
X41500Y190000
X41500Y200000
X41500Y210000
X41500Y220000
X41500Y240000
X41500Y250000
X41500Y260000
X41500Y270000
X41500Y280000
X41500Y290000
X41500Y300000
X41500Y310000
X41500Y320000
X41500Y330000
X136500Y330000
X136500Y320000
X136500Y310000
X136500Y300000
X136500Y290000
X136500Y280000
X136500Y270000
X136500Y260000
X136500Y250000
X136500Y240000
X136500Y220000
X136500Y210000
X136500Y200000
X136500Y190000
X136500Y180000
X136500Y170000
X136500Y160000
X136500Y150000
X136500Y140000
X136500Y130000
X136500Y120000
X136500Y110000
X166500Y110000
X166500Y120000
X166500Y130000
X166500Y140000
X166500Y150000
X166500Y160000
X166500Y170000
X166500Y180000
X166500Y190000
X166500Y200000
X166500Y210000
X166500Y220000
X166500Y240000
X166500Y250000
X166500Y260000
X166500Y270000
X166500Y280000
X166500Y290000
X166500Y300000
X166500Y310000
X166500Y320000
X166500Y330000
X231500Y330000
X231500Y320000
X231500Y310000
X231500Y300000
X231500Y290000
X231500Y280000
X231500Y270000
X231500Y260000
X231500Y250000
X231500Y240000
X231500Y220000
X231500Y210000
X231500Y200000
X231500Y190000
X231500Y180000
X231500Y170000
X231500Y160000
X231500Y150000
X231500Y140000
X231500Y130000
X231500Y120000
X231500Y110000
X261500Y110000
X261500Y120000
X261500Y130000
X261500Y140000
X261500Y150000
X261500Y160000
X261500Y170000
X261500Y180000
X261500Y190000
X261500Y200000
X261500Y210000
X261500Y220000
X261500Y240000
X261500Y250000
X261500Y260000
X261500Y270000
X261500Y280000
X261500Y290000
X261500Y300000
X261500Y310000
X261500Y320000
X261500Y330000
X326500Y330000
X326500Y320000
X326500Y310000
X326500Y300000
X326500Y290000
X326500Y280000
X326500Y270000
X326500Y260000
X326500Y250000
X326500Y240000
X326500Y220000
X326500Y210000
X326500Y200000
X326500Y190000
X326500Y180000
X326500Y170000
X326500Y160000
X326500Y150000
X326500Y140000
X326500Y130000
X326500Y120000
X326500Y110000
X356500Y110000
X356500Y120000
X356500Y130000
X356500Y140000
X356500Y150000
X356500Y160000
X356500Y170000
X356500Y180000
X356500Y190000
X356500Y200000
X356500Y210000
X356500Y220000
X356500Y240000
X356500Y250000
X356500Y260000
X356500Y270000
X356500Y280000
X356500Y290000
X356500Y300000
X356500Y310000
X356500Y320000
X356500Y330000
X359000Y367500
X369000Y367500
T04
X49000Y367500
X49000Y357500
X49000Y347500
X39000Y347500
X39000Y357500
X39000Y367500
X39000Y377500
X39000Y387500
X49000Y387500
X49000Y377500
T05
X76500Y380000
X86500Y380000
X96500Y380000
X106500Y380000
X116500Y380000
X126500Y380000
X136500Y380000
X146500Y380000
X156500Y380000
X166500Y380000
X176500Y380000
X186500Y380000
X196500Y380000
X206500Y380000
X216500Y380000
X226500Y380000
X236500Y380000
X246500Y380000
X256500Y380000
X266500Y380000
X276500Y380000
X286500Y380000
X296500Y380000
X306500Y380000
X316500Y380000
X316500Y360000
X306500Y360000
X296500Y360000
X286500Y360000
X276500Y360000
X266500Y360000
X256500Y360000
X246500Y360000
X236500Y360000
X226500Y360000
X216500Y360000
X206500Y360000
X196500Y360000
X186500Y360000
X176500Y360000
X166500Y360000
X156500Y360000
X146500Y360000
X136500Y360000
X126500Y360000
X116500Y360000
X106500Y360000
X96500Y360000
X86500Y360000
X76500Y360000
M30
