G75*
%MOIN*%
%OFA0B0*%
%FSLAX25Y25*%
%IPPOS*%
%LPD*%
%AMOC8*
5,1,8,0,0,1.08239X$1,22.5*
%
%ADD10C,0.01000*%
%ADD11C,0.00400*%
%ADD12R,0.32500X0.07500*%
%ADD13R,0.10000X0.40000*%
%ADD14R,0.05000X0.10000*%
%ADD15R,0.40000X0.10000*%
%ADD16C,0.00500*%
%ADD17C,0.00800*%
%ADD18C,0.01800*%
%ADD19C,0.04000*%
%ADD20R,0.02953X0.05709*%
%ADD21R,0.00787X0.08661*%
%ADD22R,0.02559X0.10630*%
%ADD23C,0.00300*%
%ADD24C,0.00600*%
%ADD25R,0.05512X0.02559*%
D10*
X0041500Y0055000D02*
X0039000Y0057500D01*
X0039000Y0087500D01*
X0036500Y0090000D01*
X0004000Y0090000D01*
X0001500Y0092500D01*
X0001500Y0392500D01*
X0004000Y0395000D01*
X0389000Y0395000D01*
X0391500Y0392500D01*
X0391500Y0057500D01*
X0389000Y0055000D01*
X0347750Y0055000D01*
X0345250Y0052500D01*
X0345250Y0007500D01*
X0342750Y0005000D01*
X0090250Y0005000D01*
X0087750Y0007500D01*
X0087750Y0052500D01*
X0085250Y0055000D01*
X0041500Y0055000D01*
X0029000Y0345000D02*
X0029000Y0387500D01*
X0009000Y0367500D01*
X0009000Y0365000D01*
X0029000Y0345000D01*
X0029000Y0345492D02*
X0028508Y0345492D01*
X0029000Y0346491D02*
X0027509Y0346491D01*
X0026511Y0347489D02*
X0029000Y0347489D01*
X0029000Y0348488D02*
X0025512Y0348488D01*
X0024514Y0349486D02*
X0029000Y0349486D01*
X0029000Y0350485D02*
X0023515Y0350485D01*
X0022517Y0351483D02*
X0029000Y0351483D01*
X0029000Y0352482D02*
X0021518Y0352482D01*
X0020520Y0353480D02*
X0029000Y0353480D01*
X0029000Y0354479D02*
X0019521Y0354479D01*
X0018523Y0355477D02*
X0029000Y0355477D01*
X0029000Y0356476D02*
X0017524Y0356476D01*
X0016526Y0357474D02*
X0029000Y0357474D01*
X0029000Y0358473D02*
X0015527Y0358473D01*
X0014528Y0359472D02*
X0029000Y0359472D01*
X0029000Y0360470D02*
X0013530Y0360470D01*
X0012531Y0361469D02*
X0029000Y0361469D01*
X0029000Y0362467D02*
X0011533Y0362467D01*
X0010534Y0363466D02*
X0029000Y0363466D01*
X0029000Y0364464D02*
X0009536Y0364464D01*
X0009000Y0365463D02*
X0029000Y0365463D01*
X0029000Y0366461D02*
X0009000Y0366461D01*
X0009000Y0367460D02*
X0029000Y0367460D01*
X0029000Y0368458D02*
X0009958Y0368458D01*
X0010957Y0369457D02*
X0029000Y0369457D01*
X0029000Y0370455D02*
X0011955Y0370455D01*
X0012954Y0371454D02*
X0029000Y0371454D01*
X0029000Y0372452D02*
X0013952Y0372452D01*
X0014951Y0373451D02*
X0029000Y0373451D01*
X0029000Y0374449D02*
X0015949Y0374449D01*
X0016948Y0375448D02*
X0029000Y0375448D01*
X0029000Y0376446D02*
X0017946Y0376446D01*
X0018945Y0377445D02*
X0029000Y0377445D01*
X0029000Y0378443D02*
X0019943Y0378443D01*
X0020942Y0379442D02*
X0029000Y0379442D01*
X0029000Y0380440D02*
X0021940Y0380440D01*
X0022939Y0381439D02*
X0029000Y0381439D01*
X0029000Y0382437D02*
X0023937Y0382437D01*
X0024936Y0383436D02*
X0029000Y0383436D01*
X0029000Y0384434D02*
X0025934Y0384434D01*
X0026933Y0385433D02*
X0029000Y0385433D01*
X0029000Y0386431D02*
X0027931Y0386431D01*
X0028930Y0387430D02*
X0029000Y0387430D01*
D11*
X0053547Y0321102D02*
X0059453Y0321102D01*
X0059453Y0320709D01*
X0058862Y0320118D01*
X0058862Y0319331D01*
X0059453Y0318740D01*
X0059453Y0317559D01*
X0058862Y0316969D01*
X0058862Y0316181D01*
X0059453Y0315591D01*
X0059453Y0314409D01*
X0058862Y0313819D01*
X0058862Y0313031D01*
X0059453Y0312441D01*
X0059453Y0311260D01*
X0058862Y0310669D01*
X0058862Y0309882D01*
X0059453Y0309291D01*
X0059453Y0308898D01*
X0053547Y0308898D01*
X0053547Y0309291D01*
X0054138Y0309882D01*
X0054138Y0310669D01*
X0053547Y0311260D01*
X0053547Y0312441D01*
X0054138Y0313031D01*
X0054138Y0313819D01*
X0053547Y0314409D01*
X0053547Y0315591D01*
X0054138Y0316181D01*
X0054138Y0316969D01*
X0053547Y0317559D01*
X0053547Y0318740D01*
X0054138Y0319331D01*
X0054138Y0320118D01*
X0053547Y0320709D01*
X0053547Y0321102D01*
X0053843Y0320512D02*
X0054236Y0320118D01*
X0054236Y0319331D01*
X0053843Y0318937D01*
X0054728Y0318937D01*
X0054728Y0320512D01*
X0053843Y0320512D01*
X0054132Y0320222D02*
X0054728Y0320222D01*
X0054728Y0319824D02*
X0054236Y0319824D01*
X0054236Y0319425D02*
X0054728Y0319425D01*
X0054728Y0319027D02*
X0053932Y0319027D01*
X0053843Y0317362D02*
X0054236Y0316969D01*
X0054236Y0316181D01*
X0053843Y0315787D01*
X0054728Y0315787D01*
X0054728Y0317362D01*
X0053843Y0317362D01*
X0054170Y0317034D02*
X0054728Y0317034D01*
X0054728Y0316636D02*
X0054236Y0316636D01*
X0054236Y0316237D02*
X0054728Y0316237D01*
X0054728Y0315839D02*
X0053894Y0315839D01*
X0053843Y0314213D02*
X0054236Y0313819D01*
X0054236Y0313031D01*
X0053843Y0312638D01*
X0054728Y0312638D01*
X0054728Y0314213D01*
X0053843Y0314213D01*
X0054209Y0313846D02*
X0054728Y0313846D01*
X0054728Y0313448D02*
X0054236Y0313448D01*
X0054236Y0313049D02*
X0054728Y0313049D01*
X0054728Y0312651D02*
X0053855Y0312651D01*
X0053843Y0311063D02*
X0054236Y0310669D01*
X0054236Y0309882D01*
X0053843Y0309488D01*
X0054728Y0309488D01*
X0054728Y0311063D01*
X0053843Y0311063D01*
X0053849Y0311057D02*
X0054728Y0311057D01*
X0054728Y0310658D02*
X0054236Y0310658D01*
X0054236Y0310260D02*
X0054728Y0310260D01*
X0054728Y0309861D02*
X0054215Y0309861D01*
X0054728Y0308898D02*
X0054728Y0321102D01*
X0058272Y0321102D02*
X0058272Y0308898D01*
X0058272Y0309488D02*
X0059157Y0309488D01*
X0058764Y0309882D01*
X0058764Y0310669D01*
X0059157Y0311063D01*
X0058272Y0311063D01*
X0058272Y0309488D01*
X0058272Y0309861D02*
X0058785Y0309861D01*
X0058764Y0310260D02*
X0058272Y0310260D01*
X0058272Y0310658D02*
X0058764Y0310658D01*
X0059151Y0311057D02*
X0058272Y0311057D01*
X0058272Y0312638D02*
X0059157Y0312638D01*
X0058764Y0313031D01*
X0058764Y0313819D01*
X0059157Y0314213D01*
X0058272Y0314213D01*
X0058272Y0312638D01*
X0058272Y0312651D02*
X0059145Y0312651D01*
X0058764Y0313049D02*
X0058272Y0313049D01*
X0058272Y0313448D02*
X0058764Y0313448D01*
X0058791Y0313846D02*
X0058272Y0313846D01*
X0058272Y0315787D02*
X0059157Y0315787D01*
X0058764Y0316181D01*
X0058764Y0316969D01*
X0059157Y0317362D01*
X0058272Y0317362D01*
X0058272Y0315787D01*
X0058272Y0315839D02*
X0059106Y0315839D01*
X0058764Y0316237D02*
X0058272Y0316237D01*
X0058272Y0316636D02*
X0058764Y0316636D01*
X0058830Y0317034D02*
X0058272Y0317034D01*
X0058272Y0318937D02*
X0059157Y0318937D01*
X0058764Y0319331D01*
X0058764Y0320118D01*
X0059157Y0320512D01*
X0058272Y0320512D01*
X0058272Y0318937D01*
X0058272Y0319027D02*
X0059068Y0319027D01*
X0058764Y0319425D02*
X0058272Y0319425D01*
X0058272Y0319824D02*
X0058764Y0319824D01*
X0058868Y0320222D02*
X0058272Y0320222D01*
X0058272Y0291102D02*
X0058272Y0278898D01*
X0058272Y0279488D02*
X0059157Y0279488D01*
X0058764Y0279882D01*
X0058764Y0280669D01*
X0059157Y0281063D01*
X0058272Y0281063D01*
X0058272Y0279488D01*
X0058272Y0279574D02*
X0059071Y0279574D01*
X0058862Y0279882D02*
X0059453Y0279291D01*
X0059453Y0278898D01*
X0053547Y0278898D01*
X0053547Y0279291D01*
X0054138Y0279882D01*
X0054138Y0280669D01*
X0053547Y0281260D01*
X0053547Y0282441D01*
X0054138Y0283031D01*
X0054138Y0283819D01*
X0053547Y0284409D01*
X0053547Y0285591D01*
X0054138Y0286181D01*
X0054138Y0286969D01*
X0053547Y0287559D01*
X0053547Y0288740D01*
X0054138Y0289331D01*
X0054138Y0290118D01*
X0053547Y0290709D01*
X0053547Y0291102D01*
X0059453Y0291102D01*
X0059453Y0290709D01*
X0058862Y0290118D01*
X0058862Y0289331D01*
X0059453Y0288740D01*
X0059453Y0287559D01*
X0058862Y0286969D01*
X0058862Y0286181D01*
X0059453Y0285591D01*
X0059453Y0284409D01*
X0058862Y0283819D01*
X0058862Y0283031D01*
X0059453Y0282441D01*
X0059453Y0281260D01*
X0058862Y0280669D01*
X0058862Y0279882D01*
X0058764Y0279973D02*
X0058272Y0279973D01*
X0058272Y0280371D02*
X0058764Y0280371D01*
X0058864Y0280770D02*
X0058272Y0280770D01*
X0058272Y0282638D02*
X0059157Y0282638D01*
X0058764Y0283031D01*
X0058764Y0283819D01*
X0059157Y0284213D01*
X0058272Y0284213D01*
X0058272Y0282638D01*
X0058272Y0282762D02*
X0059033Y0282762D01*
X0058764Y0283161D02*
X0058272Y0283161D01*
X0058272Y0283559D02*
X0058764Y0283559D01*
X0058903Y0283958D02*
X0058272Y0283958D01*
X0058272Y0285787D02*
X0059157Y0285787D01*
X0058764Y0286181D01*
X0058764Y0286969D01*
X0059157Y0287362D01*
X0058272Y0287362D01*
X0058272Y0285787D01*
X0058272Y0285950D02*
X0058994Y0285950D01*
X0058764Y0286349D02*
X0058272Y0286349D01*
X0058272Y0286748D02*
X0058764Y0286748D01*
X0058941Y0287146D02*
X0058272Y0287146D01*
X0058272Y0288937D02*
X0059157Y0288937D01*
X0058764Y0289331D01*
X0058764Y0290118D01*
X0059157Y0290512D01*
X0058272Y0290512D01*
X0058272Y0288937D01*
X0058272Y0289139D02*
X0058956Y0289139D01*
X0058764Y0289537D02*
X0058272Y0289537D01*
X0058272Y0289936D02*
X0058764Y0289936D01*
X0058980Y0290334D02*
X0058272Y0290334D01*
X0054728Y0290334D02*
X0054020Y0290334D01*
X0053843Y0290512D02*
X0054236Y0290118D01*
X0054236Y0289331D01*
X0053843Y0288937D01*
X0054728Y0288937D01*
X0054728Y0290512D01*
X0053843Y0290512D01*
X0054236Y0289936D02*
X0054728Y0289936D01*
X0054728Y0289537D02*
X0054236Y0289537D01*
X0054044Y0289139D02*
X0054728Y0289139D01*
X0054728Y0287362D02*
X0053843Y0287362D01*
X0054236Y0286969D01*
X0054236Y0286181D01*
X0053843Y0285787D01*
X0054728Y0285787D01*
X0054728Y0287362D01*
X0054728Y0287146D02*
X0054059Y0287146D01*
X0054236Y0286748D02*
X0054728Y0286748D01*
X0054728Y0286349D02*
X0054236Y0286349D01*
X0054006Y0285950D02*
X0054728Y0285950D01*
X0054728Y0284213D02*
X0053843Y0284213D01*
X0054236Y0283819D01*
X0054236Y0283031D01*
X0053843Y0282638D01*
X0054728Y0282638D01*
X0054728Y0284213D01*
X0054728Y0283958D02*
X0054097Y0283958D01*
X0054236Y0283559D02*
X0054728Y0283559D01*
X0054728Y0283161D02*
X0054236Y0283161D01*
X0053967Y0282762D02*
X0054728Y0282762D01*
X0054728Y0281063D02*
X0053843Y0281063D01*
X0054236Y0280669D01*
X0054236Y0279882D01*
X0053843Y0279488D01*
X0054728Y0279488D01*
X0054728Y0281063D01*
X0054728Y0280770D02*
X0054136Y0280770D01*
X0054236Y0280371D02*
X0054728Y0280371D01*
X0054728Y0279973D02*
X0054236Y0279973D01*
X0053929Y0279574D02*
X0054728Y0279574D01*
X0054728Y0278898D02*
X0054728Y0291102D01*
X0054728Y0261102D02*
X0054728Y0248898D01*
X0054728Y0249488D02*
X0054728Y0251063D01*
X0053843Y0251063D01*
X0054236Y0250669D01*
X0054236Y0249882D01*
X0053843Y0249488D01*
X0054728Y0249488D01*
X0054728Y0249686D02*
X0054040Y0249686D01*
X0054138Y0249882D02*
X0053547Y0249291D01*
X0053547Y0248898D01*
X0059453Y0248898D01*
X0059453Y0249291D01*
X0058862Y0249882D01*
X0058862Y0250669D01*
X0059453Y0251260D01*
X0059453Y0252441D01*
X0058862Y0253031D01*
X0058862Y0253819D01*
X0059453Y0254409D01*
X0059453Y0255591D01*
X0058862Y0256181D01*
X0058862Y0256969D01*
X0059453Y0257559D01*
X0059453Y0258740D01*
X0058862Y0259331D01*
X0058862Y0260118D01*
X0059453Y0260709D01*
X0059453Y0261102D01*
X0053547Y0261102D01*
X0053547Y0260709D01*
X0054138Y0260118D01*
X0054138Y0259331D01*
X0053547Y0258740D01*
X0053547Y0257559D01*
X0054138Y0256969D01*
X0054138Y0256181D01*
X0053547Y0255591D01*
X0053547Y0254409D01*
X0054138Y0253819D01*
X0054138Y0253031D01*
X0053547Y0252441D01*
X0053547Y0251260D01*
X0054138Y0250669D01*
X0054138Y0249882D01*
X0054236Y0250084D02*
X0054728Y0250084D01*
X0054728Y0250483D02*
X0054236Y0250483D01*
X0054024Y0250881D02*
X0054728Y0250881D01*
X0054728Y0252638D02*
X0054728Y0254213D01*
X0053843Y0254213D01*
X0054236Y0253819D01*
X0054236Y0253031D01*
X0053843Y0252638D01*
X0054728Y0252638D01*
X0054728Y0252874D02*
X0054079Y0252874D01*
X0054236Y0253273D02*
X0054728Y0253273D01*
X0054728Y0253671D02*
X0054236Y0253671D01*
X0053986Y0254070D02*
X0054728Y0254070D01*
X0054728Y0255787D02*
X0054728Y0257362D01*
X0053843Y0257362D01*
X0054236Y0256969D01*
X0054236Y0256181D01*
X0053843Y0255787D01*
X0054728Y0255787D01*
X0054728Y0256062D02*
X0054117Y0256062D01*
X0054236Y0256461D02*
X0054728Y0256461D01*
X0054728Y0256859D02*
X0054236Y0256859D01*
X0053947Y0257258D02*
X0054728Y0257258D01*
X0054728Y0258937D02*
X0054728Y0260512D01*
X0053843Y0260512D01*
X0054236Y0260118D01*
X0054236Y0259331D01*
X0053843Y0258937D01*
X0054728Y0258937D01*
X0054728Y0259250D02*
X0054156Y0259250D01*
X0054236Y0259649D02*
X0054728Y0259649D01*
X0054728Y0260047D02*
X0054236Y0260047D01*
X0053909Y0260446D02*
X0054728Y0260446D01*
X0058272Y0260446D02*
X0059091Y0260446D01*
X0059157Y0260512D02*
X0058764Y0260118D01*
X0058764Y0259331D01*
X0059157Y0258937D01*
X0058272Y0258937D01*
X0058272Y0260512D01*
X0059157Y0260512D01*
X0058764Y0260047D02*
X0058272Y0260047D01*
X0058272Y0259649D02*
X0058764Y0259649D01*
X0058844Y0259250D02*
X0058272Y0259250D01*
X0058272Y0261102D02*
X0058272Y0248898D01*
X0058272Y0249488D02*
X0059157Y0249488D01*
X0058764Y0249882D01*
X0058764Y0250669D01*
X0059157Y0251063D01*
X0058272Y0251063D01*
X0058272Y0249488D01*
X0058272Y0249686D02*
X0058960Y0249686D01*
X0058764Y0250084D02*
X0058272Y0250084D01*
X0058272Y0250483D02*
X0058764Y0250483D01*
X0058976Y0250881D02*
X0058272Y0250881D01*
X0058272Y0252638D02*
X0059157Y0252638D01*
X0058764Y0253031D01*
X0058764Y0253819D01*
X0059157Y0254213D01*
X0058272Y0254213D01*
X0058272Y0252638D01*
X0058272Y0252874D02*
X0058921Y0252874D01*
X0058764Y0253273D02*
X0058272Y0253273D01*
X0058272Y0253671D02*
X0058764Y0253671D01*
X0059014Y0254070D02*
X0058272Y0254070D01*
X0058272Y0255787D02*
X0059157Y0255787D01*
X0058764Y0256181D01*
X0058764Y0256969D01*
X0059157Y0257362D01*
X0058272Y0257362D01*
X0058272Y0255787D01*
X0058272Y0256062D02*
X0058883Y0256062D01*
X0058764Y0256461D02*
X0058272Y0256461D01*
X0058272Y0256859D02*
X0058764Y0256859D01*
X0059053Y0257258D02*
X0058272Y0257258D01*
X0148547Y0257559D02*
X0149138Y0256969D01*
X0149138Y0256181D01*
X0148547Y0255591D01*
X0148547Y0254409D01*
X0149138Y0253819D01*
X0149138Y0253031D01*
X0148547Y0252441D01*
X0148547Y0251260D01*
X0149138Y0250669D01*
X0149138Y0249882D01*
X0148547Y0249291D01*
X0148547Y0248898D01*
X0154453Y0248898D01*
X0154453Y0249291D01*
X0153862Y0249882D01*
X0153862Y0250669D01*
X0154453Y0251260D01*
X0154453Y0252441D01*
X0153862Y0253031D01*
X0153862Y0253819D01*
X0154453Y0254409D01*
X0154453Y0255591D01*
X0153862Y0256181D01*
X0153862Y0256969D01*
X0154453Y0257559D01*
X0154453Y0258740D01*
X0153862Y0259331D01*
X0153862Y0260118D01*
X0154453Y0260709D01*
X0154453Y0261102D01*
X0148547Y0261102D01*
X0148547Y0260709D01*
X0149138Y0260118D01*
X0149138Y0259331D01*
X0148547Y0258740D01*
X0148547Y0257559D01*
X0148843Y0257362D02*
X0149236Y0256969D01*
X0149236Y0256181D01*
X0148843Y0255787D01*
X0149728Y0255787D01*
X0149728Y0257362D01*
X0148843Y0257362D01*
X0148947Y0257258D02*
X0149728Y0257258D01*
X0149728Y0256859D02*
X0149236Y0256859D01*
X0149236Y0256461D02*
X0149728Y0256461D01*
X0149728Y0256062D02*
X0149117Y0256062D01*
X0148843Y0254213D02*
X0149236Y0253819D01*
X0149236Y0253031D01*
X0148843Y0252638D01*
X0149728Y0252638D01*
X0149728Y0254213D01*
X0148843Y0254213D01*
X0148986Y0254070D02*
X0149728Y0254070D01*
X0149728Y0253671D02*
X0149236Y0253671D01*
X0149236Y0253273D02*
X0149728Y0253273D01*
X0149728Y0252874D02*
X0149079Y0252874D01*
X0148843Y0251063D02*
X0149236Y0250669D01*
X0149236Y0249882D01*
X0148843Y0249488D01*
X0149728Y0249488D01*
X0149728Y0251063D01*
X0148843Y0251063D01*
X0149024Y0250881D02*
X0149728Y0250881D01*
X0149728Y0250483D02*
X0149236Y0250483D01*
X0149236Y0250084D02*
X0149728Y0250084D01*
X0149728Y0249686D02*
X0149040Y0249686D01*
X0149728Y0248898D02*
X0149728Y0261102D01*
X0149728Y0260512D02*
X0148843Y0260512D01*
X0149236Y0260118D01*
X0149236Y0259331D01*
X0148843Y0258937D01*
X0149728Y0258937D01*
X0149728Y0260512D01*
X0149728Y0260446D02*
X0148909Y0260446D01*
X0149236Y0260047D02*
X0149728Y0260047D01*
X0149728Y0259649D02*
X0149236Y0259649D01*
X0149156Y0259250D02*
X0149728Y0259250D01*
X0153272Y0259250D02*
X0153844Y0259250D01*
X0153764Y0259331D02*
X0153764Y0260118D01*
X0154157Y0260512D01*
X0153272Y0260512D01*
X0153272Y0258937D01*
X0154157Y0258937D01*
X0153764Y0259331D01*
X0153764Y0259649D02*
X0153272Y0259649D01*
X0153272Y0260047D02*
X0153764Y0260047D01*
X0154091Y0260446D02*
X0153272Y0260446D01*
X0153272Y0261102D02*
X0153272Y0248898D01*
X0153272Y0249488D02*
X0154157Y0249488D01*
X0153764Y0249882D01*
X0153764Y0250669D01*
X0154157Y0251063D01*
X0153272Y0251063D01*
X0153272Y0249488D01*
X0153272Y0249686D02*
X0153960Y0249686D01*
X0153764Y0250084D02*
X0153272Y0250084D01*
X0153272Y0250483D02*
X0153764Y0250483D01*
X0153976Y0250881D02*
X0153272Y0250881D01*
X0153272Y0252638D02*
X0154157Y0252638D01*
X0153764Y0253031D01*
X0153764Y0253819D01*
X0154157Y0254213D01*
X0153272Y0254213D01*
X0153272Y0252638D01*
X0153272Y0252874D02*
X0153921Y0252874D01*
X0153764Y0253273D02*
X0153272Y0253273D01*
X0153272Y0253671D02*
X0153764Y0253671D01*
X0154014Y0254070D02*
X0153272Y0254070D01*
X0153272Y0255787D02*
X0154157Y0255787D01*
X0153764Y0256181D01*
X0153764Y0256969D01*
X0154157Y0257362D01*
X0153272Y0257362D01*
X0153272Y0255787D01*
X0153272Y0256062D02*
X0153883Y0256062D01*
X0153764Y0256461D02*
X0153272Y0256461D01*
X0153272Y0256859D02*
X0153764Y0256859D01*
X0154053Y0257258D02*
X0153272Y0257258D01*
X0153272Y0278898D02*
X0153272Y0291102D01*
X0153272Y0290512D02*
X0153272Y0288937D01*
X0154157Y0288937D01*
X0153764Y0289331D01*
X0153764Y0290118D01*
X0154157Y0290512D01*
X0153272Y0290512D01*
X0153272Y0290334D02*
X0153980Y0290334D01*
X0153862Y0290118D02*
X0154453Y0290709D01*
X0154453Y0291102D01*
X0148547Y0291102D01*
X0148547Y0290709D01*
X0149138Y0290118D01*
X0149138Y0289331D01*
X0148547Y0288740D01*
X0148547Y0287559D01*
X0149138Y0286969D01*
X0149138Y0286181D01*
X0148547Y0285591D01*
X0148547Y0284409D01*
X0149138Y0283819D01*
X0149138Y0283031D01*
X0148547Y0282441D01*
X0148547Y0281260D01*
X0149138Y0280669D01*
X0149138Y0279882D01*
X0148547Y0279291D01*
X0148547Y0278898D01*
X0154453Y0278898D01*
X0154453Y0279291D01*
X0153862Y0279882D01*
X0153862Y0280669D01*
X0154453Y0281260D01*
X0154453Y0282441D01*
X0153862Y0283031D01*
X0153862Y0283819D01*
X0154453Y0284409D01*
X0154453Y0285591D01*
X0153862Y0286181D01*
X0153862Y0286969D01*
X0154453Y0287559D01*
X0154453Y0288740D01*
X0153862Y0289331D01*
X0153862Y0290118D01*
X0153764Y0289936D02*
X0153272Y0289936D01*
X0153272Y0289537D02*
X0153764Y0289537D01*
X0153956Y0289139D02*
X0153272Y0289139D01*
X0153272Y0287362D02*
X0153272Y0285787D01*
X0154157Y0285787D01*
X0153764Y0286181D01*
X0153764Y0286969D01*
X0154157Y0287362D01*
X0153272Y0287362D01*
X0153272Y0287146D02*
X0153941Y0287146D01*
X0153764Y0286748D02*
X0153272Y0286748D01*
X0153272Y0286349D02*
X0153764Y0286349D01*
X0153994Y0285950D02*
X0153272Y0285950D01*
X0153272Y0284213D02*
X0153272Y0282638D01*
X0154157Y0282638D01*
X0153764Y0283031D01*
X0153764Y0283819D01*
X0154157Y0284213D01*
X0153272Y0284213D01*
X0153272Y0283958D02*
X0153903Y0283958D01*
X0153764Y0283559D02*
X0153272Y0283559D01*
X0153272Y0283161D02*
X0153764Y0283161D01*
X0154033Y0282762D02*
X0153272Y0282762D01*
X0153272Y0281063D02*
X0153272Y0279488D01*
X0154157Y0279488D01*
X0153764Y0279882D01*
X0153764Y0280669D01*
X0154157Y0281063D01*
X0153272Y0281063D01*
X0153272Y0280770D02*
X0153864Y0280770D01*
X0153764Y0280371D02*
X0153272Y0280371D01*
X0153272Y0279973D02*
X0153764Y0279973D01*
X0154071Y0279574D02*
X0153272Y0279574D01*
X0149728Y0279574D02*
X0148929Y0279574D01*
X0148843Y0279488D02*
X0149236Y0279882D01*
X0149236Y0280669D01*
X0148843Y0281063D01*
X0149728Y0281063D01*
X0149728Y0279488D01*
X0148843Y0279488D01*
X0149236Y0279973D02*
X0149728Y0279973D01*
X0149728Y0280371D02*
X0149236Y0280371D01*
X0149136Y0280770D02*
X0149728Y0280770D01*
X0149728Y0282638D02*
X0148843Y0282638D01*
X0149236Y0283031D01*
X0149236Y0283819D01*
X0148843Y0284213D01*
X0149728Y0284213D01*
X0149728Y0282638D01*
X0149728Y0282762D02*
X0148967Y0282762D01*
X0149236Y0283161D02*
X0149728Y0283161D01*
X0149728Y0283559D02*
X0149236Y0283559D01*
X0149097Y0283958D02*
X0149728Y0283958D01*
X0149728Y0285787D02*
X0148843Y0285787D01*
X0149236Y0286181D01*
X0149236Y0286969D01*
X0148843Y0287362D01*
X0149728Y0287362D01*
X0149728Y0285787D01*
X0149728Y0285950D02*
X0149006Y0285950D01*
X0149236Y0286349D02*
X0149728Y0286349D01*
X0149728Y0286748D02*
X0149236Y0286748D01*
X0149059Y0287146D02*
X0149728Y0287146D01*
X0149728Y0288937D02*
X0149728Y0290512D01*
X0148843Y0290512D01*
X0149236Y0290118D01*
X0149236Y0289331D01*
X0148843Y0288937D01*
X0149728Y0288937D01*
X0149728Y0289139D02*
X0149044Y0289139D01*
X0149236Y0289537D02*
X0149728Y0289537D01*
X0149728Y0289936D02*
X0149236Y0289936D01*
X0149020Y0290334D02*
X0149728Y0290334D01*
X0149728Y0291102D02*
X0149728Y0278898D01*
X0149728Y0308898D02*
X0149728Y0321102D01*
X0149728Y0320512D02*
X0148843Y0320512D01*
X0149236Y0320118D01*
X0149236Y0319331D01*
X0148843Y0318937D01*
X0149728Y0318937D01*
X0149728Y0320512D01*
X0149728Y0320222D02*
X0149132Y0320222D01*
X0149138Y0320118D02*
X0149138Y0319331D01*
X0148547Y0318740D01*
X0148547Y0317559D01*
X0149138Y0316969D01*
X0149138Y0316181D01*
X0148547Y0315591D01*
X0148547Y0314409D01*
X0149138Y0313819D01*
X0149138Y0313031D01*
X0148547Y0312441D01*
X0148547Y0311260D01*
X0149138Y0310669D01*
X0149138Y0309882D01*
X0148547Y0309291D01*
X0148547Y0308898D01*
X0154453Y0308898D01*
X0154453Y0309291D01*
X0153862Y0309882D01*
X0153862Y0310669D01*
X0154453Y0311260D01*
X0154453Y0312441D01*
X0153862Y0313031D01*
X0153862Y0313819D01*
X0154453Y0314409D01*
X0154453Y0315591D01*
X0153862Y0316181D01*
X0153862Y0316969D01*
X0154453Y0317559D01*
X0154453Y0318740D01*
X0153862Y0319331D01*
X0153862Y0320118D01*
X0154453Y0320709D01*
X0154453Y0321102D01*
X0148547Y0321102D01*
X0148547Y0320709D01*
X0149138Y0320118D01*
X0149236Y0319824D02*
X0149728Y0319824D01*
X0149728Y0319425D02*
X0149236Y0319425D01*
X0148932Y0319027D02*
X0149728Y0319027D01*
X0149728Y0317362D02*
X0148843Y0317362D01*
X0149236Y0316969D01*
X0149236Y0316181D01*
X0148843Y0315787D01*
X0149728Y0315787D01*
X0149728Y0317362D01*
X0149728Y0317034D02*
X0149170Y0317034D01*
X0149236Y0316636D02*
X0149728Y0316636D01*
X0149728Y0316237D02*
X0149236Y0316237D01*
X0148894Y0315839D02*
X0149728Y0315839D01*
X0149728Y0314213D02*
X0148843Y0314213D01*
X0149236Y0313819D01*
X0149236Y0313031D01*
X0148843Y0312638D01*
X0149728Y0312638D01*
X0149728Y0314213D01*
X0149728Y0313846D02*
X0149209Y0313846D01*
X0149236Y0313448D02*
X0149728Y0313448D01*
X0149728Y0313049D02*
X0149236Y0313049D01*
X0148855Y0312651D02*
X0149728Y0312651D01*
X0149728Y0311063D02*
X0148843Y0311063D01*
X0149236Y0310669D01*
X0149236Y0309882D01*
X0148843Y0309488D01*
X0149728Y0309488D01*
X0149728Y0311063D01*
X0149728Y0311057D02*
X0148849Y0311057D01*
X0149236Y0310658D02*
X0149728Y0310658D01*
X0149728Y0310260D02*
X0149236Y0310260D01*
X0149215Y0309861D02*
X0149728Y0309861D01*
X0153272Y0309861D02*
X0153785Y0309861D01*
X0153764Y0309882D02*
X0153764Y0310669D01*
X0154157Y0311063D01*
X0153272Y0311063D01*
X0153272Y0309488D01*
X0154157Y0309488D01*
X0153764Y0309882D01*
X0153764Y0310260D02*
X0153272Y0310260D01*
X0153272Y0310658D02*
X0153764Y0310658D01*
X0154151Y0311057D02*
X0153272Y0311057D01*
X0153272Y0312638D02*
X0154157Y0312638D01*
X0153764Y0313031D01*
X0153764Y0313819D01*
X0154157Y0314213D01*
X0153272Y0314213D01*
X0153272Y0312638D01*
X0153272Y0312651D02*
X0154145Y0312651D01*
X0153764Y0313049D02*
X0153272Y0313049D01*
X0153272Y0313448D02*
X0153764Y0313448D01*
X0153791Y0313846D02*
X0153272Y0313846D01*
X0153272Y0315787D02*
X0154157Y0315787D01*
X0153764Y0316181D01*
X0153764Y0316969D01*
X0154157Y0317362D01*
X0153272Y0317362D01*
X0153272Y0315787D01*
X0153272Y0315839D02*
X0154106Y0315839D01*
X0153764Y0316237D02*
X0153272Y0316237D01*
X0153272Y0316636D02*
X0153764Y0316636D01*
X0153830Y0317034D02*
X0153272Y0317034D01*
X0153272Y0318937D02*
X0154157Y0318937D01*
X0153764Y0319331D01*
X0153764Y0320118D01*
X0154157Y0320512D01*
X0153272Y0320512D01*
X0153272Y0318937D01*
X0153272Y0319027D02*
X0154068Y0319027D01*
X0153764Y0319425D02*
X0153272Y0319425D01*
X0153272Y0319824D02*
X0153764Y0319824D01*
X0153868Y0320222D02*
X0153272Y0320222D01*
X0153272Y0321102D02*
X0153272Y0308898D01*
X0243547Y0308898D02*
X0249453Y0308898D01*
X0249453Y0309291D01*
X0248862Y0309882D01*
X0248862Y0310669D01*
X0249453Y0311260D01*
X0249453Y0312441D01*
X0248862Y0313031D01*
X0248862Y0313819D01*
X0249453Y0314409D01*
X0249453Y0315591D01*
X0248862Y0316181D01*
X0248862Y0316969D01*
X0249453Y0317559D01*
X0249453Y0318740D01*
X0248862Y0319331D01*
X0248862Y0320118D01*
X0249453Y0320709D01*
X0249453Y0321102D01*
X0243547Y0321102D01*
X0243547Y0320709D01*
X0244138Y0320118D01*
X0244138Y0319331D01*
X0243547Y0318740D01*
X0243547Y0317559D01*
X0244138Y0316969D01*
X0244138Y0316181D01*
X0243547Y0315591D01*
X0243547Y0314409D01*
X0244138Y0313819D01*
X0244138Y0313031D01*
X0243547Y0312441D01*
X0243547Y0311260D01*
X0244138Y0310669D01*
X0244138Y0309882D01*
X0243547Y0309291D01*
X0243547Y0308898D01*
X0243843Y0309488D02*
X0244236Y0309882D01*
X0244236Y0310669D01*
X0243843Y0311063D01*
X0244728Y0311063D01*
X0244728Y0309488D01*
X0243843Y0309488D01*
X0244215Y0309861D02*
X0244728Y0309861D01*
X0244728Y0310260D02*
X0244236Y0310260D01*
X0244236Y0310658D02*
X0244728Y0310658D01*
X0244728Y0311057D02*
X0243849Y0311057D01*
X0243843Y0312638D02*
X0244236Y0313031D01*
X0244236Y0313819D01*
X0243843Y0314213D01*
X0244728Y0314213D01*
X0244728Y0312638D01*
X0243843Y0312638D01*
X0243855Y0312651D02*
X0244728Y0312651D01*
X0244728Y0313049D02*
X0244236Y0313049D01*
X0244236Y0313448D02*
X0244728Y0313448D01*
X0244728Y0313846D02*
X0244209Y0313846D01*
X0243843Y0315787D02*
X0244236Y0316181D01*
X0244236Y0316969D01*
X0243843Y0317362D01*
X0244728Y0317362D01*
X0244728Y0315787D01*
X0243843Y0315787D01*
X0243894Y0315839D02*
X0244728Y0315839D01*
X0244728Y0316237D02*
X0244236Y0316237D01*
X0244236Y0316636D02*
X0244728Y0316636D01*
X0244728Y0317034D02*
X0244170Y0317034D01*
X0243843Y0318937D02*
X0244236Y0319331D01*
X0244236Y0320118D01*
X0243843Y0320512D01*
X0244728Y0320512D01*
X0244728Y0318937D01*
X0243843Y0318937D01*
X0243932Y0319027D02*
X0244728Y0319027D01*
X0244728Y0319425D02*
X0244236Y0319425D01*
X0244236Y0319824D02*
X0244728Y0319824D01*
X0244728Y0320222D02*
X0244132Y0320222D01*
X0244728Y0321102D02*
X0244728Y0308898D01*
X0248272Y0308898D02*
X0248272Y0321102D01*
X0248272Y0320512D02*
X0248272Y0318937D01*
X0249157Y0318937D01*
X0248764Y0319331D01*
X0248764Y0320118D01*
X0249157Y0320512D01*
X0248272Y0320512D01*
X0248272Y0320222D02*
X0248868Y0320222D01*
X0248764Y0319824D02*
X0248272Y0319824D01*
X0248272Y0319425D02*
X0248764Y0319425D01*
X0249068Y0319027D02*
X0248272Y0319027D01*
X0248272Y0317362D02*
X0248272Y0315787D01*
X0249157Y0315787D01*
X0248764Y0316181D01*
X0248764Y0316969D01*
X0249157Y0317362D01*
X0248272Y0317362D01*
X0248272Y0317034D02*
X0248830Y0317034D01*
X0248764Y0316636D02*
X0248272Y0316636D01*
X0248272Y0316237D02*
X0248764Y0316237D01*
X0249106Y0315839D02*
X0248272Y0315839D01*
X0248272Y0314213D02*
X0248272Y0312638D01*
X0249157Y0312638D01*
X0248764Y0313031D01*
X0248764Y0313819D01*
X0249157Y0314213D01*
X0248272Y0314213D01*
X0248272Y0313846D02*
X0248791Y0313846D01*
X0248764Y0313448D02*
X0248272Y0313448D01*
X0248272Y0313049D02*
X0248764Y0313049D01*
X0249145Y0312651D02*
X0248272Y0312651D01*
X0248272Y0311063D02*
X0248272Y0309488D01*
X0249157Y0309488D01*
X0248764Y0309882D01*
X0248764Y0310669D01*
X0249157Y0311063D01*
X0248272Y0311063D01*
X0248272Y0311057D02*
X0249151Y0311057D01*
X0248764Y0310658D02*
X0248272Y0310658D01*
X0248272Y0310260D02*
X0248764Y0310260D01*
X0248785Y0309861D02*
X0248272Y0309861D01*
X0248272Y0291102D02*
X0248272Y0278898D01*
X0248272Y0279488D02*
X0249157Y0279488D01*
X0248764Y0279882D01*
X0248764Y0280669D01*
X0249157Y0281063D01*
X0248272Y0281063D01*
X0248272Y0279488D01*
X0248272Y0279574D02*
X0249071Y0279574D01*
X0248862Y0279882D02*
X0248862Y0280669D01*
X0249453Y0281260D01*
X0249453Y0282441D01*
X0248862Y0283031D01*
X0248862Y0283819D01*
X0249453Y0284409D01*
X0249453Y0285591D01*
X0248862Y0286181D01*
X0248862Y0286969D01*
X0249453Y0287559D01*
X0249453Y0288740D01*
X0248862Y0289331D01*
X0248862Y0290118D01*
X0249453Y0290709D01*
X0249453Y0291102D01*
X0243547Y0291102D01*
X0243547Y0290709D01*
X0244138Y0290118D01*
X0244138Y0289331D01*
X0243547Y0288740D01*
X0243547Y0287559D01*
X0244138Y0286969D01*
X0244138Y0286181D01*
X0243547Y0285591D01*
X0243547Y0284409D01*
X0244138Y0283819D01*
X0244138Y0283031D01*
X0243547Y0282441D01*
X0243547Y0281260D01*
X0244138Y0280669D01*
X0244138Y0279882D01*
X0243547Y0279291D01*
X0243547Y0278898D01*
X0249453Y0278898D01*
X0249453Y0279291D01*
X0248862Y0279882D01*
X0248764Y0279973D02*
X0248272Y0279973D01*
X0248272Y0280371D02*
X0248764Y0280371D01*
X0248864Y0280770D02*
X0248272Y0280770D01*
X0248272Y0282638D02*
X0249157Y0282638D01*
X0248764Y0283031D01*
X0248764Y0283819D01*
X0249157Y0284213D01*
X0248272Y0284213D01*
X0248272Y0282638D01*
X0248272Y0282762D02*
X0249033Y0282762D01*
X0248764Y0283161D02*
X0248272Y0283161D01*
X0248272Y0283559D02*
X0248764Y0283559D01*
X0248903Y0283958D02*
X0248272Y0283958D01*
X0248272Y0285787D02*
X0249157Y0285787D01*
X0248764Y0286181D01*
X0248764Y0286969D01*
X0249157Y0287362D01*
X0248272Y0287362D01*
X0248272Y0285787D01*
X0248272Y0285950D02*
X0248994Y0285950D01*
X0248764Y0286349D02*
X0248272Y0286349D01*
X0248272Y0286748D02*
X0248764Y0286748D01*
X0248941Y0287146D02*
X0248272Y0287146D01*
X0248272Y0288937D02*
X0249157Y0288937D01*
X0248764Y0289331D01*
X0248764Y0290118D01*
X0249157Y0290512D01*
X0248272Y0290512D01*
X0248272Y0288937D01*
X0248272Y0289139D02*
X0248956Y0289139D01*
X0248764Y0289537D02*
X0248272Y0289537D01*
X0248272Y0289936D02*
X0248764Y0289936D01*
X0248980Y0290334D02*
X0248272Y0290334D01*
X0244728Y0290334D02*
X0244020Y0290334D01*
X0243843Y0290512D02*
X0244236Y0290118D01*
X0244236Y0289331D01*
X0243843Y0288937D01*
X0244728Y0288937D01*
X0244728Y0290512D01*
X0243843Y0290512D01*
X0244236Y0289936D02*
X0244728Y0289936D01*
X0244728Y0289537D02*
X0244236Y0289537D01*
X0244044Y0289139D02*
X0244728Y0289139D01*
X0244728Y0287362D02*
X0243843Y0287362D01*
X0244236Y0286969D01*
X0244236Y0286181D01*
X0243843Y0285787D01*
X0244728Y0285787D01*
X0244728Y0287362D01*
X0244728Y0287146D02*
X0244059Y0287146D01*
X0244236Y0286748D02*
X0244728Y0286748D01*
X0244728Y0286349D02*
X0244236Y0286349D01*
X0244006Y0285950D02*
X0244728Y0285950D01*
X0244728Y0284213D02*
X0243843Y0284213D01*
X0244236Y0283819D01*
X0244236Y0283031D01*
X0243843Y0282638D01*
X0244728Y0282638D01*
X0244728Y0284213D01*
X0244728Y0283958D02*
X0244097Y0283958D01*
X0244236Y0283559D02*
X0244728Y0283559D01*
X0244728Y0283161D02*
X0244236Y0283161D01*
X0243967Y0282762D02*
X0244728Y0282762D01*
X0244728Y0281063D02*
X0243843Y0281063D01*
X0244236Y0280669D01*
X0244236Y0279882D01*
X0243843Y0279488D01*
X0244728Y0279488D01*
X0244728Y0281063D01*
X0244728Y0280770D02*
X0244136Y0280770D01*
X0244236Y0280371D02*
X0244728Y0280371D01*
X0244728Y0279973D02*
X0244236Y0279973D01*
X0243929Y0279574D02*
X0244728Y0279574D01*
X0244728Y0278898D02*
X0244728Y0291102D01*
X0244728Y0261102D02*
X0244728Y0248898D01*
X0244728Y0249488D02*
X0244728Y0251063D01*
X0243843Y0251063D01*
X0244236Y0250669D01*
X0244236Y0249882D01*
X0243843Y0249488D01*
X0244728Y0249488D01*
X0244728Y0249686D02*
X0244040Y0249686D01*
X0244138Y0249882D02*
X0243547Y0249291D01*
X0243547Y0248898D01*
X0249453Y0248898D01*
X0249453Y0249291D01*
X0248862Y0249882D01*
X0248862Y0250669D01*
X0249453Y0251260D01*
X0249453Y0252441D01*
X0248862Y0253031D01*
X0248862Y0253819D01*
X0249453Y0254409D01*
X0249453Y0255591D01*
X0248862Y0256181D01*
X0248862Y0256969D01*
X0249453Y0257559D01*
X0249453Y0258740D01*
X0248862Y0259331D01*
X0248862Y0260118D01*
X0249453Y0260709D01*
X0249453Y0261102D01*
X0243547Y0261102D01*
X0243547Y0260709D01*
X0244138Y0260118D01*
X0244138Y0259331D01*
X0243547Y0258740D01*
X0243547Y0257559D01*
X0244138Y0256969D01*
X0244138Y0256181D01*
X0243547Y0255591D01*
X0243547Y0254409D01*
X0244138Y0253819D01*
X0244138Y0253031D01*
X0243547Y0252441D01*
X0243547Y0251260D01*
X0244138Y0250669D01*
X0244138Y0249882D01*
X0244236Y0250084D02*
X0244728Y0250084D01*
X0244728Y0250483D02*
X0244236Y0250483D01*
X0244024Y0250881D02*
X0244728Y0250881D01*
X0244728Y0252638D02*
X0244728Y0254213D01*
X0243843Y0254213D01*
X0244236Y0253819D01*
X0244236Y0253031D01*
X0243843Y0252638D01*
X0244728Y0252638D01*
X0244728Y0252874D02*
X0244079Y0252874D01*
X0244236Y0253273D02*
X0244728Y0253273D01*
X0244728Y0253671D02*
X0244236Y0253671D01*
X0243986Y0254070D02*
X0244728Y0254070D01*
X0244728Y0255787D02*
X0244728Y0257362D01*
X0243843Y0257362D01*
X0244236Y0256969D01*
X0244236Y0256181D01*
X0243843Y0255787D01*
X0244728Y0255787D01*
X0244728Y0256062D02*
X0244117Y0256062D01*
X0244236Y0256461D02*
X0244728Y0256461D01*
X0244728Y0256859D02*
X0244236Y0256859D01*
X0243947Y0257258D02*
X0244728Y0257258D01*
X0244728Y0258937D02*
X0244728Y0260512D01*
X0243843Y0260512D01*
X0244236Y0260118D01*
X0244236Y0259331D01*
X0243843Y0258937D01*
X0244728Y0258937D01*
X0244728Y0259250D02*
X0244156Y0259250D01*
X0244236Y0259649D02*
X0244728Y0259649D01*
X0244728Y0260047D02*
X0244236Y0260047D01*
X0243909Y0260446D02*
X0244728Y0260446D01*
X0248272Y0260446D02*
X0249091Y0260446D01*
X0249157Y0260512D02*
X0248764Y0260118D01*
X0248764Y0259331D01*
X0249157Y0258937D01*
X0248272Y0258937D01*
X0248272Y0260512D01*
X0249157Y0260512D01*
X0248764Y0260047D02*
X0248272Y0260047D01*
X0248272Y0259649D02*
X0248764Y0259649D01*
X0248844Y0259250D02*
X0248272Y0259250D01*
X0248272Y0261102D02*
X0248272Y0248898D01*
X0248272Y0249488D02*
X0249157Y0249488D01*
X0248764Y0249882D01*
X0248764Y0250669D01*
X0249157Y0251063D01*
X0248272Y0251063D01*
X0248272Y0249488D01*
X0248272Y0249686D02*
X0248960Y0249686D01*
X0248764Y0250084D02*
X0248272Y0250084D01*
X0248272Y0250483D02*
X0248764Y0250483D01*
X0248976Y0250881D02*
X0248272Y0250881D01*
X0248272Y0252638D02*
X0249157Y0252638D01*
X0248764Y0253031D01*
X0248764Y0253819D01*
X0249157Y0254213D01*
X0248272Y0254213D01*
X0248272Y0252638D01*
X0248272Y0252874D02*
X0248921Y0252874D01*
X0248764Y0253273D02*
X0248272Y0253273D01*
X0248272Y0253671D02*
X0248764Y0253671D01*
X0249014Y0254070D02*
X0248272Y0254070D01*
X0248272Y0255787D02*
X0249157Y0255787D01*
X0248764Y0256181D01*
X0248764Y0256969D01*
X0249157Y0257362D01*
X0248272Y0257362D01*
X0248272Y0255787D01*
X0248272Y0256062D02*
X0248883Y0256062D01*
X0248764Y0256461D02*
X0248272Y0256461D01*
X0248272Y0256859D02*
X0248764Y0256859D01*
X0249053Y0257258D02*
X0248272Y0257258D01*
X0338547Y0257559D02*
X0339138Y0256969D01*
X0339138Y0256181D01*
X0338547Y0255591D01*
X0338547Y0254409D01*
X0339138Y0253819D01*
X0339138Y0253031D01*
X0338547Y0252441D01*
X0338547Y0251260D01*
X0339138Y0250669D01*
X0339138Y0249882D01*
X0338547Y0249291D01*
X0338547Y0248898D01*
X0344453Y0248898D01*
X0344453Y0249291D01*
X0343862Y0249882D01*
X0343862Y0250669D01*
X0344453Y0251260D01*
X0344453Y0252441D01*
X0343862Y0253031D01*
X0343862Y0253819D01*
X0344453Y0254409D01*
X0344453Y0255591D01*
X0343862Y0256181D01*
X0343862Y0256969D01*
X0344453Y0257559D01*
X0344453Y0258740D01*
X0343862Y0259331D01*
X0343862Y0260118D01*
X0344453Y0260709D01*
X0344453Y0261102D01*
X0338547Y0261102D01*
X0338547Y0260709D01*
X0339138Y0260118D01*
X0339138Y0259331D01*
X0338547Y0258740D01*
X0338547Y0257559D01*
X0338843Y0257362D02*
X0339236Y0256969D01*
X0339236Y0256181D01*
X0338843Y0255787D01*
X0339728Y0255787D01*
X0339728Y0257362D01*
X0338843Y0257362D01*
X0338947Y0257258D02*
X0339728Y0257258D01*
X0339728Y0256859D02*
X0339236Y0256859D01*
X0339236Y0256461D02*
X0339728Y0256461D01*
X0339728Y0256062D02*
X0339117Y0256062D01*
X0338843Y0254213D02*
X0339236Y0253819D01*
X0339236Y0253031D01*
X0338843Y0252638D01*
X0339728Y0252638D01*
X0339728Y0254213D01*
X0338843Y0254213D01*
X0338986Y0254070D02*
X0339728Y0254070D01*
X0339728Y0253671D02*
X0339236Y0253671D01*
X0339236Y0253273D02*
X0339728Y0253273D01*
X0339728Y0252874D02*
X0339079Y0252874D01*
X0338843Y0251063D02*
X0339236Y0250669D01*
X0339236Y0249882D01*
X0338843Y0249488D01*
X0339728Y0249488D01*
X0339728Y0251063D01*
X0338843Y0251063D01*
X0339024Y0250881D02*
X0339728Y0250881D01*
X0339728Y0250483D02*
X0339236Y0250483D01*
X0339236Y0250084D02*
X0339728Y0250084D01*
X0339728Y0249686D02*
X0339040Y0249686D01*
X0339728Y0248898D02*
X0339728Y0261102D01*
X0339728Y0260512D02*
X0338843Y0260512D01*
X0339236Y0260118D01*
X0339236Y0259331D01*
X0338843Y0258937D01*
X0339728Y0258937D01*
X0339728Y0260512D01*
X0339728Y0260446D02*
X0338909Y0260446D01*
X0339236Y0260047D02*
X0339728Y0260047D01*
X0339728Y0259649D02*
X0339236Y0259649D01*
X0339156Y0259250D02*
X0339728Y0259250D01*
X0343272Y0259250D02*
X0343844Y0259250D01*
X0343764Y0259331D02*
X0343764Y0260118D01*
X0344157Y0260512D01*
X0343272Y0260512D01*
X0343272Y0258937D01*
X0344157Y0258937D01*
X0343764Y0259331D01*
X0343764Y0259649D02*
X0343272Y0259649D01*
X0343272Y0260047D02*
X0343764Y0260047D01*
X0344091Y0260446D02*
X0343272Y0260446D01*
X0343272Y0261102D02*
X0343272Y0248898D01*
X0343272Y0249488D02*
X0344157Y0249488D01*
X0343764Y0249882D01*
X0343764Y0250669D01*
X0344157Y0251063D01*
X0343272Y0251063D01*
X0343272Y0249488D01*
X0343272Y0249686D02*
X0343960Y0249686D01*
X0343764Y0250084D02*
X0343272Y0250084D01*
X0343272Y0250483D02*
X0343764Y0250483D01*
X0343976Y0250881D02*
X0343272Y0250881D01*
X0343272Y0252638D02*
X0344157Y0252638D01*
X0343764Y0253031D01*
X0343764Y0253819D01*
X0344157Y0254213D01*
X0343272Y0254213D01*
X0343272Y0252638D01*
X0343272Y0252874D02*
X0343921Y0252874D01*
X0343764Y0253273D02*
X0343272Y0253273D01*
X0343272Y0253671D02*
X0343764Y0253671D01*
X0344014Y0254070D02*
X0343272Y0254070D01*
X0343272Y0255787D02*
X0344157Y0255787D01*
X0343764Y0256181D01*
X0343764Y0256969D01*
X0344157Y0257362D01*
X0343272Y0257362D01*
X0343272Y0255787D01*
X0343272Y0256062D02*
X0343883Y0256062D01*
X0343764Y0256461D02*
X0343272Y0256461D01*
X0343272Y0256859D02*
X0343764Y0256859D01*
X0344053Y0257258D02*
X0343272Y0257258D01*
X0343272Y0278898D02*
X0343272Y0291102D01*
X0343272Y0290512D02*
X0343272Y0288937D01*
X0344157Y0288937D01*
X0343764Y0289331D01*
X0343764Y0290118D01*
X0344157Y0290512D01*
X0343272Y0290512D01*
X0343272Y0290334D02*
X0343980Y0290334D01*
X0343862Y0290118D02*
X0344453Y0290709D01*
X0344453Y0291102D01*
X0338547Y0291102D01*
X0338547Y0290709D01*
X0339138Y0290118D01*
X0339138Y0289331D01*
X0338547Y0288740D01*
X0338547Y0287559D01*
X0339138Y0286969D01*
X0339138Y0286181D01*
X0338547Y0285591D01*
X0338547Y0284409D01*
X0339138Y0283819D01*
X0339138Y0283031D01*
X0338547Y0282441D01*
X0338547Y0281260D01*
X0339138Y0280669D01*
X0339138Y0279882D01*
X0338547Y0279291D01*
X0338547Y0278898D01*
X0344453Y0278898D01*
X0344453Y0279291D01*
X0343862Y0279882D01*
X0343862Y0280669D01*
X0344453Y0281260D01*
X0344453Y0282441D01*
X0343862Y0283031D01*
X0343862Y0283819D01*
X0344453Y0284409D01*
X0344453Y0285591D01*
X0343862Y0286181D01*
X0343862Y0286969D01*
X0344453Y0287559D01*
X0344453Y0288740D01*
X0343862Y0289331D01*
X0343862Y0290118D01*
X0343764Y0289936D02*
X0343272Y0289936D01*
X0343272Y0289537D02*
X0343764Y0289537D01*
X0343956Y0289139D02*
X0343272Y0289139D01*
X0343272Y0287362D02*
X0343272Y0285787D01*
X0344157Y0285787D01*
X0343764Y0286181D01*
X0343764Y0286969D01*
X0344157Y0287362D01*
X0343272Y0287362D01*
X0343272Y0287146D02*
X0343941Y0287146D01*
X0343764Y0286748D02*
X0343272Y0286748D01*
X0343272Y0286349D02*
X0343764Y0286349D01*
X0343994Y0285950D02*
X0343272Y0285950D01*
X0343272Y0284213D02*
X0343272Y0282638D01*
X0344157Y0282638D01*
X0343764Y0283031D01*
X0343764Y0283819D01*
X0344157Y0284213D01*
X0343272Y0284213D01*
X0343272Y0283958D02*
X0343903Y0283958D01*
X0343764Y0283559D02*
X0343272Y0283559D01*
X0343272Y0283161D02*
X0343764Y0283161D01*
X0344033Y0282762D02*
X0343272Y0282762D01*
X0343272Y0281063D02*
X0343272Y0279488D01*
X0344157Y0279488D01*
X0343764Y0279882D01*
X0343764Y0280669D01*
X0344157Y0281063D01*
X0343272Y0281063D01*
X0343272Y0280770D02*
X0343864Y0280770D01*
X0343764Y0280371D02*
X0343272Y0280371D01*
X0343272Y0279973D02*
X0343764Y0279973D01*
X0344071Y0279574D02*
X0343272Y0279574D01*
X0339728Y0279574D02*
X0338929Y0279574D01*
X0338843Y0279488D02*
X0339236Y0279882D01*
X0339236Y0280669D01*
X0338843Y0281063D01*
X0339728Y0281063D01*
X0339728Y0279488D01*
X0338843Y0279488D01*
X0339236Y0279973D02*
X0339728Y0279973D01*
X0339728Y0280371D02*
X0339236Y0280371D01*
X0339136Y0280770D02*
X0339728Y0280770D01*
X0339728Y0282638D02*
X0339728Y0284213D01*
X0338843Y0284213D01*
X0339236Y0283819D01*
X0339236Y0283031D01*
X0338843Y0282638D01*
X0339728Y0282638D01*
X0339728Y0282762D02*
X0338967Y0282762D01*
X0339236Y0283161D02*
X0339728Y0283161D01*
X0339728Y0283559D02*
X0339236Y0283559D01*
X0339097Y0283958D02*
X0339728Y0283958D01*
X0339728Y0285787D02*
X0339728Y0287362D01*
X0338843Y0287362D01*
X0339236Y0286969D01*
X0339236Y0286181D01*
X0338843Y0285787D01*
X0339728Y0285787D01*
X0339728Y0285950D02*
X0339006Y0285950D01*
X0339236Y0286349D02*
X0339728Y0286349D01*
X0339728Y0286748D02*
X0339236Y0286748D01*
X0339059Y0287146D02*
X0339728Y0287146D01*
X0339728Y0288937D02*
X0339728Y0290512D01*
X0338843Y0290512D01*
X0339236Y0290118D01*
X0339236Y0289331D01*
X0338843Y0288937D01*
X0339728Y0288937D01*
X0339728Y0289139D02*
X0339044Y0289139D01*
X0339236Y0289537D02*
X0339728Y0289537D01*
X0339728Y0289936D02*
X0339236Y0289936D01*
X0339020Y0290334D02*
X0339728Y0290334D01*
X0339728Y0291102D02*
X0339728Y0278898D01*
X0339728Y0308898D02*
X0339728Y0321102D01*
X0339728Y0320512D02*
X0338843Y0320512D01*
X0339236Y0320118D01*
X0339236Y0319331D01*
X0338843Y0318937D01*
X0339728Y0318937D01*
X0339728Y0320512D01*
X0339728Y0320222D02*
X0339132Y0320222D01*
X0339138Y0320118D02*
X0339138Y0319331D01*
X0338547Y0318740D01*
X0338547Y0317559D01*
X0339138Y0316969D01*
X0339138Y0316181D01*
X0338547Y0315591D01*
X0338547Y0314409D01*
X0339138Y0313819D01*
X0339138Y0313031D01*
X0338547Y0312441D01*
X0338547Y0311260D01*
X0339138Y0310669D01*
X0339138Y0309882D01*
X0338547Y0309291D01*
X0338547Y0308898D01*
X0344453Y0308898D01*
X0344453Y0309291D01*
X0343862Y0309882D01*
X0343862Y0310669D01*
X0344453Y0311260D01*
X0344453Y0312441D01*
X0343862Y0313031D01*
X0343862Y0313819D01*
X0344453Y0314409D01*
X0344453Y0315591D01*
X0343862Y0316181D01*
X0343862Y0316969D01*
X0344453Y0317559D01*
X0344453Y0318740D01*
X0343862Y0319331D01*
X0343862Y0320118D01*
X0344453Y0320709D01*
X0344453Y0321102D01*
X0338547Y0321102D01*
X0338547Y0320709D01*
X0339138Y0320118D01*
X0339236Y0319824D02*
X0339728Y0319824D01*
X0339728Y0319425D02*
X0339236Y0319425D01*
X0338932Y0319027D02*
X0339728Y0319027D01*
X0339728Y0317362D02*
X0338843Y0317362D01*
X0339236Y0316969D01*
X0339236Y0316181D01*
X0338843Y0315787D01*
X0339728Y0315787D01*
X0339728Y0317362D01*
X0339728Y0317034D02*
X0339170Y0317034D01*
X0339236Y0316636D02*
X0339728Y0316636D01*
X0339728Y0316237D02*
X0339236Y0316237D01*
X0338894Y0315839D02*
X0339728Y0315839D01*
X0339728Y0314213D02*
X0338843Y0314213D01*
X0339236Y0313819D01*
X0339236Y0313031D01*
X0338843Y0312638D01*
X0339728Y0312638D01*
X0339728Y0314213D01*
X0339728Y0313846D02*
X0339209Y0313846D01*
X0339236Y0313448D02*
X0339728Y0313448D01*
X0339728Y0313049D02*
X0339236Y0313049D01*
X0338855Y0312651D02*
X0339728Y0312651D01*
X0339728Y0311063D02*
X0338843Y0311063D01*
X0339236Y0310669D01*
X0339236Y0309882D01*
X0338843Y0309488D01*
X0339728Y0309488D01*
X0339728Y0311063D01*
X0339728Y0311057D02*
X0338849Y0311057D01*
X0339236Y0310658D02*
X0339728Y0310658D01*
X0339728Y0310260D02*
X0339236Y0310260D01*
X0339215Y0309861D02*
X0339728Y0309861D01*
X0343272Y0309861D02*
X0343785Y0309861D01*
X0343764Y0309882D02*
X0343764Y0310669D01*
X0344157Y0311063D01*
X0343272Y0311063D01*
X0343272Y0309488D01*
X0344157Y0309488D01*
X0343764Y0309882D01*
X0343764Y0310260D02*
X0343272Y0310260D01*
X0343272Y0310658D02*
X0343764Y0310658D01*
X0344151Y0311057D02*
X0343272Y0311057D01*
X0343272Y0312638D02*
X0344157Y0312638D01*
X0343764Y0313031D01*
X0343764Y0313819D01*
X0344157Y0314213D01*
X0343272Y0314213D01*
X0343272Y0312638D01*
X0343272Y0312651D02*
X0344145Y0312651D01*
X0343764Y0313049D02*
X0343272Y0313049D01*
X0343272Y0313448D02*
X0343764Y0313448D01*
X0343791Y0313846D02*
X0343272Y0313846D01*
X0343272Y0315787D02*
X0344157Y0315787D01*
X0343764Y0316181D01*
X0343764Y0316969D01*
X0344157Y0317362D01*
X0343272Y0317362D01*
X0343272Y0315787D01*
X0343272Y0315839D02*
X0344106Y0315839D01*
X0343764Y0316237D02*
X0343272Y0316237D01*
X0343272Y0316636D02*
X0343764Y0316636D01*
X0343830Y0317034D02*
X0343272Y0317034D01*
X0343272Y0318937D02*
X0344157Y0318937D01*
X0343764Y0319331D01*
X0343764Y0320118D01*
X0344157Y0320512D01*
X0343272Y0320512D01*
X0343272Y0318937D01*
X0343272Y0319027D02*
X0344068Y0319027D01*
X0343764Y0319425D02*
X0343272Y0319425D01*
X0343272Y0319824D02*
X0343764Y0319824D01*
X0343868Y0320222D02*
X0343272Y0320222D01*
X0343272Y0321102D02*
X0343272Y0308898D01*
X0349200Y0375200D02*
X0353804Y0375200D01*
X0353804Y0377502D01*
X0353037Y0378269D01*
X0351502Y0378269D01*
X0350735Y0377502D01*
X0350735Y0375200D01*
X0350735Y0376735D02*
X0349200Y0378269D01*
X0349200Y0379804D02*
X0352269Y0382873D01*
X0353037Y0382873D01*
X0353804Y0382106D01*
X0353804Y0380571D01*
X0353037Y0379804D01*
X0349200Y0379804D02*
X0349200Y0382873D01*
X0338804Y0379804D02*
X0334200Y0379804D01*
X0335735Y0379804D02*
X0337269Y0382106D01*
X0335735Y0379804D02*
X0334200Y0382106D01*
X0334200Y0378269D02*
X0334200Y0375200D01*
X0334200Y0376735D02*
X0338804Y0376735D01*
X0337269Y0375200D01*
X0340310Y0104804D02*
X0339543Y0104037D01*
X0342612Y0100967D01*
X0341845Y0100200D01*
X0340310Y0100200D01*
X0339543Y0100967D01*
X0339543Y0104037D01*
X0340310Y0104804D02*
X0341845Y0104804D01*
X0342612Y0104037D01*
X0342612Y0100967D01*
X0344146Y0100967D02*
X0344914Y0100200D01*
X0346448Y0100200D01*
X0347216Y0100967D01*
X0344146Y0104037D01*
X0344146Y0100967D01*
X0344146Y0104037D02*
X0344914Y0104804D01*
X0346448Y0104804D01*
X0347216Y0104037D01*
X0347216Y0100967D01*
X0348750Y0100200D02*
X0351820Y0100200D01*
X0350285Y0100200D02*
X0350285Y0104804D01*
X0351820Y0103269D01*
X0343000Y0097598D02*
X0340098Y0097598D01*
X0338008Y0100200D02*
X0338008Y0103269D01*
X0335706Y0103269D01*
X0334939Y0102502D01*
X0334939Y0100200D01*
X0333404Y0100200D02*
X0333404Y0104804D01*
X0330335Y0104804D01*
X0331869Y0102502D02*
X0333404Y0102502D01*
X0340000Y0092402D02*
X0343000Y0092402D01*
X0343206Y0089804D02*
X0344741Y0089804D01*
X0345508Y0089037D01*
X0345508Y0085967D01*
X0344741Y0085200D01*
X0343206Y0085200D01*
X0342439Y0085967D01*
X0340904Y0085967D02*
X0340137Y0085200D01*
X0338602Y0085200D01*
X0337835Y0085967D01*
X0337835Y0086735D01*
X0338602Y0087502D01*
X0339369Y0087502D01*
X0338602Y0087502D02*
X0337835Y0088269D01*
X0337835Y0089037D01*
X0338602Y0089804D01*
X0340137Y0089804D01*
X0340904Y0089037D01*
X0342439Y0089037D02*
X0343206Y0089804D01*
X0355250Y0073554D02*
X0355250Y0069450D01*
X0357302Y0069450D01*
X0357986Y0070134D01*
X0357986Y0071502D01*
X0357302Y0072186D01*
X0355250Y0072186D01*
X0359387Y0072186D02*
X0360071Y0072186D01*
X0361439Y0070818D01*
X0361439Y0069450D02*
X0361439Y0072186D01*
X0362847Y0071502D02*
X0362847Y0069450D01*
X0364898Y0069450D01*
X0365582Y0070134D01*
X0364898Y0070818D01*
X0362847Y0070818D01*
X0362847Y0071502D02*
X0363531Y0072186D01*
X0364898Y0072186D01*
X0366990Y0071502D02*
X0366990Y0070134D01*
X0367674Y0069450D01*
X0369042Y0069450D01*
X0369726Y0070134D01*
X0369726Y0071502D01*
X0369042Y0072186D01*
X0367674Y0072186D01*
X0366990Y0071502D01*
X0371134Y0072186D02*
X0371818Y0071502D01*
X0373869Y0071502D01*
X0371818Y0071502D02*
X0371134Y0070818D01*
X0371134Y0070134D01*
X0371818Y0069450D01*
X0373869Y0069450D01*
X0373869Y0073554D01*
X0371818Y0073554D01*
X0371134Y0072870D01*
X0371134Y0072186D01*
X0369733Y0067487D02*
X0369733Y0066804D01*
X0369733Y0065436D02*
X0369733Y0062700D01*
X0370416Y0062700D02*
X0369049Y0062700D01*
X0367654Y0063384D02*
X0366970Y0062700D01*
X0365602Y0062700D01*
X0364918Y0063384D01*
X0364918Y0064752D01*
X0365602Y0065436D01*
X0366970Y0065436D01*
X0367654Y0064752D01*
X0367654Y0063384D01*
X0369733Y0065436D02*
X0370416Y0065436D01*
X0371824Y0065436D02*
X0373876Y0065436D01*
X0374560Y0064752D01*
X0373876Y0064068D01*
X0372508Y0064068D01*
X0371824Y0063384D01*
X0372508Y0062700D01*
X0374560Y0062700D01*
X0375961Y0065436D02*
X0376645Y0065436D01*
X0378013Y0064068D01*
X0378013Y0062700D02*
X0378013Y0065436D01*
X0379421Y0064752D02*
X0379421Y0064068D01*
X0382156Y0064068D01*
X0382156Y0064752D02*
X0381473Y0065436D01*
X0380105Y0065436D01*
X0379421Y0064752D01*
X0380105Y0062700D02*
X0381473Y0062700D01*
X0382156Y0063384D01*
X0382156Y0064752D01*
X0383564Y0064068D02*
X0383564Y0066804D01*
X0386300Y0066804D02*
X0386300Y0064068D01*
X0384932Y0062700D01*
X0383564Y0064068D01*
X0363511Y0062700D02*
X0363511Y0065436D01*
X0361459Y0065436D01*
X0360775Y0064752D01*
X0360775Y0062700D01*
X0355223Y0062700D02*
X0352488Y0062700D01*
X0353856Y0062700D02*
X0353856Y0066804D01*
X0355223Y0065436D01*
X0351080Y0063384D02*
X0350396Y0063384D01*
X0350396Y0062700D01*
X0351080Y0062700D01*
X0351080Y0063384D01*
X0349008Y0063384D02*
X0346272Y0066120D01*
X0346272Y0063384D01*
X0346956Y0062700D01*
X0348324Y0062700D01*
X0349008Y0063384D01*
X0349008Y0066120D01*
X0348324Y0066804D01*
X0346956Y0066804D01*
X0346272Y0066120D01*
X0256820Y0100200D02*
X0253750Y0100200D01*
X0255285Y0100200D02*
X0255285Y0104804D01*
X0256820Y0103269D01*
X0252216Y0104037D02*
X0252216Y0100967D01*
X0249146Y0104037D01*
X0249146Y0100967D01*
X0249914Y0100200D01*
X0251448Y0100200D01*
X0252216Y0100967D01*
X0252216Y0104037D02*
X0251448Y0104804D01*
X0249914Y0104804D01*
X0249146Y0104037D01*
X0247612Y0104037D02*
X0246845Y0104804D01*
X0245310Y0104804D01*
X0244543Y0104037D01*
X0247612Y0100967D01*
X0246845Y0100200D01*
X0245310Y0100200D01*
X0244543Y0100967D01*
X0244543Y0104037D01*
X0243008Y0103269D02*
X0243008Y0100200D01*
X0243008Y0103269D02*
X0240706Y0103269D01*
X0239939Y0102502D01*
X0239939Y0100200D01*
X0238404Y0100200D02*
X0238404Y0104804D01*
X0235335Y0104804D01*
X0236869Y0102502D02*
X0238404Y0102502D01*
X0245098Y0097598D02*
X0248000Y0097598D01*
X0247612Y0100967D02*
X0247612Y0104037D01*
X0248000Y0092402D02*
X0245000Y0092402D01*
X0243602Y0089804D02*
X0245904Y0087502D01*
X0242835Y0087502D01*
X0243602Y0085200D02*
X0243602Y0089804D01*
X0247439Y0089037D02*
X0248206Y0089804D01*
X0249741Y0089804D01*
X0250508Y0089037D01*
X0250508Y0085967D01*
X0249741Y0085200D01*
X0248206Y0085200D01*
X0247439Y0085967D01*
X0161820Y0100200D02*
X0158750Y0100200D01*
X0160285Y0100200D02*
X0160285Y0104804D01*
X0161820Y0103269D01*
X0157216Y0104037D02*
X0157216Y0100967D01*
X0154146Y0104037D01*
X0154146Y0100967D01*
X0154914Y0100200D01*
X0156448Y0100200D01*
X0157216Y0100967D01*
X0157216Y0104037D02*
X0156448Y0104804D01*
X0154914Y0104804D01*
X0154146Y0104037D01*
X0152612Y0104037D02*
X0152612Y0100967D01*
X0149543Y0104037D01*
X0149543Y0100967D01*
X0150310Y0100200D01*
X0151845Y0100200D01*
X0152612Y0100967D01*
X0152612Y0104037D02*
X0151845Y0104804D01*
X0150310Y0104804D01*
X0149543Y0104037D01*
X0148008Y0103269D02*
X0148008Y0100200D01*
X0148008Y0103269D02*
X0145706Y0103269D01*
X0144939Y0102502D01*
X0144939Y0100200D01*
X0143404Y0100200D02*
X0143404Y0104804D01*
X0140335Y0104804D01*
X0141869Y0102502D02*
X0143404Y0102502D01*
X0150098Y0097598D02*
X0153000Y0097598D01*
X0153000Y0092402D02*
X0150000Y0092402D01*
X0149369Y0089804D02*
X0149369Y0085200D01*
X0147835Y0085200D02*
X0150904Y0085200D01*
X0152439Y0085967D02*
X0153206Y0085200D01*
X0154741Y0085200D01*
X0155508Y0085967D01*
X0155508Y0089037D01*
X0154741Y0089804D01*
X0153206Y0089804D01*
X0152439Y0089037D01*
X0150904Y0088269D02*
X0149369Y0089804D01*
X0108800Y0076537D02*
X0108033Y0077304D01*
X0106498Y0077304D01*
X0105731Y0076537D01*
X0105731Y0075769D01*
X0108800Y0072700D01*
X0105731Y0072700D01*
X0104196Y0072700D02*
X0101127Y0075769D01*
X0101127Y0076537D01*
X0101894Y0077304D01*
X0103429Y0077304D01*
X0104196Y0076537D01*
X0104196Y0072700D02*
X0101127Y0072700D01*
X0099592Y0075002D02*
X0096523Y0075002D01*
X0094988Y0075002D02*
X0091919Y0075002D01*
X0090384Y0073467D02*
X0087315Y0076537D01*
X0087315Y0077304D01*
X0090384Y0077304D01*
X0092686Y0077304D02*
X0092686Y0072700D01*
X0090384Y0072700D02*
X0090384Y0073467D01*
X0092686Y0077304D02*
X0094988Y0075002D01*
X0085780Y0075769D02*
X0085780Y0073467D01*
X0085013Y0072700D01*
X0082711Y0072700D01*
X0082711Y0075769D01*
X0081176Y0075002D02*
X0079642Y0075002D01*
X0081176Y0072700D02*
X0081176Y0077304D01*
X0078107Y0077304D01*
X0072799Y0080315D02*
X0060201Y0080315D01*
X0060201Y0069685D01*
X0072799Y0069685D01*
X0072799Y0080315D01*
X0060508Y0085967D02*
X0059741Y0085200D01*
X0058206Y0085200D01*
X0057439Y0085967D01*
X0055904Y0085200D02*
X0052835Y0088269D01*
X0052835Y0089037D01*
X0053602Y0089804D01*
X0055137Y0089804D01*
X0055904Y0089037D01*
X0057439Y0089037D02*
X0058206Y0089804D01*
X0059741Y0089804D01*
X0060508Y0089037D01*
X0060508Y0085967D01*
X0055904Y0085200D02*
X0052835Y0085200D01*
X0055000Y0092402D02*
X0058000Y0092402D01*
X0058000Y0097598D02*
X0055098Y0097598D01*
X0055310Y0100200D02*
X0054543Y0100967D01*
X0054543Y0104037D01*
X0057612Y0100967D01*
X0056845Y0100200D01*
X0055310Y0100200D01*
X0053008Y0100200D02*
X0053008Y0103269D01*
X0050706Y0103269D01*
X0049939Y0102502D01*
X0049939Y0100200D01*
X0048404Y0100200D02*
X0048404Y0104804D01*
X0045335Y0104804D01*
X0046869Y0102502D02*
X0048404Y0102502D01*
X0054543Y0104037D02*
X0055310Y0104804D01*
X0056845Y0104804D01*
X0057612Y0104037D01*
X0057612Y0100967D01*
X0059146Y0100967D02*
X0059146Y0104037D01*
X0062216Y0100967D01*
X0061448Y0100200D01*
X0059914Y0100200D01*
X0059146Y0100967D01*
X0059146Y0104037D02*
X0059914Y0104804D01*
X0061448Y0104804D01*
X0062216Y0104037D01*
X0062216Y0100967D01*
X0063750Y0100200D02*
X0066820Y0100200D01*
X0065285Y0100200D02*
X0065285Y0104804D01*
X0066820Y0103269D01*
X0070582Y0099804D02*
X0072117Y0099804D01*
X0072884Y0099037D01*
X0074419Y0097502D02*
X0077488Y0097502D01*
X0075954Y0099037D02*
X0075954Y0095967D01*
X0079023Y0095200D02*
X0082092Y0095200D01*
X0080558Y0095200D02*
X0080558Y0099804D01*
X0082092Y0098269D01*
X0083627Y0099804D02*
X0083627Y0095200D01*
X0085161Y0096735D01*
X0086696Y0095200D01*
X0086696Y0099804D01*
X0088231Y0099037D02*
X0088998Y0099804D01*
X0090533Y0099804D01*
X0091300Y0099037D01*
X0091300Y0098269D01*
X0090533Y0097502D01*
X0088998Y0097502D01*
X0088231Y0096735D01*
X0088231Y0095967D01*
X0088998Y0095200D01*
X0090533Y0095200D01*
X0091300Y0095967D01*
X0072884Y0095200D02*
X0069815Y0098269D01*
X0069815Y0099037D01*
X0070582Y0099804D01*
X0069815Y0095200D02*
X0072884Y0095200D01*
X0069741Y0067304D02*
X0070508Y0066537D01*
X0070508Y0063467D01*
X0069741Y0062700D01*
X0068206Y0062700D01*
X0067439Y0063467D01*
X0065904Y0063467D02*
X0065137Y0062700D01*
X0063602Y0062700D01*
X0062835Y0063467D01*
X0062835Y0065002D01*
X0063602Y0065769D01*
X0064369Y0065769D01*
X0065904Y0065002D01*
X0065904Y0067304D01*
X0062835Y0067304D01*
X0067439Y0066537D02*
X0068206Y0067304D01*
X0069741Y0067304D01*
D12*
X0105250Y0163750D03*
X0105250Y0166250D03*
X0295250Y0166250D03*
X0295250Y0163750D03*
D13*
X0294000Y0165000D03*
X0104000Y0165000D03*
D14*
X0089000Y0165000D03*
X0279000Y0165000D03*
D15*
X0294000Y0165000D03*
X0104000Y0165000D03*
D16*
X0176841Y0173751D02*
X0177842Y0172750D01*
X0179843Y0172750D01*
X0180844Y0173751D01*
X0176841Y0177754D01*
X0176841Y0173751D01*
X0176841Y0177754D02*
X0177842Y0178755D01*
X0179843Y0178755D01*
X0180844Y0177754D01*
X0180844Y0173751D01*
X0182826Y0172750D02*
X0186829Y0172750D01*
X0182826Y0176753D01*
X0182826Y0177754D01*
X0183827Y0178755D01*
X0185829Y0178755D01*
X0186829Y0177754D01*
X0188811Y0177754D02*
X0188811Y0173751D01*
X0189812Y0172750D01*
X0191814Y0172750D01*
X0192815Y0173751D01*
X0188811Y0177754D01*
X0189812Y0178755D01*
X0191814Y0178755D01*
X0192815Y0177754D01*
X0192815Y0173751D01*
X0194796Y0172750D02*
X0198800Y0172750D01*
X0194796Y0176753D01*
X0194796Y0177754D01*
X0195797Y0178755D01*
X0197799Y0178755D01*
X0198800Y0177754D01*
X0206773Y0176753D02*
X0208775Y0178755D01*
X0210757Y0177754D02*
X0211757Y0178755D01*
X0213759Y0178755D01*
X0214760Y0177754D01*
X0214760Y0173751D01*
X0213759Y0172750D01*
X0211757Y0172750D01*
X0210757Y0173751D01*
X0208775Y0172750D02*
X0206773Y0174752D01*
X0206773Y0176753D01*
X0216748Y0178755D02*
X0218750Y0176753D01*
X0218750Y0174752D01*
X0216748Y0172750D01*
X0346500Y0045000D02*
X0346500Y0007500D01*
X0344000Y0005000D01*
X0089000Y0005000D01*
X0086500Y0007500D01*
X0086500Y0045000D01*
X0056250Y0075502D02*
X0052580Y0075502D01*
X0054415Y0077337D02*
X0054415Y0073667D01*
X0078762Y0086251D02*
X0081500Y0086499D01*
X0081500Y0086499D01*
X0084238Y0086251D01*
X0084239Y0086250D01*
X0084227Y0086147D01*
X0084212Y0086043D01*
X0084193Y0085941D01*
X0084169Y0085839D01*
X0084142Y0085738D01*
X0084112Y0085639D01*
X0084077Y0085540D01*
X0084039Y0085443D01*
X0083997Y0085348D01*
X0083951Y0085254D01*
X0083902Y0085162D01*
X0083850Y0085071D01*
X0083794Y0084983D01*
X0083735Y0084897D01*
X0083672Y0084814D01*
X0083607Y0084733D01*
X0083538Y0084654D01*
X0083467Y0084578D01*
X0083392Y0084505D01*
X0083315Y0084434D01*
X0083236Y0084367D01*
X0083153Y0084303D01*
X0083069Y0084241D01*
X0082982Y0084184D01*
X0082893Y0084129D01*
X0082802Y0084078D01*
X0082709Y0084030D01*
X0082615Y0083986D01*
X0082519Y0083946D01*
X0082421Y0083909D01*
X0082322Y0083876D01*
X0082222Y0083846D01*
X0082121Y0083821D01*
X0082019Y0083799D01*
X0081916Y0083782D01*
X0081812Y0083768D01*
X0081709Y0083758D01*
X0081604Y0083752D01*
X0081500Y0083750D01*
X0081396Y0083752D01*
X0081291Y0083758D01*
X0081188Y0083768D01*
X0081084Y0083782D01*
X0080981Y0083799D01*
X0080879Y0083821D01*
X0080778Y0083846D01*
X0080678Y0083876D01*
X0080579Y0083909D01*
X0080481Y0083946D01*
X0080385Y0083986D01*
X0080291Y0084030D01*
X0080198Y0084078D01*
X0080107Y0084129D01*
X0080018Y0084184D01*
X0079931Y0084241D01*
X0079847Y0084303D01*
X0079764Y0084367D01*
X0079685Y0084434D01*
X0079608Y0084505D01*
X0079533Y0084578D01*
X0079462Y0084654D01*
X0079393Y0084733D01*
X0079328Y0084814D01*
X0079265Y0084897D01*
X0079206Y0084983D01*
X0079150Y0085071D01*
X0079098Y0085162D01*
X0079049Y0085254D01*
X0079003Y0085348D01*
X0078961Y0085443D01*
X0078923Y0085540D01*
X0078888Y0085639D01*
X0078858Y0085738D01*
X0078831Y0085839D01*
X0078807Y0085941D01*
X0078788Y0086043D01*
X0078773Y0086147D01*
X0078761Y0086250D01*
X0079238Y0086251D01*
X0079250Y0086156D01*
X0079266Y0086063D01*
X0079287Y0085970D01*
X0079311Y0085878D01*
X0079339Y0085787D01*
X0079370Y0085698D01*
X0079405Y0085609D01*
X0079444Y0085523D01*
X0079487Y0085438D01*
X0079533Y0085355D01*
X0079583Y0085274D01*
X0079635Y0085195D01*
X0079692Y0085118D01*
X0079751Y0085044D01*
X0079813Y0084972D01*
X0079878Y0084903D01*
X0079946Y0084837D01*
X0080017Y0084773D01*
X0080090Y0084713D01*
X0080166Y0084656D01*
X0080244Y0084602D01*
X0080325Y0084551D01*
X0080407Y0084504D01*
X0080491Y0084460D01*
X0080577Y0084419D01*
X0080665Y0084383D01*
X0080754Y0084350D01*
X0080844Y0084320D01*
X0080936Y0084295D01*
X0081028Y0084273D01*
X0081122Y0084256D01*
X0081216Y0084242D01*
X0081310Y0084232D01*
X0081405Y0084226D01*
X0081500Y0084224D01*
X0081595Y0084226D01*
X0081690Y0084232D01*
X0081784Y0084242D01*
X0081878Y0084256D01*
X0081972Y0084273D01*
X0082064Y0084295D01*
X0082156Y0084320D01*
X0082246Y0084350D01*
X0082335Y0084383D01*
X0082423Y0084419D01*
X0082509Y0084460D01*
X0082593Y0084504D01*
X0082675Y0084551D01*
X0082756Y0084602D01*
X0082834Y0084656D01*
X0082910Y0084713D01*
X0082983Y0084773D01*
X0083054Y0084837D01*
X0083122Y0084903D01*
X0083187Y0084972D01*
X0083249Y0085044D01*
X0083308Y0085118D01*
X0083365Y0085195D01*
X0083417Y0085274D01*
X0083467Y0085355D01*
X0083513Y0085438D01*
X0083556Y0085523D01*
X0083595Y0085609D01*
X0083630Y0085698D01*
X0083661Y0085787D01*
X0083689Y0085878D01*
X0083713Y0085970D01*
X0083734Y0086063D01*
X0083750Y0086156D01*
X0083762Y0086251D01*
X0083285Y0086251D01*
X0083271Y0086169D01*
X0083254Y0086087D01*
X0083233Y0086007D01*
X0083209Y0085927D01*
X0083180Y0085849D01*
X0083148Y0085772D01*
X0083113Y0085697D01*
X0083074Y0085623D01*
X0083032Y0085551D01*
X0082987Y0085481D01*
X0082938Y0085414D01*
X0082886Y0085349D01*
X0082832Y0085286D01*
X0082774Y0085226D01*
X0082714Y0085168D01*
X0082651Y0085114D01*
X0082586Y0085062D01*
X0082518Y0085013D01*
X0082449Y0084968D01*
X0082377Y0084926D01*
X0082303Y0084887D01*
X0082228Y0084852D01*
X0082151Y0084820D01*
X0082073Y0084791D01*
X0081993Y0084767D01*
X0081913Y0084746D01*
X0081831Y0084729D01*
X0081749Y0084715D01*
X0081666Y0084706D01*
X0081583Y0084700D01*
X0081500Y0084698D01*
X0081417Y0084700D01*
X0081334Y0084706D01*
X0081251Y0084715D01*
X0081169Y0084729D01*
X0081087Y0084746D01*
X0081007Y0084767D01*
X0080927Y0084791D01*
X0080849Y0084820D01*
X0080772Y0084852D01*
X0080697Y0084887D01*
X0080623Y0084926D01*
X0080551Y0084968D01*
X0080482Y0085013D01*
X0080414Y0085062D01*
X0080349Y0085114D01*
X0080286Y0085168D01*
X0080226Y0085226D01*
X0080168Y0085286D01*
X0080114Y0085349D01*
X0080062Y0085414D01*
X0080013Y0085481D01*
X0079968Y0085551D01*
X0079926Y0085623D01*
X0079887Y0085697D01*
X0079852Y0085772D01*
X0079820Y0085849D01*
X0079791Y0085927D01*
X0079767Y0086007D01*
X0079746Y0086087D01*
X0079729Y0086169D01*
X0079715Y0086251D01*
X0080195Y0086251D01*
X0080211Y0086181D01*
X0080230Y0086112D01*
X0080253Y0086044D01*
X0080279Y0085977D01*
X0080310Y0085911D01*
X0080343Y0085848D01*
X0080380Y0085786D01*
X0080421Y0085726D01*
X0080464Y0085669D01*
X0080511Y0085614D01*
X0080560Y0085562D01*
X0080612Y0085512D01*
X0080667Y0085465D01*
X0080725Y0085422D01*
X0080784Y0085381D01*
X0080846Y0085344D01*
X0080909Y0085311D01*
X0080975Y0085280D01*
X0081042Y0085254D01*
X0081110Y0085231D01*
X0081179Y0085211D01*
X0081250Y0085196D01*
X0081321Y0085184D01*
X0081392Y0085176D01*
X0081464Y0085172D01*
X0081536Y0085172D01*
X0081608Y0085176D01*
X0081679Y0085184D01*
X0081750Y0085196D01*
X0081821Y0085211D01*
X0081890Y0085231D01*
X0081958Y0085254D01*
X0082025Y0085280D01*
X0082091Y0085311D01*
X0082154Y0085344D01*
X0082216Y0085381D01*
X0082275Y0085422D01*
X0082333Y0085465D01*
X0082388Y0085512D01*
X0082440Y0085562D01*
X0082489Y0085614D01*
X0082536Y0085669D01*
X0082579Y0085726D01*
X0082620Y0085786D01*
X0082657Y0085848D01*
X0082690Y0085911D01*
X0082721Y0085977D01*
X0082747Y0086044D01*
X0082770Y0086112D01*
X0082789Y0086181D01*
X0082805Y0086251D01*
X0082318Y0086254D01*
X0082299Y0086199D01*
X0082277Y0086146D01*
X0082252Y0086095D01*
X0082223Y0086045D01*
X0082191Y0085998D01*
X0082155Y0085952D01*
X0082117Y0085909D01*
X0082076Y0085869D01*
X0082032Y0085832D01*
X0081986Y0085798D01*
X0081938Y0085767D01*
X0081887Y0085739D01*
X0081835Y0085715D01*
X0081782Y0085694D01*
X0081727Y0085677D01*
X0081671Y0085663D01*
X0081615Y0085654D01*
X0081557Y0085648D01*
X0081500Y0085646D01*
X0081443Y0085648D01*
X0081385Y0085654D01*
X0081329Y0085663D01*
X0081273Y0085677D01*
X0081218Y0085694D01*
X0081165Y0085715D01*
X0081113Y0085739D01*
X0081062Y0085767D01*
X0081014Y0085798D01*
X0080968Y0085832D01*
X0080924Y0085869D01*
X0080883Y0085909D01*
X0080845Y0085952D01*
X0080809Y0085998D01*
X0080777Y0086045D01*
X0080748Y0086095D01*
X0080723Y0086146D01*
X0080701Y0086199D01*
X0080682Y0086254D01*
X0081199Y0086268D01*
X0081223Y0086240D01*
X0081249Y0086214D01*
X0081278Y0086192D01*
X0081308Y0086172D01*
X0081341Y0086155D01*
X0081375Y0086141D01*
X0081410Y0086131D01*
X0081445Y0086124D01*
X0081482Y0086120D01*
X0081518Y0086120D01*
X0081555Y0086124D01*
X0081590Y0086131D01*
X0081625Y0086141D01*
X0081659Y0086155D01*
X0081692Y0086172D01*
X0081722Y0086192D01*
X0081751Y0086214D01*
X0081777Y0086240D01*
X0081801Y0086268D01*
X0084238Y0088749D02*
X0081500Y0088501D01*
X0081500Y0088501D01*
X0078762Y0088749D01*
X0078761Y0088750D01*
X0078773Y0088853D01*
X0078788Y0088957D01*
X0078807Y0089059D01*
X0078831Y0089161D01*
X0078858Y0089262D01*
X0078888Y0089361D01*
X0078923Y0089460D01*
X0078961Y0089557D01*
X0079003Y0089652D01*
X0079049Y0089746D01*
X0079098Y0089838D01*
X0079150Y0089929D01*
X0079206Y0090017D01*
X0079265Y0090103D01*
X0079328Y0090186D01*
X0079393Y0090267D01*
X0079462Y0090346D01*
X0079533Y0090422D01*
X0079608Y0090495D01*
X0079685Y0090566D01*
X0079764Y0090633D01*
X0079847Y0090697D01*
X0079931Y0090759D01*
X0080018Y0090816D01*
X0080107Y0090871D01*
X0080198Y0090922D01*
X0080291Y0090970D01*
X0080385Y0091014D01*
X0080481Y0091054D01*
X0080579Y0091091D01*
X0080678Y0091124D01*
X0080778Y0091154D01*
X0080879Y0091179D01*
X0080981Y0091201D01*
X0081084Y0091218D01*
X0081188Y0091232D01*
X0081291Y0091242D01*
X0081396Y0091248D01*
X0081500Y0091250D01*
X0081604Y0091248D01*
X0081709Y0091242D01*
X0081812Y0091232D01*
X0081916Y0091218D01*
X0082019Y0091201D01*
X0082121Y0091179D01*
X0082222Y0091154D01*
X0082322Y0091124D01*
X0082421Y0091091D01*
X0082519Y0091054D01*
X0082615Y0091014D01*
X0082709Y0090970D01*
X0082802Y0090922D01*
X0082893Y0090871D01*
X0082982Y0090816D01*
X0083069Y0090759D01*
X0083153Y0090697D01*
X0083236Y0090633D01*
X0083315Y0090566D01*
X0083392Y0090495D01*
X0083467Y0090422D01*
X0083538Y0090346D01*
X0083607Y0090267D01*
X0083672Y0090186D01*
X0083735Y0090103D01*
X0083794Y0090017D01*
X0083850Y0089929D01*
X0083902Y0089838D01*
X0083951Y0089746D01*
X0083997Y0089652D01*
X0084039Y0089557D01*
X0084077Y0089460D01*
X0084112Y0089361D01*
X0084142Y0089262D01*
X0084169Y0089161D01*
X0084193Y0089059D01*
X0084212Y0088957D01*
X0084227Y0088853D01*
X0084239Y0088750D01*
X0083762Y0088749D01*
X0083750Y0088844D01*
X0083734Y0088937D01*
X0083713Y0089030D01*
X0083689Y0089122D01*
X0083661Y0089213D01*
X0083630Y0089302D01*
X0083595Y0089391D01*
X0083556Y0089477D01*
X0083513Y0089562D01*
X0083467Y0089645D01*
X0083417Y0089726D01*
X0083365Y0089805D01*
X0083308Y0089882D01*
X0083249Y0089956D01*
X0083187Y0090028D01*
X0083122Y0090097D01*
X0083054Y0090163D01*
X0082983Y0090227D01*
X0082910Y0090287D01*
X0082834Y0090344D01*
X0082756Y0090398D01*
X0082675Y0090449D01*
X0082593Y0090496D01*
X0082509Y0090540D01*
X0082423Y0090581D01*
X0082335Y0090617D01*
X0082246Y0090650D01*
X0082156Y0090680D01*
X0082064Y0090705D01*
X0081972Y0090727D01*
X0081878Y0090744D01*
X0081784Y0090758D01*
X0081690Y0090768D01*
X0081595Y0090774D01*
X0081500Y0090776D01*
X0081405Y0090774D01*
X0081310Y0090768D01*
X0081216Y0090758D01*
X0081122Y0090744D01*
X0081028Y0090727D01*
X0080936Y0090705D01*
X0080844Y0090680D01*
X0080754Y0090650D01*
X0080665Y0090617D01*
X0080577Y0090581D01*
X0080491Y0090540D01*
X0080407Y0090496D01*
X0080325Y0090449D01*
X0080244Y0090398D01*
X0080166Y0090344D01*
X0080090Y0090287D01*
X0080017Y0090227D01*
X0079946Y0090163D01*
X0079878Y0090097D01*
X0079813Y0090028D01*
X0079751Y0089956D01*
X0079692Y0089882D01*
X0079635Y0089805D01*
X0079583Y0089726D01*
X0079533Y0089645D01*
X0079487Y0089562D01*
X0079444Y0089477D01*
X0079405Y0089391D01*
X0079370Y0089302D01*
X0079339Y0089213D01*
X0079311Y0089122D01*
X0079287Y0089030D01*
X0079266Y0088937D01*
X0079250Y0088844D01*
X0079238Y0088749D01*
X0079715Y0088749D01*
X0079729Y0088831D01*
X0079746Y0088913D01*
X0079767Y0088993D01*
X0079791Y0089073D01*
X0079820Y0089151D01*
X0079852Y0089228D01*
X0079887Y0089303D01*
X0079926Y0089377D01*
X0079968Y0089449D01*
X0080013Y0089519D01*
X0080062Y0089586D01*
X0080114Y0089651D01*
X0080168Y0089714D01*
X0080226Y0089774D01*
X0080286Y0089832D01*
X0080349Y0089886D01*
X0080414Y0089938D01*
X0080482Y0089987D01*
X0080551Y0090032D01*
X0080623Y0090074D01*
X0080697Y0090113D01*
X0080772Y0090148D01*
X0080849Y0090180D01*
X0080927Y0090209D01*
X0081007Y0090233D01*
X0081087Y0090254D01*
X0081169Y0090271D01*
X0081251Y0090285D01*
X0081334Y0090294D01*
X0081417Y0090300D01*
X0081500Y0090302D01*
X0081583Y0090300D01*
X0081666Y0090294D01*
X0081749Y0090285D01*
X0081831Y0090271D01*
X0081913Y0090254D01*
X0081993Y0090233D01*
X0082073Y0090209D01*
X0082151Y0090180D01*
X0082228Y0090148D01*
X0082303Y0090113D01*
X0082377Y0090074D01*
X0082449Y0090032D01*
X0082518Y0089987D01*
X0082586Y0089938D01*
X0082651Y0089886D01*
X0082714Y0089832D01*
X0082774Y0089774D01*
X0082832Y0089714D01*
X0082886Y0089651D01*
X0082938Y0089586D01*
X0082987Y0089519D01*
X0083032Y0089449D01*
X0083074Y0089377D01*
X0083113Y0089303D01*
X0083148Y0089228D01*
X0083180Y0089151D01*
X0083209Y0089073D01*
X0083233Y0088993D01*
X0083254Y0088913D01*
X0083271Y0088831D01*
X0083285Y0088749D01*
X0082805Y0088749D01*
X0082789Y0088819D01*
X0082770Y0088888D01*
X0082747Y0088956D01*
X0082721Y0089023D01*
X0082690Y0089089D01*
X0082657Y0089152D01*
X0082620Y0089214D01*
X0082579Y0089274D01*
X0082536Y0089331D01*
X0082489Y0089386D01*
X0082440Y0089438D01*
X0082388Y0089488D01*
X0082333Y0089535D01*
X0082275Y0089578D01*
X0082216Y0089619D01*
X0082154Y0089656D01*
X0082091Y0089689D01*
X0082025Y0089720D01*
X0081958Y0089746D01*
X0081890Y0089769D01*
X0081821Y0089789D01*
X0081750Y0089804D01*
X0081679Y0089816D01*
X0081608Y0089824D01*
X0081536Y0089828D01*
X0081464Y0089828D01*
X0081392Y0089824D01*
X0081321Y0089816D01*
X0081250Y0089804D01*
X0081179Y0089789D01*
X0081110Y0089769D01*
X0081042Y0089746D01*
X0080975Y0089720D01*
X0080909Y0089689D01*
X0080846Y0089656D01*
X0080784Y0089619D01*
X0080725Y0089578D01*
X0080667Y0089535D01*
X0080612Y0089488D01*
X0080560Y0089438D01*
X0080511Y0089386D01*
X0080464Y0089331D01*
X0080421Y0089274D01*
X0080380Y0089214D01*
X0080343Y0089152D01*
X0080310Y0089089D01*
X0080279Y0089023D01*
X0080253Y0088956D01*
X0080230Y0088888D01*
X0080211Y0088819D01*
X0080195Y0088749D01*
X0080682Y0088746D01*
X0080701Y0088801D01*
X0080723Y0088854D01*
X0080748Y0088905D01*
X0080777Y0088955D01*
X0080809Y0089002D01*
X0080845Y0089048D01*
X0080883Y0089091D01*
X0080924Y0089131D01*
X0080968Y0089168D01*
X0081014Y0089202D01*
X0081062Y0089233D01*
X0081113Y0089261D01*
X0081165Y0089285D01*
X0081218Y0089306D01*
X0081273Y0089323D01*
X0081329Y0089337D01*
X0081385Y0089346D01*
X0081443Y0089352D01*
X0081500Y0089354D01*
X0081557Y0089352D01*
X0081615Y0089346D01*
X0081671Y0089337D01*
X0081727Y0089323D01*
X0081782Y0089306D01*
X0081835Y0089285D01*
X0081887Y0089261D01*
X0081938Y0089233D01*
X0081986Y0089202D01*
X0082032Y0089168D01*
X0082076Y0089131D01*
X0082117Y0089091D01*
X0082155Y0089048D01*
X0082191Y0089002D01*
X0082223Y0088955D01*
X0082252Y0088905D01*
X0082277Y0088854D01*
X0082299Y0088801D01*
X0082318Y0088746D01*
X0081801Y0088732D01*
X0081777Y0088760D01*
X0081751Y0088786D01*
X0081722Y0088808D01*
X0081692Y0088828D01*
X0081659Y0088845D01*
X0081625Y0088859D01*
X0081590Y0088869D01*
X0081555Y0088876D01*
X0081518Y0088880D01*
X0081482Y0088880D01*
X0081445Y0088876D01*
X0081410Y0088869D01*
X0081375Y0088859D01*
X0081341Y0088845D01*
X0081308Y0088828D01*
X0081278Y0088808D01*
X0081249Y0088786D01*
X0081223Y0088760D01*
X0081199Y0088732D01*
D17*
X0182338Y0151935D02*
X0183872Y0150400D01*
X0186942Y0150400D01*
X0188476Y0151935D01*
X0188476Y0158073D01*
X0186942Y0159608D01*
X0183872Y0159608D01*
X0182338Y0158073D01*
X0191546Y0158073D02*
X0193080Y0159608D01*
X0196150Y0159608D01*
X0197684Y0158073D01*
X0197684Y0156539D01*
X0196150Y0155004D01*
X0193080Y0155004D01*
X0191546Y0153469D01*
X0191546Y0151935D01*
X0193080Y0150400D01*
X0196150Y0150400D01*
X0197684Y0151935D01*
X0200754Y0151935D02*
X0202288Y0150400D01*
X0206892Y0150400D01*
X0206892Y0159608D01*
X0202288Y0159608D01*
X0200754Y0158073D01*
X0200754Y0156539D01*
X0202288Y0155004D01*
X0206892Y0155004D01*
X0209961Y0155004D02*
X0211496Y0153469D01*
X0216100Y0153469D01*
X0216100Y0150400D02*
X0216100Y0159608D01*
X0211496Y0159608D01*
X0209961Y0158073D01*
X0209961Y0155004D01*
X0213031Y0153469D02*
X0209961Y0150400D01*
X0202288Y0155004D02*
X0200754Y0153469D01*
X0200754Y0151935D01*
D18*
X0255269Y0082487D02*
X0255269Y0079117D01*
X0255269Y0072378D02*
X0255269Y0058900D01*
X0251900Y0058900D02*
X0258639Y0058900D01*
X0245134Y0058900D02*
X0235025Y0058900D01*
X0231656Y0062270D01*
X0231656Y0065639D01*
X0235025Y0069009D01*
X0245134Y0069009D01*
X0245134Y0079117D02*
X0235025Y0079117D01*
X0231656Y0075748D01*
X0231656Y0072378D01*
X0235025Y0069009D01*
X0224877Y0075748D02*
X0224877Y0062270D01*
X0221507Y0058900D01*
X0214768Y0058900D01*
X0211399Y0062270D01*
X0211399Y0075748D01*
X0214768Y0079117D01*
X0221507Y0079117D01*
X0224877Y0075748D01*
X0245134Y0079117D02*
X0245134Y0058900D01*
X0255269Y0072378D02*
X0258639Y0072378D01*
X0204620Y0079117D02*
X0204620Y0058900D01*
X0191141Y0058900D01*
X0184362Y0058900D02*
X0177623Y0058900D01*
X0180993Y0058900D02*
X0180993Y0079117D01*
X0184362Y0079117D02*
X0177623Y0079117D01*
X0170857Y0079117D02*
X0157379Y0079117D01*
X0164118Y0079117D02*
X0164118Y0058900D01*
D19*
X0029000Y0345000D02*
X0009000Y0367500D01*
X0029000Y0390000D01*
X0029000Y0345000D01*
D20*
X0053677Y0094995D03*
X0059377Y0094995D03*
X0148677Y0094995D03*
X0154377Y0094995D03*
X0243677Y0094995D03*
X0249377Y0094995D03*
X0338677Y0094995D03*
X0344377Y0094995D03*
D21*
X0072996Y0075000D03*
X0060004Y0075000D03*
D22*
X0061480Y0075000D03*
D23*
X0057853Y0263601D02*
X0054150Y0263601D01*
X0055384Y0263601D02*
X0055384Y0265452D01*
X0056002Y0266069D01*
X0057236Y0266069D01*
X0057853Y0265452D01*
X0057853Y0263601D01*
X0055384Y0264835D02*
X0054150Y0266069D01*
X0054150Y0267284D02*
X0057853Y0267284D01*
X0054150Y0269752D01*
X0057853Y0269752D01*
X0056619Y0270967D02*
X0057853Y0272201D01*
X0054150Y0272201D01*
X0054150Y0270967D02*
X0054150Y0273436D01*
X0054150Y0293601D02*
X0057853Y0293601D01*
X0057853Y0295452D01*
X0057236Y0296069D01*
X0056002Y0296069D01*
X0055384Y0295452D01*
X0055384Y0293601D01*
X0055384Y0294835D02*
X0054150Y0296069D01*
X0054150Y0297284D02*
X0057853Y0297284D01*
X0054150Y0299752D01*
X0057853Y0299752D01*
X0057236Y0300967D02*
X0057853Y0301584D01*
X0057853Y0302818D01*
X0057236Y0303436D01*
X0056619Y0303436D01*
X0056002Y0302818D01*
X0055384Y0303436D01*
X0054767Y0303436D01*
X0054150Y0302818D01*
X0054150Y0301584D01*
X0054767Y0300967D01*
X0056002Y0302201D02*
X0056002Y0302818D01*
X0055384Y0323601D02*
X0055384Y0325452D01*
X0056002Y0326069D01*
X0057236Y0326069D01*
X0057853Y0325452D01*
X0057853Y0323601D01*
X0054150Y0323601D01*
X0055384Y0324835D02*
X0054150Y0326069D01*
X0054150Y0327284D02*
X0057853Y0327284D01*
X0054150Y0329752D01*
X0057853Y0329752D01*
X0057236Y0330967D02*
X0057853Y0331584D01*
X0057853Y0332818D01*
X0057236Y0333436D01*
X0056619Y0333436D01*
X0054150Y0330967D01*
X0054150Y0333436D01*
X0149150Y0332818D02*
X0149150Y0331584D01*
X0149767Y0330967D01*
X0151002Y0330967D02*
X0151619Y0332201D01*
X0151619Y0332818D01*
X0151002Y0333436D01*
X0149767Y0333436D01*
X0149150Y0332818D01*
X0151002Y0330967D02*
X0152853Y0330967D01*
X0152853Y0333436D01*
X0152853Y0329752D02*
X0149150Y0329752D01*
X0152853Y0327284D01*
X0149150Y0327284D01*
X0149150Y0326069D02*
X0150384Y0324835D01*
X0150384Y0325452D02*
X0150384Y0323601D01*
X0149150Y0323601D02*
X0152853Y0323601D01*
X0152853Y0325452D01*
X0152236Y0326069D01*
X0151002Y0326069D01*
X0150384Y0325452D01*
X0150384Y0303436D02*
X0151002Y0302818D01*
X0151002Y0300967D01*
X0149767Y0300967D01*
X0149150Y0301584D01*
X0149150Y0302818D01*
X0149767Y0303436D01*
X0150384Y0303436D01*
X0152236Y0302201D02*
X0151002Y0300967D01*
X0152236Y0302201D02*
X0152853Y0303436D01*
X0152853Y0299752D02*
X0149150Y0299752D01*
X0152853Y0297284D01*
X0149150Y0297284D01*
X0149150Y0296069D02*
X0150384Y0294835D01*
X0150384Y0295452D02*
X0150384Y0293601D01*
X0149150Y0293601D02*
X0152853Y0293601D01*
X0152853Y0295452D01*
X0152236Y0296069D01*
X0151002Y0296069D01*
X0150384Y0295452D01*
X0151002Y0273436D02*
X0151002Y0270967D01*
X0152853Y0272818D01*
X0149150Y0272818D01*
X0149150Y0269752D02*
X0152853Y0269752D01*
X0152853Y0267284D02*
X0149150Y0267284D01*
X0149150Y0266069D02*
X0150384Y0264835D01*
X0150384Y0265452D02*
X0150384Y0263601D01*
X0149150Y0263601D02*
X0152853Y0263601D01*
X0152853Y0265452D01*
X0152236Y0266069D01*
X0151002Y0266069D01*
X0150384Y0265452D01*
X0152853Y0267284D02*
X0149150Y0269752D01*
X0244150Y0269752D02*
X0247853Y0269752D01*
X0247853Y0270967D02*
X0247853Y0273436D01*
X0247236Y0273436D01*
X0244767Y0270967D01*
X0244150Y0270967D01*
X0244150Y0269752D02*
X0247853Y0267284D01*
X0244150Y0267284D01*
X0244150Y0266069D02*
X0245384Y0264835D01*
X0245384Y0265452D02*
X0245384Y0263601D01*
X0244150Y0263601D02*
X0247853Y0263601D01*
X0247853Y0265452D01*
X0247236Y0266069D01*
X0246002Y0266069D01*
X0245384Y0265452D01*
X0245384Y0293601D02*
X0245384Y0295452D01*
X0246002Y0296069D01*
X0247236Y0296069D01*
X0247853Y0295452D01*
X0247853Y0293601D01*
X0244150Y0293601D01*
X0245384Y0294835D02*
X0244150Y0296069D01*
X0244150Y0297284D02*
X0247853Y0297284D01*
X0244150Y0299752D01*
X0247853Y0299752D01*
X0247236Y0300967D02*
X0247853Y0301584D01*
X0247853Y0302818D01*
X0247236Y0303436D01*
X0244767Y0303436D01*
X0244150Y0302818D01*
X0244150Y0301584D01*
X0244767Y0300967D01*
X0246002Y0301584D02*
X0246619Y0300967D01*
X0247236Y0300967D01*
X0246002Y0301584D02*
X0246002Y0303436D01*
X0245384Y0323601D02*
X0245384Y0325452D01*
X0246002Y0326069D01*
X0247236Y0326069D01*
X0247853Y0325452D01*
X0247853Y0323601D01*
X0244150Y0323601D01*
X0245384Y0324835D02*
X0244150Y0326069D01*
X0244150Y0327284D02*
X0247853Y0327284D01*
X0244150Y0329752D01*
X0247853Y0329752D01*
X0247236Y0330967D02*
X0247853Y0331584D01*
X0247853Y0332818D01*
X0247236Y0333436D01*
X0246619Y0333436D01*
X0246002Y0332818D01*
X0246002Y0331584D01*
X0246619Y0330967D01*
X0247236Y0330967D01*
X0246002Y0331584D02*
X0245384Y0330967D01*
X0244767Y0330967D01*
X0244150Y0331584D01*
X0244150Y0332818D01*
X0244767Y0333436D01*
X0245384Y0333436D01*
X0246002Y0332818D01*
X0339150Y0332252D02*
X0339150Y0329784D01*
X0339150Y0328569D02*
X0342853Y0328569D01*
X0341619Y0329784D02*
X0342853Y0331018D01*
X0339150Y0331018D01*
X0339150Y0328569D02*
X0342853Y0326101D01*
X0339150Y0326101D01*
X0339150Y0324886D02*
X0340384Y0323652D01*
X0340384Y0324269D02*
X0340384Y0322417D01*
X0339150Y0322417D02*
X0342853Y0322417D01*
X0342853Y0324269D01*
X0342236Y0324886D01*
X0341002Y0324886D01*
X0340384Y0324269D01*
X0339150Y0333467D02*
X0341619Y0335936D01*
X0342236Y0335936D01*
X0342853Y0335318D01*
X0342853Y0334084D01*
X0342236Y0333467D01*
X0339150Y0333467D02*
X0339150Y0335936D01*
X0339150Y0305936D02*
X0339150Y0303467D01*
X0339150Y0302252D02*
X0339150Y0299784D01*
X0339150Y0298569D02*
X0342853Y0298569D01*
X0341619Y0299784D02*
X0342853Y0301018D01*
X0339150Y0301018D01*
X0339150Y0298569D02*
X0342853Y0296101D01*
X0339150Y0296101D01*
X0339150Y0294886D02*
X0340384Y0293652D01*
X0340384Y0294269D02*
X0340384Y0292417D01*
X0339150Y0292417D02*
X0342853Y0292417D01*
X0342853Y0294269D01*
X0342236Y0294886D01*
X0341002Y0294886D01*
X0340384Y0294269D01*
X0341619Y0303467D02*
X0342853Y0304701D01*
X0339150Y0304701D01*
X0339767Y0275936D02*
X0339150Y0275318D01*
X0339150Y0274084D01*
X0339767Y0273467D01*
X0342236Y0275936D01*
X0339767Y0275936D01*
X0342236Y0275936D02*
X0342853Y0275318D01*
X0342853Y0274084D01*
X0342236Y0273467D01*
X0339767Y0273467D01*
X0339150Y0272252D02*
X0339150Y0269784D01*
X0339150Y0268569D02*
X0342853Y0268569D01*
X0341619Y0269784D02*
X0342853Y0271018D01*
X0339150Y0271018D01*
X0339150Y0268569D02*
X0342853Y0266101D01*
X0339150Y0266101D01*
X0339150Y0264886D02*
X0340384Y0263652D01*
X0340384Y0264269D02*
X0340384Y0262417D01*
X0339150Y0262417D02*
X0342853Y0262417D01*
X0342853Y0264269D01*
X0342236Y0264886D01*
X0341002Y0264886D01*
X0340384Y0264269D01*
D24*
X0341500Y0378386D02*
X0341500Y0381614D01*
X0346500Y0381614D02*
X0346500Y0378386D01*
X0084500Y0094000D02*
X0078500Y0094000D01*
X0078440Y0093998D01*
X0078379Y0093993D01*
X0078320Y0093984D01*
X0078261Y0093971D01*
X0078202Y0093955D01*
X0078145Y0093935D01*
X0078090Y0093912D01*
X0078035Y0093885D01*
X0077983Y0093856D01*
X0077932Y0093823D01*
X0077883Y0093787D01*
X0077837Y0093749D01*
X0077793Y0093707D01*
X0077751Y0093663D01*
X0077713Y0093617D01*
X0077677Y0093568D01*
X0077644Y0093517D01*
X0077615Y0093465D01*
X0077588Y0093410D01*
X0077565Y0093355D01*
X0077545Y0093298D01*
X0077529Y0093239D01*
X0077516Y0093180D01*
X0077507Y0093121D01*
X0077502Y0093060D01*
X0077500Y0093000D01*
X0077500Y0082000D01*
X0077502Y0081940D01*
X0077507Y0081879D01*
X0077516Y0081820D01*
X0077529Y0081761D01*
X0077545Y0081702D01*
X0077565Y0081645D01*
X0077588Y0081590D01*
X0077615Y0081535D01*
X0077644Y0081483D01*
X0077677Y0081432D01*
X0077713Y0081383D01*
X0077751Y0081337D01*
X0077793Y0081293D01*
X0077837Y0081251D01*
X0077883Y0081213D01*
X0077932Y0081177D01*
X0077983Y0081144D01*
X0078035Y0081115D01*
X0078090Y0081088D01*
X0078145Y0081065D01*
X0078202Y0081045D01*
X0078261Y0081029D01*
X0078320Y0081016D01*
X0078379Y0081007D01*
X0078440Y0081002D01*
X0078500Y0081000D01*
X0084500Y0081000D01*
X0084560Y0081002D01*
X0084621Y0081007D01*
X0084680Y0081016D01*
X0084739Y0081029D01*
X0084798Y0081045D01*
X0084855Y0081065D01*
X0084910Y0081088D01*
X0084965Y0081115D01*
X0085017Y0081144D01*
X0085068Y0081177D01*
X0085117Y0081213D01*
X0085163Y0081251D01*
X0085207Y0081293D01*
X0085249Y0081337D01*
X0085287Y0081383D01*
X0085323Y0081432D01*
X0085356Y0081483D01*
X0085385Y0081535D01*
X0085412Y0081590D01*
X0085435Y0081645D01*
X0085455Y0081702D01*
X0085471Y0081761D01*
X0085484Y0081820D01*
X0085493Y0081879D01*
X0085498Y0081940D01*
X0085500Y0082000D01*
X0085500Y0093000D01*
X0085498Y0093060D01*
X0085493Y0093121D01*
X0085484Y0093180D01*
X0085471Y0093239D01*
X0085455Y0093298D01*
X0085435Y0093355D01*
X0085412Y0093410D01*
X0085385Y0093465D01*
X0085356Y0093517D01*
X0085323Y0093568D01*
X0085287Y0093617D01*
X0085249Y0093663D01*
X0085207Y0093707D01*
X0085163Y0093749D01*
X0085117Y0093787D01*
X0085068Y0093823D01*
X0085017Y0093856D01*
X0084965Y0093885D01*
X0084910Y0093912D01*
X0084855Y0093935D01*
X0084798Y0093955D01*
X0084739Y0093971D01*
X0084680Y0093984D01*
X0084621Y0093993D01*
X0084560Y0093998D01*
X0084500Y0094000D01*
X0081500Y0093500D02*
X0081500Y0091500D01*
X0081500Y0083500D02*
X0081500Y0081500D01*
D25*
X0344006Y0377080D03*
X0344006Y0382880D03*
M02*
