G75*
%MOIN*%
%OFA0B0*%
%FSLAX25Y25*%
%IPPOS*%
%LPD*%
%AMOC8*
5,1,8,0,0,1.08239X$1,22.5*
%
%ADD10C,0.05200*%
%ADD11R,0.05118X0.05906*%
%ADD12R,0.06299X0.09449*%
%ADD13C,0.06000*%
%ADD14C,0.05600*%
%ADD15R,0.02400X0.01200*%
%ADD16C,0.02400*%
%ADD17R,0.03543X0.01969*%
%ADD18OC8,0.05600*%
%ADD19R,0.05906X0.05118*%
%ADD20OC8,0.05200*%
%ADD21R,0.06300X0.04600*%
%ADD22C,0.02000*%
%ADD23C,0.03962*%
%ADD24C,0.04000*%
%ADD25C,0.02500*%
%ADD26C,0.01500*%
%ADD27C,0.03000*%
%ADD28C,0.01000*%
%ADD29C,0.04000*%
D10*
X0038900Y0110000D02*
X0044100Y0110000D01*
X0044100Y0120000D02*
X0038900Y0120000D01*
X0038900Y0130000D02*
X0044100Y0130000D01*
X0044100Y0140000D02*
X0038900Y0140000D01*
X0038900Y0150000D02*
X0044100Y0150000D01*
X0044100Y0160000D02*
X0038900Y0160000D01*
X0038900Y0170000D02*
X0044100Y0170000D01*
X0044100Y0180000D02*
X0038900Y0180000D01*
X0038900Y0190000D02*
X0044100Y0190000D01*
X0044100Y0200000D02*
X0038900Y0200000D01*
X0038900Y0210000D02*
X0044100Y0210000D01*
X0044100Y0220000D02*
X0038900Y0220000D01*
X0038900Y0240000D02*
X0044100Y0240000D01*
X0044100Y0250000D02*
X0038900Y0250000D01*
X0038900Y0260000D02*
X0044100Y0260000D01*
X0044100Y0270000D02*
X0038900Y0270000D01*
X0038900Y0280000D02*
X0044100Y0280000D01*
X0044100Y0290000D02*
X0038900Y0290000D01*
X0038900Y0300000D02*
X0044100Y0300000D01*
X0044100Y0310000D02*
X0038900Y0310000D01*
X0038900Y0320000D02*
X0044100Y0320000D01*
X0044100Y0330000D02*
X0038900Y0330000D01*
X0068900Y0330000D02*
X0074100Y0330000D01*
X0074100Y0320000D02*
X0068900Y0320000D01*
X0068900Y0310000D02*
X0074100Y0310000D01*
X0074100Y0300000D02*
X0068900Y0300000D01*
X0068900Y0290000D02*
X0074100Y0290000D01*
X0074100Y0280000D02*
X0068900Y0280000D01*
X0068900Y0270000D02*
X0074100Y0270000D01*
X0074100Y0260000D02*
X0068900Y0260000D01*
X0068900Y0250000D02*
X0074100Y0250000D01*
X0074100Y0240000D02*
X0068900Y0240000D01*
X0068900Y0220000D02*
X0074100Y0220000D01*
X0074100Y0210000D02*
X0068900Y0210000D01*
X0068900Y0200000D02*
X0074100Y0200000D01*
X0074100Y0190000D02*
X0068900Y0190000D01*
X0068900Y0180000D02*
X0074100Y0180000D01*
X0074100Y0170000D02*
X0068900Y0170000D01*
X0068900Y0160000D02*
X0074100Y0160000D01*
X0074100Y0150000D02*
X0068900Y0150000D01*
X0068900Y0140000D02*
X0074100Y0140000D01*
X0074100Y0130000D02*
X0068900Y0130000D01*
X0068900Y0120000D02*
X0074100Y0120000D01*
X0074100Y0110000D02*
X0068900Y0110000D01*
X0133900Y0110000D02*
X0139100Y0110000D01*
X0139100Y0120000D02*
X0133900Y0120000D01*
X0133900Y0130000D02*
X0139100Y0130000D01*
X0139100Y0140000D02*
X0133900Y0140000D01*
X0133900Y0150000D02*
X0139100Y0150000D01*
X0139100Y0160000D02*
X0133900Y0160000D01*
X0133900Y0170000D02*
X0139100Y0170000D01*
X0139100Y0180000D02*
X0133900Y0180000D01*
X0133900Y0190000D02*
X0139100Y0190000D01*
X0139100Y0200000D02*
X0133900Y0200000D01*
X0133900Y0210000D02*
X0139100Y0210000D01*
X0139100Y0220000D02*
X0133900Y0220000D01*
X0133900Y0240000D02*
X0139100Y0240000D01*
X0139100Y0250000D02*
X0133900Y0250000D01*
X0133900Y0260000D02*
X0139100Y0260000D01*
X0139100Y0270000D02*
X0133900Y0270000D01*
X0133900Y0280000D02*
X0139100Y0280000D01*
X0139100Y0290000D02*
X0133900Y0290000D01*
X0133900Y0300000D02*
X0139100Y0300000D01*
X0139100Y0310000D02*
X0133900Y0310000D01*
X0133900Y0320000D02*
X0139100Y0320000D01*
X0139100Y0330000D02*
X0133900Y0330000D01*
X0163900Y0330000D02*
X0169100Y0330000D01*
X0169100Y0320000D02*
X0163900Y0320000D01*
X0163900Y0310000D02*
X0169100Y0310000D01*
X0169100Y0300000D02*
X0163900Y0300000D01*
X0163900Y0290000D02*
X0169100Y0290000D01*
X0169100Y0280000D02*
X0163900Y0280000D01*
X0163900Y0270000D02*
X0169100Y0270000D01*
X0169100Y0260000D02*
X0163900Y0260000D01*
X0163900Y0250000D02*
X0169100Y0250000D01*
X0169100Y0240000D02*
X0163900Y0240000D01*
X0163900Y0220000D02*
X0169100Y0220000D01*
X0169100Y0210000D02*
X0163900Y0210000D01*
X0163900Y0200000D02*
X0169100Y0200000D01*
X0169100Y0190000D02*
X0163900Y0190000D01*
X0163900Y0180000D02*
X0169100Y0180000D01*
X0169100Y0170000D02*
X0163900Y0170000D01*
X0163900Y0160000D02*
X0169100Y0160000D01*
X0169100Y0150000D02*
X0163900Y0150000D01*
X0163900Y0140000D02*
X0169100Y0140000D01*
X0169100Y0130000D02*
X0163900Y0130000D01*
X0163900Y0120000D02*
X0169100Y0120000D01*
X0169100Y0110000D02*
X0163900Y0110000D01*
X0228900Y0110000D02*
X0234100Y0110000D01*
X0234100Y0120000D02*
X0228900Y0120000D01*
X0228900Y0130000D02*
X0234100Y0130000D01*
X0234100Y0140000D02*
X0228900Y0140000D01*
X0228900Y0150000D02*
X0234100Y0150000D01*
X0234100Y0160000D02*
X0228900Y0160000D01*
X0228900Y0170000D02*
X0234100Y0170000D01*
X0234100Y0180000D02*
X0228900Y0180000D01*
X0228900Y0190000D02*
X0234100Y0190000D01*
X0234100Y0200000D02*
X0228900Y0200000D01*
X0228900Y0210000D02*
X0234100Y0210000D01*
X0234100Y0220000D02*
X0228900Y0220000D01*
X0228900Y0240000D02*
X0234100Y0240000D01*
X0234100Y0250000D02*
X0228900Y0250000D01*
X0228900Y0260000D02*
X0234100Y0260000D01*
X0234100Y0270000D02*
X0228900Y0270000D01*
X0228900Y0280000D02*
X0234100Y0280000D01*
X0234100Y0290000D02*
X0228900Y0290000D01*
X0228900Y0300000D02*
X0234100Y0300000D01*
X0234100Y0310000D02*
X0228900Y0310000D01*
X0228900Y0320000D02*
X0234100Y0320000D01*
X0234100Y0330000D02*
X0228900Y0330000D01*
X0258900Y0330000D02*
X0264100Y0330000D01*
X0264100Y0320000D02*
X0258900Y0320000D01*
X0258900Y0310000D02*
X0264100Y0310000D01*
X0264100Y0300000D02*
X0258900Y0300000D01*
X0258900Y0290000D02*
X0264100Y0290000D01*
X0264100Y0280000D02*
X0258900Y0280000D01*
X0258900Y0270000D02*
X0264100Y0270000D01*
X0264100Y0260000D02*
X0258900Y0260000D01*
X0258900Y0250000D02*
X0264100Y0250000D01*
X0264100Y0240000D02*
X0258900Y0240000D01*
X0258900Y0220000D02*
X0264100Y0220000D01*
X0264100Y0210000D02*
X0258900Y0210000D01*
X0258900Y0200000D02*
X0264100Y0200000D01*
X0264100Y0190000D02*
X0258900Y0190000D01*
X0258900Y0180000D02*
X0264100Y0180000D01*
X0264100Y0170000D02*
X0258900Y0170000D01*
X0258900Y0160000D02*
X0264100Y0160000D01*
X0264100Y0150000D02*
X0258900Y0150000D01*
X0258900Y0140000D02*
X0264100Y0140000D01*
X0264100Y0130000D02*
X0258900Y0130000D01*
X0258900Y0120000D02*
X0264100Y0120000D01*
X0264100Y0110000D02*
X0258900Y0110000D01*
X0323900Y0110000D02*
X0329100Y0110000D01*
X0329100Y0120000D02*
X0323900Y0120000D01*
X0323900Y0130000D02*
X0329100Y0130000D01*
X0329100Y0140000D02*
X0323900Y0140000D01*
X0323900Y0150000D02*
X0329100Y0150000D01*
X0329100Y0160000D02*
X0323900Y0160000D01*
X0323900Y0170000D02*
X0329100Y0170000D01*
X0329100Y0180000D02*
X0323900Y0180000D01*
X0323900Y0190000D02*
X0329100Y0190000D01*
X0329100Y0200000D02*
X0323900Y0200000D01*
X0323900Y0210000D02*
X0329100Y0210000D01*
X0329100Y0220000D02*
X0323900Y0220000D01*
X0323900Y0240000D02*
X0329100Y0240000D01*
X0329100Y0250000D02*
X0323900Y0250000D01*
X0323900Y0260000D02*
X0329100Y0260000D01*
X0329100Y0270000D02*
X0323900Y0270000D01*
X0323900Y0280000D02*
X0329100Y0280000D01*
X0329100Y0290000D02*
X0323900Y0290000D01*
X0323900Y0300000D02*
X0329100Y0300000D01*
X0329100Y0310000D02*
X0323900Y0310000D01*
X0323900Y0320000D02*
X0329100Y0320000D01*
X0329100Y0330000D02*
X0323900Y0330000D01*
X0353900Y0330000D02*
X0359100Y0330000D01*
X0359100Y0320000D02*
X0353900Y0320000D01*
X0353900Y0310000D02*
X0359100Y0310000D01*
X0359100Y0300000D02*
X0353900Y0300000D01*
X0353900Y0290000D02*
X0359100Y0290000D01*
X0359100Y0280000D02*
X0353900Y0280000D01*
X0353900Y0270000D02*
X0359100Y0270000D01*
X0359100Y0260000D02*
X0353900Y0260000D01*
X0353900Y0250000D02*
X0359100Y0250000D01*
X0359100Y0240000D02*
X0353900Y0240000D01*
X0353900Y0220000D02*
X0359100Y0220000D01*
X0359100Y0210000D02*
X0353900Y0210000D01*
X0353900Y0200000D02*
X0359100Y0200000D01*
X0359100Y0190000D02*
X0353900Y0190000D01*
X0353900Y0180000D02*
X0359100Y0180000D01*
X0359100Y0170000D02*
X0353900Y0170000D01*
X0353900Y0160000D02*
X0359100Y0160000D01*
X0359100Y0150000D02*
X0353900Y0150000D01*
X0353900Y0140000D02*
X0359100Y0140000D01*
X0359100Y0130000D02*
X0353900Y0130000D01*
X0353900Y0120000D02*
X0359100Y0120000D01*
X0359100Y0110000D02*
X0353900Y0110000D01*
D11*
X0345240Y0095000D03*
X0337760Y0095000D03*
X0250240Y0095000D03*
X0242760Y0095000D03*
X0155240Y0095000D03*
X0147760Y0095000D03*
X0060240Y0095000D03*
X0052760Y0095000D03*
D12*
X0060594Y0075000D03*
X0072406Y0075000D03*
D13*
X0076500Y0360000D03*
X0086500Y0360000D03*
X0096500Y0360000D03*
X0106500Y0360000D03*
X0116500Y0360000D03*
X0126500Y0360000D03*
X0136500Y0360000D03*
X0146500Y0360000D03*
X0156500Y0360000D03*
X0166500Y0360000D03*
X0176500Y0360000D03*
X0186500Y0360000D03*
X0196500Y0360000D03*
X0206500Y0360000D03*
X0216500Y0360000D03*
X0226500Y0360000D03*
X0236500Y0360000D03*
X0246500Y0360000D03*
X0256500Y0360000D03*
X0266500Y0360000D03*
X0276500Y0360000D03*
X0286500Y0360000D03*
X0296500Y0360000D03*
X0306500Y0360000D03*
X0316500Y0360000D03*
X0316500Y0380000D03*
X0306500Y0380000D03*
X0296500Y0380000D03*
X0286500Y0380000D03*
X0276500Y0380000D03*
X0266500Y0380000D03*
X0256500Y0380000D03*
X0246500Y0380000D03*
X0236500Y0380000D03*
X0226500Y0380000D03*
X0216500Y0380000D03*
X0206500Y0380000D03*
X0196500Y0380000D03*
X0186500Y0380000D03*
X0176500Y0380000D03*
X0166500Y0380000D03*
X0156500Y0380000D03*
X0146500Y0380000D03*
X0136500Y0380000D03*
X0126500Y0380000D03*
X0116500Y0380000D03*
X0106500Y0380000D03*
X0096500Y0380000D03*
X0086500Y0380000D03*
X0076500Y0380000D03*
D14*
X0096500Y0035000D02*
X0096500Y0010000D01*
X0106500Y0010000D02*
X0106500Y0035000D01*
X0116500Y0035000D02*
X0116500Y0010000D01*
X0126500Y0010000D02*
X0126500Y0035000D01*
X0136500Y0035000D02*
X0136500Y0010000D01*
X0146500Y0010000D02*
X0146500Y0035000D01*
X0156500Y0035000D02*
X0156500Y0010000D01*
X0166500Y0010000D02*
X0166500Y0035000D01*
X0176500Y0035000D02*
X0176500Y0010000D01*
X0186500Y0010000D02*
X0186500Y0035000D01*
X0196500Y0035000D02*
X0196500Y0010000D01*
X0206500Y0010000D02*
X0206500Y0035000D01*
X0216500Y0035000D02*
X0216500Y0010000D01*
X0226500Y0010000D02*
X0226500Y0035000D01*
X0236500Y0035000D02*
X0236500Y0010000D01*
X0246500Y0010000D02*
X0246500Y0035000D01*
X0256500Y0035000D02*
X0256500Y0010000D01*
X0266500Y0010000D02*
X0266500Y0035000D01*
X0276500Y0035000D02*
X0276500Y0010000D01*
X0286500Y0010000D02*
X0286500Y0035000D01*
X0296500Y0035000D02*
X0296500Y0010000D01*
X0306500Y0010000D02*
X0306500Y0035000D01*
X0316500Y0035000D02*
X0316500Y0010000D01*
X0326500Y0010000D02*
X0326500Y0035000D01*
X0336500Y0035000D02*
X0336500Y0010000D01*
D15*
X0336500Y0050000D03*
X0326500Y0050000D03*
X0316500Y0050000D03*
X0306500Y0050000D03*
X0296500Y0050000D03*
X0286500Y0050000D03*
X0276500Y0050000D03*
X0266500Y0050000D03*
X0256500Y0050000D03*
X0246500Y0050000D03*
X0236500Y0050000D03*
X0226500Y0050000D03*
X0216500Y0050000D03*
X0206500Y0050000D03*
X0196500Y0050000D03*
X0186500Y0050000D03*
X0176500Y0050000D03*
X0166500Y0050000D03*
X0156500Y0050000D03*
X0146500Y0050000D03*
X0136500Y0050000D03*
X0126500Y0050000D03*
X0116500Y0050000D03*
X0106500Y0050000D03*
X0096500Y0050000D03*
D16*
X0096500Y0035000D01*
X0106500Y0035000D02*
X0106500Y0050000D01*
X0116500Y0050000D02*
X0116500Y0035000D01*
X0126500Y0035000D02*
X0126500Y0050000D01*
X0136500Y0050000D02*
X0136500Y0035000D01*
X0146500Y0035000D02*
X0146500Y0050000D01*
X0156500Y0050000D02*
X0156500Y0035000D01*
X0166500Y0035000D02*
X0166500Y0050000D01*
X0176500Y0050000D02*
X0176500Y0035000D01*
X0186500Y0035000D02*
X0186500Y0050000D01*
X0196500Y0050000D02*
X0196500Y0035000D01*
X0206500Y0035000D02*
X0206500Y0050000D01*
X0216500Y0050000D02*
X0216500Y0035000D01*
X0226500Y0035000D02*
X0226500Y0050000D01*
X0236500Y0050000D02*
X0236500Y0035000D01*
X0246500Y0035000D02*
X0246500Y0050000D01*
X0256500Y0050000D02*
X0256500Y0035000D01*
X0266500Y0035000D02*
X0266500Y0050000D01*
X0276500Y0050000D02*
X0276500Y0035000D01*
X0286500Y0035000D02*
X0286500Y0050000D01*
X0296500Y0050000D02*
X0296500Y0035000D01*
X0306500Y0035000D02*
X0306500Y0050000D01*
X0316500Y0050000D02*
X0316500Y0035000D01*
X0326500Y0035000D02*
X0326500Y0050000D01*
X0336500Y0050000D02*
X0336500Y0035000D01*
D17*
X0338350Y0250276D03*
X0338350Y0253425D03*
X0338350Y0256575D03*
X0338350Y0259724D03*
X0344650Y0259724D03*
X0344650Y0256575D03*
X0344650Y0253425D03*
X0344650Y0250276D03*
X0344650Y0280276D03*
X0344650Y0283425D03*
X0344650Y0286575D03*
X0344650Y0289724D03*
X0338350Y0289724D03*
X0338350Y0286575D03*
X0338350Y0283425D03*
X0338350Y0280276D03*
X0338350Y0310276D03*
X0338350Y0313425D03*
X0338350Y0316575D03*
X0338350Y0319724D03*
X0344650Y0319724D03*
X0344650Y0316575D03*
X0344650Y0313425D03*
X0344650Y0310276D03*
X0249650Y0310276D03*
X0249650Y0313425D03*
X0249650Y0316575D03*
X0249650Y0319724D03*
X0243350Y0319724D03*
X0243350Y0316575D03*
X0243350Y0313425D03*
X0243350Y0310276D03*
X0243350Y0289724D03*
X0243350Y0286575D03*
X0243350Y0283425D03*
X0243350Y0280276D03*
X0249650Y0280276D03*
X0249650Y0283425D03*
X0249650Y0286575D03*
X0249650Y0289724D03*
X0249650Y0259724D03*
X0249650Y0256575D03*
X0249650Y0253425D03*
X0249650Y0250276D03*
X0243350Y0250276D03*
X0243350Y0253425D03*
X0243350Y0256575D03*
X0243350Y0259724D03*
X0154650Y0259724D03*
X0154650Y0256575D03*
X0154650Y0253425D03*
X0154650Y0250276D03*
X0148350Y0250276D03*
X0148350Y0253425D03*
X0148350Y0256575D03*
X0148350Y0259724D03*
X0148350Y0280276D03*
X0148350Y0283425D03*
X0148350Y0286575D03*
X0148350Y0289724D03*
X0154650Y0289724D03*
X0154650Y0286575D03*
X0154650Y0283425D03*
X0154650Y0280276D03*
X0154650Y0310276D03*
X0154650Y0313425D03*
X0154650Y0316575D03*
X0154650Y0319724D03*
X0148350Y0319724D03*
X0148350Y0316575D03*
X0148350Y0313425D03*
X0148350Y0310276D03*
X0059650Y0310276D03*
X0059650Y0313425D03*
X0059650Y0316575D03*
X0059650Y0319724D03*
X0053350Y0319724D03*
X0053350Y0316575D03*
X0053350Y0313425D03*
X0053350Y0310276D03*
X0053350Y0289724D03*
X0053350Y0286575D03*
X0053350Y0283425D03*
X0053350Y0280276D03*
X0059650Y0280276D03*
X0059650Y0283425D03*
X0059650Y0286575D03*
X0059650Y0289724D03*
X0059650Y0259724D03*
X0059650Y0256575D03*
X0059650Y0253425D03*
X0059650Y0250276D03*
X0053350Y0250276D03*
X0053350Y0253425D03*
X0053350Y0256575D03*
X0053350Y0259724D03*
D18*
X0049000Y0347500D03*
X0049000Y0357500D03*
X0049000Y0367500D03*
X0049000Y0377500D03*
X0049000Y0387500D03*
X0039000Y0387500D03*
X0039000Y0377500D03*
X0039000Y0367500D03*
X0039000Y0357500D03*
X0039000Y0347500D03*
D19*
X0344000Y0376260D03*
X0344000Y0383740D03*
D20*
X0359000Y0367500D03*
X0369000Y0367500D03*
D21*
X0081500Y0090500D03*
X0081500Y0084500D03*
D22*
X0056500Y0060000D02*
X0044000Y0072500D01*
X0044000Y0092500D01*
X0039000Y0097500D01*
X0011500Y0097500D01*
X0006500Y0102500D01*
X0006500Y0347500D01*
X0049000Y0337500D02*
X0049000Y0250000D01*
X0144000Y0250000D02*
X0144000Y0337500D01*
X0239000Y0337500D02*
X0239000Y0250000D01*
X0239000Y0337500D02*
X0329000Y0337500D01*
X0334000Y0332500D01*
X0334000Y0250000D01*
X0096500Y0052500D02*
X0096500Y0050000D01*
X0096500Y0052500D02*
X0089000Y0060000D01*
X0056500Y0060000D01*
D23*
X0091500Y0090000D03*
X0006500Y0347500D03*
X0091500Y0387500D03*
X0334000Y0382500D03*
D24*
X0144000Y0337500D02*
X0106500Y0337500D01*
X0104000Y0335000D01*
X0104000Y0237500D01*
X0096500Y0230000D01*
X0081500Y0230000D01*
X0066500Y0230000D01*
X0061500Y0225000D01*
X0060240Y0223740D01*
X0060240Y0220000D01*
X0060240Y0200000D01*
X0060240Y0103760D01*
X0060240Y0095000D01*
X0072406Y0082835D01*
X0072406Y0075000D01*
X0074000Y0075000D02*
X0106500Y0075000D01*
X0126500Y0055000D01*
X0126500Y0050000D01*
X0106500Y0050000D02*
X0106500Y0052500D01*
X0094000Y0065000D01*
X0066500Y0065000D01*
X0060594Y0070906D01*
X0060594Y0075000D02*
X0052760Y0082835D01*
X0052760Y0095000D01*
X0052760Y0098740D01*
X0041500Y0110000D01*
X0019000Y0110000D01*
X0014000Y0115000D01*
X0014000Y0382500D01*
X0019000Y0387500D01*
X0039000Y0387500D01*
X0039000Y0357500D02*
X0031500Y0350000D01*
X0031500Y0337500D01*
X0049000Y0337500D01*
X0106500Y0337500D01*
D25*
X0144000Y0337500D02*
X0239000Y0337500D01*
D26*
X0239000Y0320000D02*
X0243075Y0320000D01*
X0243350Y0319724D01*
X0242425Y0317500D02*
X0239000Y0317500D01*
X0242425Y0317500D02*
X0243350Y0316575D01*
X0243350Y0313425D02*
X0242425Y0312500D01*
X0242200Y0312500D02*
X0239000Y0312500D01*
X0239000Y0310000D02*
X0243075Y0310000D01*
X0243350Y0310276D01*
X0249650Y0310276D02*
X0251224Y0310276D01*
X0261500Y0300000D01*
X0261500Y0290000D02*
X0261224Y0289724D01*
X0249650Y0289724D01*
X0243350Y0289724D02*
X0243075Y0290000D01*
X0239000Y0290000D01*
X0239000Y0287500D02*
X0242425Y0287500D01*
X0243350Y0286575D01*
X0243350Y0283425D02*
X0242425Y0282500D01*
X0239000Y0282500D01*
X0239000Y0280000D02*
X0243075Y0280000D01*
X0243350Y0280276D01*
X0249650Y0280276D02*
X0261224Y0280276D01*
X0261500Y0280000D01*
X0261500Y0270000D02*
X0251224Y0259724D01*
X0249650Y0259724D01*
X0249650Y0256575D02*
X0258075Y0256575D01*
X0261500Y0260000D01*
X0258075Y0253425D02*
X0249650Y0253425D01*
X0249650Y0250276D02*
X0251224Y0250276D01*
X0261500Y0240000D01*
X0261500Y0250000D02*
X0258075Y0253425D01*
X0243350Y0253425D02*
X0242425Y0252500D01*
X0239000Y0252500D01*
X0239000Y0250000D02*
X0243075Y0250000D01*
X0243350Y0250276D01*
X0243350Y0256575D02*
X0242425Y0257500D01*
X0239000Y0257500D01*
X0239000Y0260000D02*
X0243075Y0260000D01*
X0243350Y0259724D01*
X0261500Y0220000D02*
X0250240Y0208740D01*
X0250240Y0095000D01*
X0251500Y0095000D01*
X0242760Y0095000D02*
X0242760Y0098740D01*
X0231500Y0110000D01*
X0155240Y0095000D02*
X0155240Y0208740D01*
X0166500Y0220000D01*
X0166500Y0240000D02*
X0156224Y0250276D01*
X0154650Y0250276D01*
X0154650Y0253425D02*
X0163075Y0253425D01*
X0166500Y0250000D01*
X0163075Y0256575D02*
X0154650Y0256575D01*
X0154650Y0259724D02*
X0156224Y0259724D01*
X0166500Y0270000D01*
X0166500Y0280000D02*
X0166224Y0280276D01*
X0154650Y0280276D01*
X0148350Y0280276D02*
X0148075Y0280000D01*
X0144000Y0280000D01*
X0144000Y0282500D02*
X0147425Y0282500D01*
X0148350Y0283425D01*
X0148350Y0286575D02*
X0147425Y0287500D01*
X0144000Y0287500D01*
X0144000Y0290000D02*
X0148075Y0290000D01*
X0148350Y0289724D01*
X0154650Y0289724D02*
X0166224Y0289724D01*
X0166500Y0290000D01*
X0166500Y0300000D02*
X0156224Y0310276D01*
X0154650Y0310276D01*
X0154650Y0313425D02*
X0163075Y0313425D01*
X0166500Y0310000D01*
X0163075Y0316575D02*
X0154650Y0316575D01*
X0154650Y0319724D02*
X0156224Y0319724D01*
X0166500Y0330000D01*
X0166500Y0320000D02*
X0163075Y0316575D01*
X0148350Y0319724D02*
X0148075Y0320000D01*
X0144000Y0320000D01*
X0144000Y0317500D02*
X0147425Y0317500D01*
X0147425Y0312500D02*
X0144000Y0312500D01*
X0144000Y0310000D02*
X0148075Y0310000D01*
X0148350Y0310276D01*
X0148075Y0260000D02*
X0144000Y0260000D01*
X0144000Y0257500D02*
X0147425Y0257500D01*
X0148350Y0256575D01*
X0148350Y0259724D02*
X0148075Y0260000D01*
X0148350Y0253425D02*
X0147425Y0252500D01*
X0144000Y0252500D01*
X0144000Y0250000D02*
X0148075Y0250000D01*
X0148350Y0250276D01*
X0163075Y0256575D02*
X0166500Y0260000D01*
X0249650Y0313425D02*
X0258075Y0313425D01*
X0261500Y0310000D01*
X0258075Y0316575D02*
X0249650Y0316575D01*
X0249650Y0319724D02*
X0251224Y0319724D01*
X0261500Y0330000D01*
X0261500Y0320000D02*
X0258075Y0316575D01*
X0334000Y0317500D02*
X0337425Y0317500D01*
X0338350Y0316575D01*
X0338350Y0319724D02*
X0338075Y0320000D01*
X0334000Y0320000D01*
X0334000Y0312500D02*
X0337425Y0312500D01*
X0338350Y0313425D01*
X0338350Y0310276D02*
X0338075Y0310000D01*
X0334000Y0310000D01*
X0344650Y0310276D02*
X0346224Y0310276D01*
X0356500Y0300000D01*
X0356500Y0290000D02*
X0356224Y0289724D01*
X0344650Y0289724D01*
X0338350Y0289724D02*
X0338075Y0290000D01*
X0334000Y0290000D01*
X0334000Y0287500D02*
X0337425Y0287500D01*
X0337425Y0282500D02*
X0334000Y0282500D01*
X0334000Y0280000D02*
X0338075Y0280000D01*
X0338350Y0280276D01*
X0344650Y0280276D02*
X0356224Y0280276D01*
X0356500Y0280000D01*
X0356500Y0270000D02*
X0346224Y0259724D01*
X0344650Y0259724D01*
X0344650Y0256575D02*
X0353075Y0256575D01*
X0356500Y0260000D01*
X0353075Y0253425D02*
X0344650Y0253425D01*
X0344650Y0250276D02*
X0346224Y0250276D01*
X0356500Y0240000D01*
X0356500Y0250000D02*
X0353075Y0253425D01*
X0338350Y0253425D02*
X0337425Y0252500D01*
X0334000Y0252500D01*
X0334000Y0250000D02*
X0338075Y0250000D01*
X0338350Y0250276D01*
X0338350Y0256575D02*
X0337425Y0257500D01*
X0334000Y0257500D01*
X0334000Y0260000D02*
X0338075Y0260000D01*
X0338350Y0259724D01*
X0356500Y0220000D02*
X0345240Y0208740D01*
X0345240Y0095000D01*
X0337760Y0095000D02*
X0337760Y0098740D01*
X0326500Y0110000D01*
X0147760Y0098740D02*
X0147760Y0095000D01*
X0147760Y0098740D02*
X0136500Y0110000D01*
X0071500Y0200000D02*
X0060240Y0200000D01*
X0071500Y0240000D02*
X0061224Y0250276D01*
X0059650Y0250276D01*
X0059650Y0253425D02*
X0068075Y0253425D01*
X0071500Y0250000D01*
X0068075Y0256575D02*
X0059650Y0256575D01*
X0059650Y0259724D02*
X0061224Y0259724D01*
X0071500Y0270000D01*
X0071500Y0280000D02*
X0071224Y0280276D01*
X0059650Y0280276D01*
X0053075Y0280000D02*
X0049000Y0280000D01*
X0049000Y0282500D02*
X0052425Y0282500D01*
X0053350Y0283425D01*
X0053350Y0286575D02*
X0052425Y0287500D01*
X0049000Y0287500D01*
X0049000Y0290000D02*
X0053075Y0290000D01*
X0053350Y0289724D01*
X0059650Y0289724D02*
X0071224Y0289724D01*
X0071500Y0290000D01*
X0071500Y0300000D02*
X0061224Y0310276D01*
X0059650Y0310276D01*
X0059650Y0313425D02*
X0068075Y0313425D01*
X0071500Y0310000D01*
X0068075Y0316575D02*
X0059650Y0316575D01*
X0059650Y0319724D02*
X0061224Y0319724D01*
X0071500Y0330000D01*
X0071500Y0320000D02*
X0068075Y0316575D01*
X0053350Y0316575D02*
X0052425Y0317500D01*
X0049000Y0317500D01*
X0049000Y0320000D02*
X0053075Y0320000D01*
X0053350Y0319724D01*
X0053350Y0313425D02*
X0052425Y0312500D01*
X0049000Y0312500D01*
X0049000Y0310000D02*
X0053075Y0310000D01*
X0053350Y0310276D01*
X0041500Y0310000D02*
X0026500Y0295000D01*
X0026500Y0155000D01*
X0041500Y0140000D01*
X0041500Y0130000D02*
X0024000Y0147500D01*
X0024000Y0302500D01*
X0041500Y0320000D01*
X0041500Y0330000D02*
X0021500Y0310000D01*
X0021500Y0140000D01*
X0041500Y0120000D01*
X0049000Y0250000D02*
X0053075Y0250000D01*
X0053350Y0250276D01*
X0052425Y0252500D02*
X0049000Y0252500D01*
X0052425Y0252500D02*
X0053350Y0253425D01*
X0053350Y0256575D02*
X0052425Y0257500D01*
X0049000Y0257500D01*
X0049000Y0260000D02*
X0053075Y0260000D01*
X0053350Y0259724D01*
X0068075Y0256575D02*
X0071500Y0260000D01*
X0091500Y0387500D02*
X0086500Y0392500D01*
X0044000Y0392500D01*
X0039000Y0387500D01*
X0334000Y0382500D02*
X0335240Y0383740D01*
X0344000Y0383740D01*
X0344000Y0376260D02*
X0350240Y0376260D01*
X0359000Y0367500D01*
X0369000Y0367500D02*
X0386500Y0367500D01*
X0356500Y0330000D02*
X0346224Y0319724D01*
X0344650Y0319724D01*
X0344650Y0316575D02*
X0353075Y0316575D01*
X0356500Y0320000D01*
X0353075Y0313425D02*
X0344650Y0313425D01*
X0353075Y0313425D02*
X0356500Y0310000D01*
D27*
X0386500Y0367500D02*
X0386500Y0227500D01*
X0379000Y0220000D01*
X0356500Y0220000D01*
X0346500Y0230000D01*
X0271500Y0230000D01*
X0261500Y0220000D01*
X0251500Y0230000D01*
X0176500Y0230000D01*
X0166500Y0220000D01*
X0156500Y0230000D01*
X0081500Y0230000D01*
X0071500Y0220000D02*
X0060240Y0220000D01*
X0061500Y0092500D02*
X0071500Y0082500D01*
X0071500Y0077500D01*
X0074000Y0075000D01*
X0072406Y0075000D02*
X0106500Y0075000D01*
X0126500Y0055000D01*
X0126500Y0050000D01*
X0136500Y0050000D01*
X0116500Y0050000D02*
X0106500Y0050000D01*
X0060594Y0070906D02*
X0060594Y0075000D01*
X0049000Y0357500D02*
X0056500Y0365000D01*
X0056500Y0367500D01*
X0079000Y0367500D01*
X0084000Y0372500D01*
X0099000Y0372500D01*
X0106500Y0380000D01*
X0116500Y0380000D02*
X0126500Y0390000D01*
X0381500Y0390000D01*
X0386500Y0385000D01*
X0386500Y0367500D01*
X0056500Y0367500D02*
X0056500Y0370000D01*
X0049000Y0377500D01*
X0039000Y0377500D02*
X0031500Y0370000D01*
X0031500Y0365000D01*
X0039000Y0357500D01*
D28*
X0070100Y0345000D02*
X0078200Y0345000D01*
X0092800Y0359600D01*
X0096400Y0359600D01*
X0096500Y0360000D01*
X0084700Y0365000D02*
X0081100Y0361400D01*
X0081100Y0353300D01*
X0084700Y0365000D02*
X0127900Y0365000D01*
X0142300Y0379400D01*
X0145900Y0379400D01*
X0146500Y0380000D01*
X0162100Y0362300D02*
X0162100Y0343400D01*
X0163900Y0341600D01*
X0173800Y0341600D02*
X0198100Y0341600D01*
X0216500Y0360000D01*
X0221500Y0361400D02*
X0221500Y0349700D01*
X0213400Y0341600D01*
X0199900Y0347000D02*
X0211600Y0358700D01*
X0211600Y0361400D01*
X0225100Y0374900D01*
X0227800Y0374900D01*
X0231400Y0378500D01*
X0231400Y0381200D01*
X0235000Y0384800D01*
X0251200Y0384800D01*
X0255700Y0380300D01*
X0256500Y0380000D01*
X0236500Y0380000D02*
X0235900Y0379400D01*
X0235900Y0375800D01*
X0221500Y0361400D01*
X0199900Y0347000D02*
X0173800Y0347000D01*
X0162100Y0362300D02*
X0165700Y0365900D01*
X0165700Y0379400D01*
X0166500Y0380000D01*
X0116500Y0360000D02*
X0116200Y0359600D01*
X0107200Y0350600D01*
X0148350Y0310276D02*
X0148600Y0310100D01*
X0148350Y0250276D02*
X0147700Y0249800D01*
X0166600Y0210200D02*
X0166500Y0210000D01*
X0166600Y0210200D02*
X0223300Y0210200D01*
X0228700Y0215600D01*
X0243100Y0215600D01*
X0251200Y0223700D01*
X0251200Y0215600D02*
X0247600Y0212000D01*
X0247600Y0207500D01*
X0235900Y0195800D01*
X0228700Y0195800D01*
X0213400Y0180500D01*
X0213400Y0091400D01*
X0217000Y0095000D02*
X0217000Y0104900D01*
X0224200Y0111200D02*
X0224200Y0090000D01*
X0256600Y0057600D01*
X0256600Y0050900D01*
X0256500Y0035000D01*
X0266500Y0035000D02*
X0266500Y0050900D01*
X0256600Y0060800D01*
X0256600Y0096800D01*
X0253000Y0100400D01*
X0253000Y0201200D01*
X0261100Y0209300D01*
X0261500Y0210000D01*
X0273700Y0213800D02*
X0273700Y0194000D01*
X0262000Y0182300D01*
X0262000Y0180500D01*
X0261500Y0180000D01*
X0261500Y0170000D02*
X0261100Y0169700D01*
X0261100Y0167900D01*
X0254800Y0161600D01*
X0254800Y0101300D01*
X0260200Y0095900D01*
X0260200Y0095000D01*
X0260200Y0089600D02*
X0268300Y0097700D01*
X0268300Y0113000D01*
X0262000Y0119300D01*
X0261500Y0120000D01*
X0270100Y0130100D02*
X0270100Y0085100D01*
X0266500Y0081500D01*
X0266500Y0072100D01*
X0272200Y0066400D01*
X0276400Y0059000D02*
X0276400Y0162500D01*
X0279100Y0165200D01*
X0279100Y0220100D01*
X0276400Y0222800D01*
X0271000Y0222800D01*
X0274600Y0219200D02*
X0277300Y0216500D01*
X0277300Y0166100D01*
X0262000Y0150800D01*
X0261500Y0150000D01*
X0262000Y0149900D01*
X0262000Y0148100D01*
X0271900Y0138200D01*
X0271900Y0081500D01*
X0262700Y0075200D02*
X0262700Y0067100D01*
X0276400Y0050900D01*
X0276500Y0035000D01*
X0286500Y0035000D02*
X0286300Y0050900D01*
X0286300Y0221900D01*
X0282700Y0225500D01*
X0243100Y0249800D02*
X0243350Y0250276D01*
X0242200Y0249800D01*
X0244000Y0310100D02*
X0243350Y0310276D01*
X0242200Y0312500D02*
X0242200Y0312800D01*
X0243350Y0313425D01*
X0279100Y0347000D02*
X0266500Y0359600D01*
X0276500Y0360000D02*
X0277300Y0359600D01*
X0288100Y0348800D01*
X0346600Y0348800D01*
X0363700Y0331700D01*
X0363700Y0239000D01*
X0353800Y0229100D01*
X0348400Y0217400D02*
X0343000Y0217400D01*
X0331300Y0205700D01*
X0323200Y0205700D01*
X0293500Y0176000D01*
X0293500Y0053600D01*
X0297100Y0050900D02*
X0296500Y0035000D01*
X0306500Y0035000D02*
X0307000Y0050900D01*
X0313300Y0050900D01*
X0335800Y0073400D01*
X0348400Y0073400D01*
X0342100Y0077000D02*
X0341200Y0077000D01*
X0342100Y0077000D02*
X0352900Y0087800D01*
X0352900Y0091400D01*
X0349300Y0095000D01*
X0349300Y0121100D01*
X0352900Y0124700D01*
X0360100Y0124700D01*
X0363700Y0128300D01*
X0363700Y0152600D01*
X0356500Y0159800D01*
X0356500Y0160000D01*
X0356500Y0169700D02*
X0356500Y0170000D01*
X0356500Y0170600D01*
X0370900Y0185000D01*
X0363700Y0188600D02*
X0363700Y0192200D01*
X0356500Y0199400D01*
X0356500Y0200000D01*
X0353800Y0205700D02*
X0370000Y0205700D01*
X0379900Y0215600D01*
X0353800Y0205700D02*
X0349300Y0201200D01*
X0349300Y0197600D01*
X0356500Y0190400D01*
X0356500Y0190000D01*
X0353800Y0185900D02*
X0361000Y0185900D01*
X0363700Y0188600D01*
X0353800Y0185900D02*
X0349300Y0181400D01*
X0349300Y0126500D01*
X0356500Y0120000D02*
X0357400Y0118400D01*
X0369100Y0130100D01*
X0356500Y0120000D02*
X0356500Y0119300D01*
X0357400Y0118400D01*
X0363700Y0112100D01*
X0363700Y0075200D01*
X0348500Y0060000D01*
X0344000Y0060000D01*
X0336500Y0052500D01*
X0336500Y0050000D01*
X0336500Y0057500D02*
X0334000Y0057500D01*
X0326500Y0050000D01*
X0336500Y0057500D02*
X0341500Y0062500D01*
X0345600Y0062500D01*
X0360100Y0077000D01*
X0356500Y0076100D02*
X0356500Y0101300D01*
X0349300Y0089600D02*
X0348400Y0089600D01*
X0327700Y0068900D01*
X0303400Y0068900D01*
X0297100Y0050900D02*
X0297100Y0089600D01*
X0321400Y0113900D01*
X0328600Y0113900D01*
X0333100Y0118400D01*
X0333100Y0200300D01*
X0343900Y0211100D01*
X0343900Y0212900D01*
X0336700Y0249800D02*
X0338350Y0250276D01*
X0338500Y0310100D02*
X0338350Y0310276D01*
X0343900Y0326300D02*
X0323200Y0347000D01*
X0279100Y0347000D01*
X0295300Y0365000D02*
X0307900Y0365000D01*
X0311500Y0361400D01*
X0311500Y0358700D01*
X0317800Y0352400D01*
X0320500Y0352400D01*
X0295300Y0365000D02*
X0280900Y0379400D01*
X0277300Y0379400D01*
X0276500Y0380000D01*
X0343900Y0326300D02*
X0347500Y0326300D01*
X0356500Y0169700D02*
X0372700Y0153500D01*
X0372700Y0084200D01*
X0356500Y0076100D02*
X0345700Y0065300D01*
X0338700Y0065300D01*
X0270100Y0130100D02*
X0262000Y0138200D01*
X0262000Y0140000D01*
X0261500Y0140000D01*
X0245800Y0140900D02*
X0245800Y0135500D01*
X0235000Y0124700D01*
X0227800Y0124700D01*
X0222400Y0119300D01*
X0222400Y0082400D01*
X0224200Y0080600D01*
X0224200Y0075200D02*
X0233000Y0075200D01*
X0235500Y0072700D01*
X0224200Y0075200D02*
X0206200Y0093200D01*
X0206200Y0159800D01*
X0166600Y0199400D01*
X0166500Y0200000D01*
X0159400Y0203900D02*
X0159400Y0176900D01*
X0165700Y0170600D01*
X0166500Y0170000D01*
X0165700Y0169700D01*
X0165700Y0167900D01*
X0157600Y0159800D01*
X0157600Y0100400D01*
X0186400Y0071600D01*
X0186400Y0050900D01*
X0186500Y0035000D01*
X0176500Y0035000D02*
X0176500Y0055400D01*
X0111700Y0120200D01*
X0111700Y0122900D01*
X0111700Y0178700D01*
X0096400Y0194000D01*
X0096400Y0197600D01*
X0100000Y0201200D01*
X0100000Y0195800D02*
X0115300Y0180500D01*
X0115300Y0122900D01*
X0136000Y0102200D01*
X0127900Y0101300D02*
X0127900Y0092300D01*
X0123400Y0095000D02*
X0123400Y0097700D01*
X0106300Y0114800D01*
X0106300Y0166100D01*
X0078400Y0194000D01*
X0078400Y0203900D01*
X0078400Y0209300D02*
X0072100Y0209300D01*
X0071500Y0210000D01*
X0078400Y0209300D02*
X0108100Y0179600D01*
X0108100Y0121100D01*
X0127900Y0101300D01*
X0110800Y0102200D02*
X0140500Y0072500D01*
X0154900Y0072500D01*
X0166600Y0060800D01*
X0166600Y0050900D01*
X0166500Y0035000D01*
X0156500Y0035000D02*
X0155800Y0050900D01*
X0155800Y0068900D01*
X0154000Y0070700D01*
X0139600Y0070700D01*
X0104500Y0105800D01*
X0104500Y0165200D01*
X0075700Y0194000D01*
X0066700Y0194000D01*
X0064900Y0192200D01*
X0064900Y0176900D01*
X0071200Y0170600D01*
X0071500Y0170000D01*
X0072100Y0177800D02*
X0100900Y0149000D01*
X0100900Y0104000D01*
X0142300Y0062600D01*
X0142300Y0051800D01*
X0145900Y0050900D02*
X0146500Y0035000D01*
X0145900Y0050900D02*
X0145900Y0061700D01*
X0102700Y0104900D01*
X0102700Y0157100D01*
X0072100Y0187700D01*
X0072100Y0189500D01*
X0071500Y0190000D01*
X0071500Y0180000D02*
X0072100Y0179600D01*
X0072100Y0177800D01*
X0072100Y0140000D02*
X0071500Y0140000D01*
X0072100Y0140000D02*
X0078400Y0133700D01*
X0078400Y0123800D01*
X0131500Y0070700D01*
X0131500Y0068000D01*
X0138700Y0055400D02*
X0074800Y0119300D01*
X0072100Y0119300D01*
X0071500Y0120000D01*
X0079100Y0104900D02*
X0084100Y0104900D01*
X0101500Y0087500D01*
X0101500Y0085000D01*
X0101000Y0084500D01*
X0081500Y0084500D01*
X0081500Y0090500D02*
X0091000Y0090500D01*
X0091500Y0090000D01*
X0101500Y0085000D02*
X0101500Y0082500D01*
X0101800Y0082200D01*
X0110800Y0102200D02*
X0110800Y0104900D01*
X0152200Y0067100D02*
X0152200Y0050900D01*
X0159400Y0058100D02*
X0162100Y0055400D01*
X0162100Y0050000D01*
X0190000Y0057200D02*
X0190000Y0087800D01*
X0174700Y0103100D01*
X0174700Y0110300D01*
X0178300Y0104900D02*
X0178300Y0102200D01*
X0196300Y0084200D01*
X0196300Y0050900D01*
X0196500Y0035000D01*
X0206500Y0035000D02*
X0206200Y0050900D01*
X0200800Y0056300D01*
X0200800Y0095000D01*
X0166600Y0129200D01*
X0166500Y0130000D01*
X0166500Y0120000D02*
X0166600Y0119300D01*
X0171100Y0119300D01*
X0197200Y0093200D01*
X0204400Y0082400D02*
X0235900Y0050900D01*
X0236500Y0035000D01*
X0246500Y0035000D02*
X0246700Y0050900D01*
X0246700Y0056300D01*
X0230500Y0051800D02*
X0230500Y0050900D01*
X0230500Y0051800D02*
X0202600Y0079700D01*
X0202600Y0143600D01*
X0166600Y0179600D01*
X0166500Y0180000D01*
X0166600Y0189500D02*
X0166500Y0190000D01*
X0166600Y0189500D02*
X0204400Y0151700D01*
X0204400Y0082400D01*
X0186400Y0081500D02*
X0159400Y0108500D01*
X0159400Y0153500D01*
X0165700Y0159800D01*
X0166500Y0160000D01*
X0224200Y0111200D02*
X0228700Y0115700D01*
X0237700Y0115700D01*
X0245800Y0140900D02*
X0238600Y0148100D01*
X0238600Y0153500D01*
X0223300Y0053600D02*
X0226000Y0050900D01*
X0226500Y0035000D01*
X0216500Y0035000D02*
X0216100Y0050900D01*
X0213400Y0053600D01*
X0126100Y0046400D02*
X0126500Y0035000D01*
X0061500Y0104000D02*
X0061300Y0104000D01*
X0060240Y0103760D01*
X0054100Y0310100D02*
X0053350Y0310276D01*
D29*
X0070100Y0345000D03*
X0081100Y0353300D03*
X0107200Y0350600D03*
X0163900Y0341600D03*
X0173800Y0341600D03*
X0173800Y0347000D03*
X0213400Y0341600D03*
X0320500Y0352400D03*
X0347500Y0326300D03*
X0353800Y0229100D03*
X0348400Y0217400D03*
X0343900Y0212900D03*
X0370900Y0185000D03*
X0379900Y0215600D03*
X0369100Y0130100D03*
X0349300Y0126500D03*
X0356500Y0101300D03*
X0349300Y0089600D03*
X0341200Y0077000D03*
X0348400Y0073400D03*
X0338700Y0065300D03*
X0360100Y0077000D03*
X0372700Y0084200D03*
X0303400Y0068900D03*
X0293500Y0053600D03*
X0276400Y0059000D03*
X0272200Y0066400D03*
X0262700Y0075200D03*
X0271900Y0081500D03*
X0260200Y0089600D03*
X0260200Y0095000D03*
X0237700Y0115700D03*
X0217000Y0104900D03*
X0217000Y0095000D03*
X0213400Y0091400D03*
X0224200Y0080600D03*
X0235500Y0072700D03*
X0246700Y0056300D03*
X0230500Y0050900D03*
X0223300Y0053600D03*
X0213400Y0053600D03*
X0190000Y0057200D03*
X0186400Y0081500D03*
X0197200Y0093200D03*
X0178300Y0104900D03*
X0174700Y0110300D03*
X0136000Y0102200D03*
X0127900Y0092300D03*
X0123400Y0095000D03*
X0110800Y0104900D03*
X0111700Y0122900D03*
X0079100Y0104900D03*
X0101800Y0082200D03*
X0131500Y0068000D03*
X0138700Y0055400D03*
X0142300Y0051800D03*
X0152200Y0050900D03*
X0159400Y0058100D03*
X0162100Y0050000D03*
X0152200Y0067100D03*
X0238600Y0153500D03*
X0245800Y0140900D03*
X0273700Y0213800D03*
X0274600Y0219200D03*
X0271000Y0222800D03*
X0282700Y0225500D03*
X0251200Y0223700D03*
X0251200Y0215600D03*
X0159400Y0203900D03*
X0100000Y0201200D03*
X0100000Y0195800D03*
X0078400Y0203900D03*
M02*
