G75*
%MOIN*%
%OFA0B0*%
%FSLAX25Y25*%
%IPPOS*%
%LPD*%
%AMOC8*
5,1,8,0,0,1.08239X$1,22.5*
%
%ADD10C,0.06200*%
%ADD11C,0.07000*%
%ADD12R,2.60000X0.35000*%
%ADD13OC8,0.06600*%
%ADD14OC8,0.06200*%
D10*
X0038900Y0110000D02*
X0044100Y0110000D01*
X0044100Y0120000D02*
X0038900Y0120000D01*
X0038900Y0130000D02*
X0044100Y0130000D01*
X0044100Y0140000D02*
X0038900Y0140000D01*
X0038900Y0150000D02*
X0044100Y0150000D01*
X0044100Y0160000D02*
X0038900Y0160000D01*
X0038900Y0170000D02*
X0044100Y0170000D01*
X0044100Y0180000D02*
X0038900Y0180000D01*
X0038900Y0190000D02*
X0044100Y0190000D01*
X0044100Y0200000D02*
X0038900Y0200000D01*
X0038900Y0210000D02*
X0044100Y0210000D01*
X0044100Y0220000D02*
X0038900Y0220000D01*
X0038900Y0240000D02*
X0044100Y0240000D01*
X0044100Y0250000D02*
X0038900Y0250000D01*
X0038900Y0260000D02*
X0044100Y0260000D01*
X0044100Y0270000D02*
X0038900Y0270000D01*
X0038900Y0280000D02*
X0044100Y0280000D01*
X0044100Y0290000D02*
X0038900Y0290000D01*
X0038900Y0300000D02*
X0044100Y0300000D01*
X0044100Y0310000D02*
X0038900Y0310000D01*
X0038900Y0320000D02*
X0044100Y0320000D01*
X0044100Y0330000D02*
X0038900Y0330000D01*
X0068900Y0330000D02*
X0074100Y0330000D01*
X0074100Y0320000D02*
X0068900Y0320000D01*
X0068900Y0310000D02*
X0074100Y0310000D01*
X0074100Y0300000D02*
X0068900Y0300000D01*
X0068900Y0290000D02*
X0074100Y0290000D01*
X0074100Y0280000D02*
X0068900Y0280000D01*
X0068900Y0270000D02*
X0074100Y0270000D01*
X0074100Y0260000D02*
X0068900Y0260000D01*
X0068900Y0250000D02*
X0074100Y0250000D01*
X0074100Y0240000D02*
X0068900Y0240000D01*
X0068900Y0220000D02*
X0074100Y0220000D01*
X0074100Y0210000D02*
X0068900Y0210000D01*
X0068900Y0200000D02*
X0074100Y0200000D01*
X0074100Y0190000D02*
X0068900Y0190000D01*
X0068900Y0180000D02*
X0074100Y0180000D01*
X0074100Y0170000D02*
X0068900Y0170000D01*
X0068900Y0160000D02*
X0074100Y0160000D01*
X0074100Y0150000D02*
X0068900Y0150000D01*
X0068900Y0140000D02*
X0074100Y0140000D01*
X0074100Y0130000D02*
X0068900Y0130000D01*
X0068900Y0120000D02*
X0074100Y0120000D01*
X0074100Y0110000D02*
X0068900Y0110000D01*
X0133900Y0110000D02*
X0139100Y0110000D01*
X0139100Y0120000D02*
X0133900Y0120000D01*
X0133900Y0130000D02*
X0139100Y0130000D01*
X0139100Y0140000D02*
X0133900Y0140000D01*
X0133900Y0150000D02*
X0139100Y0150000D01*
X0139100Y0160000D02*
X0133900Y0160000D01*
X0133900Y0170000D02*
X0139100Y0170000D01*
X0139100Y0180000D02*
X0133900Y0180000D01*
X0133900Y0190000D02*
X0139100Y0190000D01*
X0139100Y0200000D02*
X0133900Y0200000D01*
X0133900Y0210000D02*
X0139100Y0210000D01*
X0139100Y0220000D02*
X0133900Y0220000D01*
X0133900Y0240000D02*
X0139100Y0240000D01*
X0139100Y0250000D02*
X0133900Y0250000D01*
X0133900Y0260000D02*
X0139100Y0260000D01*
X0139100Y0270000D02*
X0133900Y0270000D01*
X0133900Y0280000D02*
X0139100Y0280000D01*
X0139100Y0290000D02*
X0133900Y0290000D01*
X0133900Y0300000D02*
X0139100Y0300000D01*
X0139100Y0310000D02*
X0133900Y0310000D01*
X0133900Y0320000D02*
X0139100Y0320000D01*
X0139100Y0330000D02*
X0133900Y0330000D01*
X0163900Y0330000D02*
X0169100Y0330000D01*
X0169100Y0320000D02*
X0163900Y0320000D01*
X0163900Y0310000D02*
X0169100Y0310000D01*
X0169100Y0300000D02*
X0163900Y0300000D01*
X0163900Y0290000D02*
X0169100Y0290000D01*
X0169100Y0280000D02*
X0163900Y0280000D01*
X0163900Y0270000D02*
X0169100Y0270000D01*
X0169100Y0260000D02*
X0163900Y0260000D01*
X0163900Y0250000D02*
X0169100Y0250000D01*
X0169100Y0240000D02*
X0163900Y0240000D01*
X0163900Y0220000D02*
X0169100Y0220000D01*
X0169100Y0210000D02*
X0163900Y0210000D01*
X0163900Y0200000D02*
X0169100Y0200000D01*
X0169100Y0190000D02*
X0163900Y0190000D01*
X0163900Y0180000D02*
X0169100Y0180000D01*
X0169100Y0170000D02*
X0163900Y0170000D01*
X0163900Y0160000D02*
X0169100Y0160000D01*
X0169100Y0150000D02*
X0163900Y0150000D01*
X0163900Y0140000D02*
X0169100Y0140000D01*
X0169100Y0130000D02*
X0163900Y0130000D01*
X0163900Y0120000D02*
X0169100Y0120000D01*
X0169100Y0110000D02*
X0163900Y0110000D01*
X0228900Y0110000D02*
X0234100Y0110000D01*
X0234100Y0120000D02*
X0228900Y0120000D01*
X0228900Y0130000D02*
X0234100Y0130000D01*
X0234100Y0140000D02*
X0228900Y0140000D01*
X0228900Y0150000D02*
X0234100Y0150000D01*
X0234100Y0160000D02*
X0228900Y0160000D01*
X0228900Y0170000D02*
X0234100Y0170000D01*
X0234100Y0180000D02*
X0228900Y0180000D01*
X0228900Y0190000D02*
X0234100Y0190000D01*
X0234100Y0200000D02*
X0228900Y0200000D01*
X0228900Y0210000D02*
X0234100Y0210000D01*
X0234100Y0220000D02*
X0228900Y0220000D01*
X0228900Y0240000D02*
X0234100Y0240000D01*
X0234100Y0250000D02*
X0228900Y0250000D01*
X0228900Y0260000D02*
X0234100Y0260000D01*
X0234100Y0270000D02*
X0228900Y0270000D01*
X0228900Y0280000D02*
X0234100Y0280000D01*
X0234100Y0290000D02*
X0228900Y0290000D01*
X0228900Y0300000D02*
X0234100Y0300000D01*
X0234100Y0310000D02*
X0228900Y0310000D01*
X0228900Y0320000D02*
X0234100Y0320000D01*
X0234100Y0330000D02*
X0228900Y0330000D01*
X0258900Y0330000D02*
X0264100Y0330000D01*
X0264100Y0320000D02*
X0258900Y0320000D01*
X0258900Y0310000D02*
X0264100Y0310000D01*
X0264100Y0300000D02*
X0258900Y0300000D01*
X0258900Y0290000D02*
X0264100Y0290000D01*
X0264100Y0280000D02*
X0258900Y0280000D01*
X0258900Y0270000D02*
X0264100Y0270000D01*
X0264100Y0260000D02*
X0258900Y0260000D01*
X0258900Y0250000D02*
X0264100Y0250000D01*
X0264100Y0240000D02*
X0258900Y0240000D01*
X0258900Y0220000D02*
X0264100Y0220000D01*
X0264100Y0210000D02*
X0258900Y0210000D01*
X0258900Y0200000D02*
X0264100Y0200000D01*
X0264100Y0190000D02*
X0258900Y0190000D01*
X0258900Y0180000D02*
X0264100Y0180000D01*
X0264100Y0170000D02*
X0258900Y0170000D01*
X0258900Y0160000D02*
X0264100Y0160000D01*
X0264100Y0150000D02*
X0258900Y0150000D01*
X0258900Y0140000D02*
X0264100Y0140000D01*
X0264100Y0130000D02*
X0258900Y0130000D01*
X0258900Y0120000D02*
X0264100Y0120000D01*
X0264100Y0110000D02*
X0258900Y0110000D01*
X0323900Y0110000D02*
X0329100Y0110000D01*
X0329100Y0120000D02*
X0323900Y0120000D01*
X0323900Y0130000D02*
X0329100Y0130000D01*
X0329100Y0140000D02*
X0323900Y0140000D01*
X0323900Y0150000D02*
X0329100Y0150000D01*
X0329100Y0160000D02*
X0323900Y0160000D01*
X0323900Y0170000D02*
X0329100Y0170000D01*
X0329100Y0180000D02*
X0323900Y0180000D01*
X0323900Y0190000D02*
X0329100Y0190000D01*
X0329100Y0200000D02*
X0323900Y0200000D01*
X0323900Y0210000D02*
X0329100Y0210000D01*
X0329100Y0220000D02*
X0323900Y0220000D01*
X0323900Y0240000D02*
X0329100Y0240000D01*
X0329100Y0250000D02*
X0323900Y0250000D01*
X0323900Y0260000D02*
X0329100Y0260000D01*
X0329100Y0270000D02*
X0323900Y0270000D01*
X0323900Y0280000D02*
X0329100Y0280000D01*
X0329100Y0290000D02*
X0323900Y0290000D01*
X0323900Y0300000D02*
X0329100Y0300000D01*
X0329100Y0310000D02*
X0323900Y0310000D01*
X0323900Y0320000D02*
X0329100Y0320000D01*
X0329100Y0330000D02*
X0323900Y0330000D01*
X0353900Y0330000D02*
X0359100Y0330000D01*
X0359100Y0320000D02*
X0353900Y0320000D01*
X0353900Y0310000D02*
X0359100Y0310000D01*
X0359100Y0300000D02*
X0353900Y0300000D01*
X0353900Y0290000D02*
X0359100Y0290000D01*
X0359100Y0280000D02*
X0353900Y0280000D01*
X0353900Y0270000D02*
X0359100Y0270000D01*
X0359100Y0260000D02*
X0353900Y0260000D01*
X0353900Y0250000D02*
X0359100Y0250000D01*
X0359100Y0240000D02*
X0353900Y0240000D01*
X0353900Y0220000D02*
X0359100Y0220000D01*
X0359100Y0210000D02*
X0353900Y0210000D01*
X0353900Y0200000D02*
X0359100Y0200000D01*
X0359100Y0190000D02*
X0353900Y0190000D01*
X0353900Y0180000D02*
X0359100Y0180000D01*
X0359100Y0170000D02*
X0353900Y0170000D01*
X0353900Y0160000D02*
X0359100Y0160000D01*
X0359100Y0150000D02*
X0353900Y0150000D01*
X0353900Y0140000D02*
X0359100Y0140000D01*
X0359100Y0130000D02*
X0353900Y0130000D01*
X0353900Y0120000D02*
X0359100Y0120000D01*
X0359100Y0110000D02*
X0353900Y0110000D01*
D11*
X0316500Y0360000D03*
X0306500Y0360000D03*
X0296500Y0360000D03*
X0286500Y0360000D03*
X0276500Y0360000D03*
X0266500Y0360000D03*
X0256500Y0360000D03*
X0246500Y0360000D03*
X0236500Y0360000D03*
X0226500Y0360000D03*
X0216500Y0360000D03*
X0206500Y0360000D03*
X0196500Y0360000D03*
X0186500Y0360000D03*
X0176500Y0360000D03*
X0166500Y0360000D03*
X0156500Y0360000D03*
X0146500Y0360000D03*
X0136500Y0360000D03*
X0126500Y0360000D03*
X0116500Y0360000D03*
X0106500Y0360000D03*
X0096500Y0360000D03*
X0086500Y0360000D03*
X0076500Y0360000D03*
X0076500Y0380000D03*
X0086500Y0380000D03*
X0096500Y0380000D03*
X0106500Y0380000D03*
X0116500Y0380000D03*
X0126500Y0380000D03*
X0136500Y0380000D03*
X0146500Y0380000D03*
X0156500Y0380000D03*
X0166500Y0380000D03*
X0176500Y0380000D03*
X0186500Y0380000D03*
X0196500Y0380000D03*
X0206500Y0380000D03*
X0216500Y0380000D03*
X0226500Y0380000D03*
X0236500Y0380000D03*
X0246500Y0380000D03*
X0256500Y0380000D03*
X0266500Y0380000D03*
X0276500Y0380000D03*
X0286500Y0380000D03*
X0296500Y0380000D03*
X0306500Y0380000D03*
X0316500Y0380000D03*
D12*
X0216500Y0022500D03*
D13*
X0049000Y0347500D03*
X0049000Y0357500D03*
X0049000Y0367500D03*
X0049000Y0377500D03*
X0049000Y0387500D03*
X0039000Y0387500D03*
X0039000Y0377500D03*
X0039000Y0367500D03*
X0039000Y0357500D03*
X0039000Y0347500D03*
D14*
X0359000Y0367500D03*
X0369000Y0367500D03*
M02*
