%
M48
M72
T01C0.02362
T02C0.03150
T03C0.03600
%
T01
X149000Y79000
T02
X149000Y59000
X149000Y49000
X149000Y39000
X149000Y29000
X186500Y26500
X186500Y16500
X186500Y36500
X186500Y46500
X186500Y69000
X186500Y79000
X186500Y89000
X186500Y99000
X149000Y109000
X149000Y119000
X149000Y129000
X149000Y139000
X149000Y189000
X149000Y199000
X149000Y209000
X149000Y219000
X21500Y219000
X21500Y209000
X21500Y199000
X21500Y189000
X21500Y139000
X21500Y129000
X21500Y119000
X21500Y109000
X21500Y59000
X21500Y49000
X21500Y39000
X21500Y29000
T03
X21500Y29000
X21500Y39000
X21500Y49000
X21500Y59000
X21500Y109000
X21500Y119000
X21500Y129000
X21500Y139000
X21500Y189000
X21500Y199000
X21500Y209000
X21500Y219000
X149000Y219000
X149000Y209000
X149000Y199000
X149000Y189000
X149000Y139000
X149000Y129000
X149000Y119000
X149000Y109000
X149000Y59000
X149000Y49000
X149000Y39000
X149000Y29000
X211500Y119000
X211500Y129000
X211500Y139000
X211500Y149000
X211500Y159000
X221500Y159000
X221500Y149000
X221500Y139000
X221500Y129000
X221500Y119000
M30
