G75*
%MOIN*%
%OFA0B0*%
%FSLAX25Y25*%
%IPPOS*%
%LPD*%
%AMOC8*
5,1,8,0,0,1.08239X$1,22.5*
%
%ADD10R,0.05150X0.05150*%
%ADD11C,0.05150*%
%ADD12OC8,0.05600*%
%ADD13C,0.05600*%
%ADD14C,0.03000*%
%ADD15C,0.04000*%
%ADD16C,0.02500*%
%ADD17C,0.03962*%
D10*
X0021500Y0029000D03*
X0021500Y0039000D03*
X0021500Y0049000D03*
X0021500Y0059000D03*
X0021500Y0109000D03*
X0021500Y0119000D03*
X0021500Y0129000D03*
X0021500Y0139000D03*
X0021500Y0189000D03*
X0021500Y0199000D03*
X0021500Y0209000D03*
X0021500Y0219000D03*
X0149000Y0219000D03*
X0149000Y0209000D03*
X0149000Y0199000D03*
X0149000Y0189000D03*
X0149000Y0139000D03*
X0149000Y0129000D03*
X0149000Y0119000D03*
X0149000Y0109000D03*
X0149000Y0059000D03*
X0149000Y0049000D03*
X0149000Y0039000D03*
X0149000Y0029000D03*
D11*
X0186500Y0026500D03*
X0186500Y0016500D03*
X0186500Y0036500D03*
X0186500Y0046500D03*
X0186500Y0069000D03*
X0186500Y0079000D03*
X0186500Y0089000D03*
X0186500Y0099000D03*
D12*
X0211500Y0119000D03*
X0211500Y0129000D03*
X0211500Y0139000D03*
X0211500Y0149000D03*
X0211500Y0159000D03*
X0221500Y0159000D03*
X0221500Y0149000D03*
X0221500Y0139000D03*
X0221500Y0129000D03*
X0221500Y0119000D03*
D13*
X0024300Y0029000D02*
X0018700Y0029000D01*
X0018700Y0039000D02*
X0024300Y0039000D01*
X0024300Y0049000D02*
X0018700Y0049000D01*
X0018700Y0059000D02*
X0024300Y0059000D01*
X0024300Y0109000D02*
X0018700Y0109000D01*
X0018700Y0119000D02*
X0024300Y0119000D01*
X0024300Y0129000D02*
X0018700Y0129000D01*
X0018700Y0139000D02*
X0024300Y0139000D01*
X0024300Y0189000D02*
X0018700Y0189000D01*
X0018700Y0199000D02*
X0024300Y0199000D01*
X0024300Y0209000D02*
X0018700Y0209000D01*
X0018700Y0219000D02*
X0024300Y0219000D01*
X0146200Y0219000D02*
X0151800Y0219000D01*
X0151800Y0209000D02*
X0146200Y0209000D01*
X0146200Y0199000D02*
X0151800Y0199000D01*
X0151800Y0189000D02*
X0146200Y0189000D01*
X0146200Y0139000D02*
X0151800Y0139000D01*
X0151800Y0129000D02*
X0146200Y0129000D01*
X0146200Y0119000D02*
X0151800Y0119000D01*
X0151800Y0109000D02*
X0146200Y0109000D01*
X0146200Y0059000D02*
X0151800Y0059000D01*
X0151800Y0049000D02*
X0146200Y0049000D01*
X0146200Y0039000D02*
X0151800Y0039000D01*
X0151800Y0029000D02*
X0146200Y0029000D01*
D14*
X0149000Y0029000D02*
X0141500Y0029000D01*
X0134000Y0036500D01*
X0134000Y0064000D01*
X0149000Y0079000D01*
X0186500Y0089000D02*
X0211500Y0114000D01*
X0211500Y0119000D01*
X0211500Y0129000D02*
X0204000Y0129000D01*
X0186500Y0111500D01*
X0186500Y0099000D01*
X0196500Y0086500D02*
X0196500Y0026500D01*
X0186500Y0016500D01*
X0196500Y0086500D02*
X0221500Y0111500D01*
X0221500Y0119000D01*
X0221500Y0129000D02*
X0229000Y0136500D01*
X0229000Y0141500D01*
X0221500Y0149000D01*
X0216500Y0144000D01*
X0206500Y0144000D01*
X0196500Y0154000D01*
X0051500Y0154000D01*
X0036500Y0139000D01*
X0021500Y0139000D01*
X0014000Y0139000D01*
X0009000Y0144000D01*
X0009000Y0066500D01*
X0016500Y0059000D01*
X0021500Y0059000D01*
X0021500Y0109000D02*
X0026500Y0109000D01*
X0034000Y0116500D01*
X0034000Y0129000D01*
X0054000Y0149000D01*
X0191500Y0149000D01*
X0206500Y0134000D01*
X0216500Y0134000D01*
X0221500Y0139000D01*
X0021500Y0219000D02*
X0014000Y0219000D01*
X0009000Y0214000D01*
X0009000Y0144000D01*
D15*
X0051500Y0159000D02*
X0021500Y0189000D01*
X0051500Y0159000D02*
X0201500Y0159000D01*
D16*
X0206500Y0154000D01*
X0216500Y0154000D01*
X0221500Y0159000D01*
X0216500Y0164000D01*
X0206500Y0164000D01*
X0201500Y0159000D01*
D17*
X0149000Y0079000D03*
M02*
