G75*
%MOIN*%
%OFA0B0*%
%FSLAX25Y25*%
%IPPOS*%
%LPD*%
%AMOC8*
5,1,8,0,0,1.08239X$1,22.5*
%
%ADD10C,0.00400*%
%ADD11C,0.01000*%
%ADD12C,0.04000*%
%ADD13C,0.00500*%
%ADD14C,0.00800*%
%ADD15C,0.00600*%
%ADD16R,0.02400X0.02400*%
D10*
X0037517Y0012200D02*
X0039569Y0012200D01*
X0040253Y0012884D01*
X0040253Y0015620D01*
X0039569Y0016304D01*
X0037517Y0016304D01*
X0037517Y0012200D01*
X0041661Y0012884D02*
X0042345Y0012200D01*
X0044397Y0012200D01*
X0044397Y0014252D01*
X0043713Y0014936D01*
X0042345Y0014936D01*
X0042345Y0013568D02*
X0044397Y0013568D01*
X0045804Y0012884D02*
X0046488Y0012200D01*
X0048540Y0012200D01*
X0048540Y0014936D01*
X0049948Y0014252D02*
X0049948Y0012884D01*
X0050632Y0012200D01*
X0052684Y0012200D01*
X0052684Y0011516D02*
X0052684Y0014936D01*
X0050632Y0014936D01*
X0049948Y0014252D01*
X0051316Y0010832D02*
X0052000Y0010832D01*
X0052684Y0011516D01*
X0054092Y0012200D02*
X0054092Y0016304D01*
X0054775Y0014936D02*
X0054092Y0014252D01*
X0054775Y0014936D02*
X0056143Y0014936D01*
X0056827Y0014252D01*
X0056827Y0012200D01*
X0058919Y0012884D02*
X0059603Y0012200D01*
X0058919Y0012884D02*
X0058919Y0015620D01*
X0058235Y0014936D02*
X0059603Y0014936D01*
X0060997Y0014252D02*
X0061681Y0014936D01*
X0063049Y0014936D01*
X0063733Y0014252D01*
X0063733Y0013568D01*
X0060997Y0013568D01*
X0060997Y0012884D02*
X0060997Y0014252D01*
X0060997Y0012884D02*
X0061681Y0012200D01*
X0063049Y0012200D01*
X0065141Y0012200D02*
X0065141Y0014936D01*
X0066509Y0014936D02*
X0067193Y0014936D01*
X0066509Y0014936D02*
X0065141Y0013568D01*
X0068594Y0014936D02*
X0070646Y0014936D01*
X0071330Y0014252D01*
X0071330Y0012884D01*
X0070646Y0012200D01*
X0068594Y0012200D01*
X0068594Y0016304D01*
X0072737Y0014252D02*
X0072737Y0012884D01*
X0073421Y0012200D01*
X0074789Y0012200D01*
X0075473Y0012884D01*
X0075473Y0014252D01*
X0074789Y0014936D01*
X0073421Y0014936D01*
X0072737Y0014252D01*
X0076881Y0012884D02*
X0077565Y0012200D01*
X0079617Y0012200D01*
X0079617Y0014252D01*
X0078933Y0014936D01*
X0077565Y0014936D01*
X0077565Y0013568D02*
X0079617Y0013568D01*
X0081025Y0013568D02*
X0082392Y0014936D01*
X0083076Y0014936D01*
X0084477Y0014252D02*
X0085161Y0014936D01*
X0087213Y0014936D01*
X0087213Y0016304D02*
X0087213Y0012200D01*
X0085161Y0012200D01*
X0084477Y0012884D01*
X0084477Y0014252D01*
X0081025Y0014936D02*
X0081025Y0012200D01*
X0077565Y0013568D02*
X0076881Y0012884D01*
X0092765Y0013568D02*
X0094132Y0012200D01*
X0095500Y0013568D01*
X0095500Y0016304D01*
X0096908Y0014252D02*
X0097592Y0014936D01*
X0098960Y0014936D01*
X0099644Y0014252D01*
X0099644Y0013568D01*
X0096908Y0013568D01*
X0096908Y0012884D02*
X0096908Y0014252D01*
X0096908Y0012884D02*
X0097592Y0012200D01*
X0098960Y0012200D01*
X0101052Y0012200D02*
X0101052Y0014936D01*
X0102419Y0014936D02*
X0101052Y0013568D01*
X0102419Y0014936D02*
X0103103Y0014936D01*
X0104505Y0014252D02*
X0105188Y0014936D01*
X0107240Y0014936D01*
X0108648Y0014936D02*
X0109332Y0014936D01*
X0109332Y0012200D01*
X0108648Y0012200D02*
X0110016Y0012200D01*
X0111410Y0012884D02*
X0112094Y0012200D01*
X0113462Y0012200D01*
X0114146Y0012884D01*
X0114146Y0014252D01*
X0113462Y0014936D01*
X0112094Y0014936D01*
X0111410Y0014252D01*
X0111410Y0012884D01*
X0109332Y0016304D02*
X0109332Y0016987D01*
X0106556Y0013568D02*
X0105188Y0013568D01*
X0104505Y0014252D01*
X0104505Y0012200D02*
X0106556Y0012200D01*
X0107240Y0012884D01*
X0106556Y0013568D01*
X0115554Y0012200D02*
X0115554Y0014936D01*
X0117606Y0014936D01*
X0118290Y0014252D01*
X0118290Y0012200D01*
X0123841Y0012200D02*
X0126577Y0012200D01*
X0125209Y0012200D02*
X0125209Y0016304D01*
X0123841Y0014936D01*
X0127985Y0012884D02*
X0128669Y0012884D01*
X0128669Y0012200D01*
X0127985Y0012200D01*
X0127985Y0012884D01*
X0130056Y0012884D02*
X0130740Y0012200D01*
X0132108Y0012200D01*
X0132792Y0012884D01*
X0132792Y0015620D01*
X0130056Y0012884D01*
X0130056Y0015620D01*
X0130740Y0016304D01*
X0132108Y0016304D01*
X0132792Y0015620D01*
X0092765Y0016304D02*
X0092765Y0013568D01*
X0045804Y0012884D02*
X0045804Y0014936D01*
X0042345Y0013568D02*
X0041661Y0012884D01*
D11*
X0004000Y0001500D02*
X0001500Y0004000D01*
X0001500Y0244000D01*
X0004000Y0246500D01*
X0169000Y0246500D01*
X0171500Y0244000D01*
X0171500Y0169000D01*
X0174000Y0166500D01*
X0234000Y0166500D01*
X0236500Y0164000D01*
X0236500Y0004000D01*
X0234000Y0001500D01*
X0004000Y0001500D01*
X0179000Y0116500D02*
X0179000Y0159000D01*
X0199000Y0139000D01*
X0199000Y0136500D01*
X0179000Y0116500D01*
X0179000Y0116992D02*
X0179492Y0116992D01*
X0179000Y0117991D02*
X0180491Y0117991D01*
X0181489Y0118989D02*
X0179000Y0118989D01*
X0179000Y0119988D02*
X0182488Y0119988D01*
X0183486Y0120986D02*
X0179000Y0120986D01*
X0179000Y0121985D02*
X0184485Y0121985D01*
X0185483Y0122983D02*
X0179000Y0122983D01*
X0179000Y0123982D02*
X0186482Y0123982D01*
X0187480Y0124980D02*
X0179000Y0124980D01*
X0179000Y0125979D02*
X0188479Y0125979D01*
X0189477Y0126977D02*
X0179000Y0126977D01*
X0179000Y0127976D02*
X0190476Y0127976D01*
X0191474Y0128974D02*
X0179000Y0128974D01*
X0179000Y0129973D02*
X0192473Y0129973D01*
X0193472Y0130972D02*
X0179000Y0130972D01*
X0179000Y0131970D02*
X0194470Y0131970D01*
X0195469Y0132969D02*
X0179000Y0132969D01*
X0179000Y0133967D02*
X0196467Y0133967D01*
X0197466Y0134966D02*
X0179000Y0134966D01*
X0179000Y0135964D02*
X0198464Y0135964D01*
X0199000Y0136963D02*
X0179000Y0136963D01*
X0179000Y0137961D02*
X0199000Y0137961D01*
X0199000Y0138960D02*
X0179000Y0138960D01*
X0179000Y0139958D02*
X0198042Y0139958D01*
X0197043Y0140957D02*
X0179000Y0140957D01*
X0179000Y0141955D02*
X0196045Y0141955D01*
X0195046Y0142954D02*
X0179000Y0142954D01*
X0179000Y0143952D02*
X0194048Y0143952D01*
X0193049Y0144951D02*
X0179000Y0144951D01*
X0179000Y0145949D02*
X0192051Y0145949D01*
X0191052Y0146948D02*
X0179000Y0146948D01*
X0179000Y0147946D02*
X0190054Y0147946D01*
X0189055Y0148945D02*
X0179000Y0148945D01*
X0179000Y0149943D02*
X0188057Y0149943D01*
X0187058Y0150942D02*
X0179000Y0150942D01*
X0179000Y0151940D02*
X0186060Y0151940D01*
X0185061Y0152939D02*
X0179000Y0152939D01*
X0179000Y0153937D02*
X0184063Y0153937D01*
X0183064Y0154936D02*
X0179000Y0154936D01*
X0179000Y0155934D02*
X0182066Y0155934D01*
X0181067Y0156933D02*
X0179000Y0156933D01*
X0179000Y0157931D02*
X0180069Y0157931D01*
X0179070Y0158930D02*
X0179000Y0158930D01*
X0191500Y0106500D02*
X0191500Y0061500D01*
X0231500Y0061500D01*
X0234000Y0064000D01*
X0234000Y0104000D01*
X0231500Y0106500D01*
X0191500Y0106500D01*
X0191500Y0106009D02*
X0231991Y0106009D01*
X0232990Y0105010D02*
X0191500Y0105010D01*
X0191500Y0104012D02*
X0233988Y0104012D01*
X0234000Y0103013D02*
X0191500Y0103013D01*
X0191500Y0102015D02*
X0234000Y0102015D01*
X0234000Y0101016D02*
X0191500Y0101016D01*
X0191500Y0100018D02*
X0234000Y0100018D01*
X0234000Y0099019D02*
X0191500Y0099019D01*
X0191500Y0098021D02*
X0234000Y0098021D01*
X0234000Y0097022D02*
X0191500Y0097022D01*
X0191500Y0096024D02*
X0234000Y0096024D01*
X0234000Y0095025D02*
X0191500Y0095025D01*
X0191500Y0094027D02*
X0234000Y0094027D01*
X0234000Y0093028D02*
X0191500Y0093028D01*
X0191500Y0092030D02*
X0234000Y0092030D01*
X0234000Y0091031D02*
X0191500Y0091031D01*
X0191500Y0090033D02*
X0234000Y0090033D01*
X0234000Y0089034D02*
X0191500Y0089034D01*
X0191500Y0088036D02*
X0234000Y0088036D01*
X0234000Y0087037D02*
X0191500Y0087037D01*
X0191500Y0086039D02*
X0234000Y0086039D01*
X0234000Y0085040D02*
X0191500Y0085040D01*
X0191500Y0084041D02*
X0234000Y0084041D01*
X0234000Y0083043D02*
X0191500Y0083043D01*
X0191500Y0082044D02*
X0234000Y0082044D01*
X0234000Y0081046D02*
X0191500Y0081046D01*
X0191500Y0080047D02*
X0234000Y0080047D01*
X0234000Y0079049D02*
X0191500Y0079049D01*
X0191500Y0078050D02*
X0234000Y0078050D01*
X0234000Y0077052D02*
X0191500Y0077052D01*
X0191500Y0076053D02*
X0234000Y0076053D01*
X0234000Y0075055D02*
X0191500Y0075055D01*
X0191500Y0074056D02*
X0234000Y0074056D01*
X0234000Y0073058D02*
X0191500Y0073058D01*
X0191500Y0072059D02*
X0234000Y0072059D01*
X0234000Y0071061D02*
X0191500Y0071061D01*
X0191500Y0070062D02*
X0234000Y0070062D01*
X0234000Y0069064D02*
X0191500Y0069064D01*
X0191500Y0068065D02*
X0234000Y0068065D01*
X0234000Y0067067D02*
X0191500Y0067067D01*
X0191500Y0066068D02*
X0234000Y0066068D01*
X0234000Y0065070D02*
X0191500Y0065070D01*
X0191500Y0064071D02*
X0234000Y0064071D01*
X0233073Y0063073D02*
X0191500Y0063073D01*
X0191500Y0062074D02*
X0232074Y0062074D01*
X0231500Y0054000D02*
X0234000Y0051500D01*
X0234000Y0011500D01*
X0231500Y0009000D01*
X0191500Y0009000D01*
X0191500Y0054000D01*
X0231500Y0054000D01*
X0232412Y0053088D02*
X0191500Y0053088D01*
X0191500Y0052089D02*
X0233411Y0052089D01*
X0234000Y0051091D02*
X0191500Y0051091D01*
X0191500Y0050092D02*
X0234000Y0050092D01*
X0234000Y0049094D02*
X0191500Y0049094D01*
X0191500Y0048095D02*
X0234000Y0048095D01*
X0234000Y0047097D02*
X0191500Y0047097D01*
X0191500Y0046098D02*
X0234000Y0046098D01*
X0234000Y0045100D02*
X0191500Y0045100D01*
X0191500Y0044101D02*
X0234000Y0044101D01*
X0234000Y0043103D02*
X0191500Y0043103D01*
X0191500Y0042104D02*
X0234000Y0042104D01*
X0234000Y0041105D02*
X0191500Y0041105D01*
X0191500Y0040107D02*
X0234000Y0040107D01*
X0234000Y0039108D02*
X0191500Y0039108D01*
X0191500Y0038110D02*
X0234000Y0038110D01*
X0234000Y0037111D02*
X0191500Y0037111D01*
X0191500Y0036113D02*
X0234000Y0036113D01*
X0234000Y0035114D02*
X0191500Y0035114D01*
X0191500Y0034116D02*
X0234000Y0034116D01*
X0234000Y0033117D02*
X0191500Y0033117D01*
X0191500Y0032119D02*
X0234000Y0032119D01*
X0234000Y0031120D02*
X0191500Y0031120D01*
X0191500Y0030122D02*
X0234000Y0030122D01*
X0234000Y0029123D02*
X0191500Y0029123D01*
X0191500Y0028125D02*
X0234000Y0028125D01*
X0234000Y0027126D02*
X0191500Y0027126D01*
X0191500Y0026128D02*
X0234000Y0026128D01*
X0234000Y0025129D02*
X0191500Y0025129D01*
X0191500Y0024131D02*
X0234000Y0024131D01*
X0234000Y0023132D02*
X0191500Y0023132D01*
X0191500Y0022134D02*
X0234000Y0022134D01*
X0234000Y0021135D02*
X0191500Y0021135D01*
X0191500Y0020137D02*
X0234000Y0020137D01*
X0234000Y0019138D02*
X0191500Y0019138D01*
X0191500Y0018140D02*
X0234000Y0018140D01*
X0234000Y0017141D02*
X0191500Y0017141D01*
X0191500Y0016143D02*
X0234000Y0016143D01*
X0234000Y0015144D02*
X0191500Y0015144D01*
X0191500Y0014146D02*
X0234000Y0014146D01*
X0234000Y0013147D02*
X0191500Y0013147D01*
X0191500Y0012149D02*
X0234000Y0012149D01*
X0233650Y0011150D02*
X0191500Y0011150D01*
X0191500Y0010152D02*
X0232652Y0010152D01*
X0231653Y0009153D02*
X0191500Y0009153D01*
D12*
X0179000Y0116500D02*
X0179000Y0161500D01*
X0199000Y0139000D01*
X0179000Y0116500D01*
D13*
X0169000Y0096500D02*
X0164000Y0096500D01*
X0164000Y0151500D01*
X0169000Y0151500D01*
X0169000Y0161500D01*
X0009000Y0161500D01*
X0006500Y0159000D01*
X0006500Y0089000D01*
X0009000Y0086500D01*
X0169000Y0086500D01*
X0169000Y0096500D01*
X0169000Y0081500D02*
X0169000Y0071500D01*
X0164000Y0071500D01*
X0164000Y0016500D01*
X0169000Y0016500D01*
X0169000Y0006500D01*
X0009000Y0006500D01*
X0006500Y0009000D01*
X0006500Y0079000D01*
X0009000Y0081500D01*
X0169000Y0081500D01*
X0169000Y0166500D02*
X0009000Y0166500D01*
X0006500Y0169000D01*
X0006500Y0239000D01*
X0009000Y0241500D01*
X0169000Y0241500D01*
X0169000Y0231500D01*
X0164000Y0231500D01*
X0164000Y0176500D01*
X0169000Y0176500D01*
X0169000Y0166500D01*
D14*
X0172130Y0106638D02*
X0191028Y0106638D01*
X0191028Y0061362D01*
X0172130Y0061362D01*
X0172130Y0106638D01*
X0172130Y0054138D02*
X0191028Y0054138D01*
X0191028Y0008862D01*
X0172130Y0008862D01*
X0172130Y0054138D01*
D15*
X0154000Y0055000D02*
X0153000Y0054000D01*
X0154000Y0053000D01*
X0154000Y0045000D01*
X0153000Y0044000D01*
X0154000Y0043000D01*
X0154000Y0035000D01*
X0153000Y0034000D01*
X0154000Y0033000D01*
X0154000Y0025000D01*
X0153000Y0024000D01*
X0145000Y0024000D01*
X0144000Y0025000D01*
X0144000Y0033000D01*
X0145000Y0034000D01*
X0144000Y0035000D01*
X0144000Y0043000D01*
X0145000Y0044000D01*
X0144000Y0045000D01*
X0144000Y0053000D01*
X0145000Y0054000D01*
X0144000Y0055000D01*
X0144000Y0063000D01*
X0145000Y0064000D01*
X0153000Y0064000D01*
X0154000Y0063000D01*
X0154000Y0055000D01*
X0153000Y0104000D02*
X0145000Y0104000D01*
X0144000Y0105000D01*
X0144000Y0113000D01*
X0145000Y0114000D01*
X0144000Y0115000D01*
X0144000Y0123000D01*
X0145000Y0124000D01*
X0144000Y0125000D01*
X0144000Y0133000D01*
X0145000Y0134000D01*
X0144000Y0135000D01*
X0144000Y0143000D01*
X0145000Y0144000D01*
X0153000Y0144000D01*
X0154000Y0143000D01*
X0154000Y0135000D01*
X0153000Y0134000D01*
X0154000Y0133000D01*
X0154000Y0125000D01*
X0153000Y0124000D01*
X0154000Y0123000D01*
X0154000Y0115000D01*
X0153000Y0114000D01*
X0154000Y0113000D01*
X0154000Y0105000D01*
X0153000Y0104000D01*
X0206500Y0115500D02*
X0206500Y0122500D01*
X0208000Y0124000D01*
X0206500Y0125500D01*
X0206500Y0132500D01*
X0208000Y0134000D01*
X0206500Y0135500D01*
X0206500Y0142500D01*
X0208000Y0144000D01*
X0206500Y0145500D01*
X0206500Y0152500D01*
X0208000Y0154000D01*
X0206500Y0155500D01*
X0206500Y0162500D01*
X0208000Y0164000D01*
X0225000Y0164000D01*
X0226500Y0162500D01*
X0226500Y0155500D01*
X0225000Y0154000D01*
X0226500Y0152500D01*
X0226500Y0145500D01*
X0225000Y0144000D01*
X0226500Y0142500D01*
X0226500Y0135500D01*
X0225000Y0134000D01*
X0226500Y0132500D01*
X0226500Y0125500D01*
X0225000Y0124000D01*
X0226500Y0122500D01*
X0226500Y0115500D01*
X0225000Y0114000D01*
X0208000Y0114000D01*
X0206500Y0115500D01*
X0153000Y0184000D02*
X0145000Y0184000D01*
X0144000Y0185000D01*
X0144000Y0193000D01*
X0145000Y0194000D01*
X0144000Y0195000D01*
X0144000Y0203000D01*
X0145000Y0204000D01*
X0144000Y0205000D01*
X0144000Y0213000D01*
X0145000Y0214000D01*
X0144000Y0215000D01*
X0144000Y0223000D01*
X0145000Y0224000D01*
X0153000Y0224000D01*
X0154000Y0223000D01*
X0154000Y0215000D01*
X0153000Y0214000D01*
X0154000Y0213000D01*
X0154000Y0205000D01*
X0153000Y0204000D01*
X0154000Y0203000D01*
X0154000Y0195000D01*
X0153000Y0194000D01*
X0154000Y0193000D01*
X0154000Y0185000D01*
X0153000Y0184000D01*
X0026500Y0185000D02*
X0026500Y0193000D01*
X0025500Y0194000D01*
X0026500Y0195000D01*
X0026500Y0203000D01*
X0025500Y0204000D01*
X0026500Y0205000D01*
X0026500Y0213000D01*
X0025500Y0214000D01*
X0026500Y0215000D01*
X0026500Y0223000D01*
X0025500Y0224000D01*
X0017500Y0224000D01*
X0016500Y0223000D01*
X0016500Y0215000D01*
X0017500Y0214000D01*
X0016500Y0213000D01*
X0016500Y0205000D01*
X0017500Y0204000D01*
X0016500Y0203000D01*
X0016500Y0195000D01*
X0017500Y0194000D01*
X0016500Y0193000D01*
X0016500Y0185000D01*
X0017500Y0184000D01*
X0025500Y0184000D01*
X0026500Y0185000D01*
X0025500Y0144000D02*
X0017500Y0144000D01*
X0016500Y0143000D01*
X0016500Y0135000D01*
X0017500Y0134000D01*
X0016500Y0133000D01*
X0016500Y0125000D01*
X0017500Y0124000D01*
X0016500Y0123000D01*
X0016500Y0115000D01*
X0017500Y0114000D01*
X0016500Y0113000D01*
X0016500Y0105000D01*
X0017500Y0104000D01*
X0025500Y0104000D01*
X0026500Y0105000D01*
X0026500Y0113000D01*
X0025500Y0114000D01*
X0026500Y0115000D01*
X0026500Y0123000D01*
X0025500Y0124000D01*
X0026500Y0125000D01*
X0026500Y0133000D01*
X0025500Y0134000D01*
X0026500Y0135000D01*
X0026500Y0143000D01*
X0025500Y0144000D01*
X0025500Y0064000D02*
X0017500Y0064000D01*
X0016500Y0063000D01*
X0016500Y0055000D01*
X0017500Y0054000D01*
X0016500Y0053000D01*
X0016500Y0045000D01*
X0017500Y0044000D01*
X0016500Y0043000D01*
X0016500Y0035000D01*
X0017500Y0034000D01*
X0016500Y0033000D01*
X0016500Y0025000D01*
X0017500Y0024000D01*
X0025500Y0024000D01*
X0026500Y0025000D01*
X0026500Y0033000D01*
X0025500Y0034000D01*
X0026500Y0035000D01*
X0026500Y0043000D01*
X0025500Y0044000D01*
X0026500Y0045000D01*
X0026500Y0053000D01*
X0025500Y0054000D01*
X0026500Y0055000D01*
X0026500Y0063000D01*
X0025500Y0064000D01*
D16*
X0021500Y0059000D03*
X0021500Y0049000D03*
X0021500Y0039000D03*
X0021500Y0029000D03*
X0021500Y0109000D03*
X0021500Y0119000D03*
X0021500Y0129000D03*
X0021500Y0139000D03*
X0021500Y0189000D03*
X0021500Y0199000D03*
X0021500Y0209000D03*
X0021500Y0219000D03*
X0149000Y0219000D03*
X0149000Y0209000D03*
X0149000Y0199000D03*
X0149000Y0189000D03*
X0149000Y0139000D03*
X0149000Y0129000D03*
X0149000Y0119000D03*
X0149000Y0109000D03*
X0149000Y0059000D03*
X0149000Y0049000D03*
X0149000Y0039000D03*
X0149000Y0029000D03*
X0211500Y0119000D03*
X0211500Y0129000D03*
X0211500Y0139000D03*
X0211500Y0149000D03*
X0211500Y0159000D03*
X0221500Y0159000D03*
X0221500Y0149000D03*
X0221500Y0139000D03*
X0221500Y0129000D03*
X0221500Y0119000D03*
M02*
