G75*
%MOIN*%
%OFA0B0*%
%FSLAX25Y25*%
%IPPOS*%
%LPD*%
%AMOC8*
5,1,8,0,0,1.08239X$1,22.5*
%
%ADD10C,0.01000*%
%ADD11C,0.01800*%
%ADD12C,0.00800*%
%ADD13C,0.00300*%
%ADD14C,0.04000*%
%ADD15C,0.00400*%
%ADD16R,0.35000X0.10000*%
%ADD17R,0.10000X0.35000*%
%ADD18C,0.00600*%
%ADD19R,0.05512X0.02559*%
%ADD20C,0.00500*%
%ADD21R,0.10236X0.02953*%
D10*
X0001500Y0004000D02*
X0004000Y0001500D01*
X0234000Y0001500D01*
X0236500Y0004000D01*
X0236500Y0164000D01*
X0234000Y0166500D01*
X0174000Y0166500D01*
X0171500Y0169000D01*
X0171500Y0244000D01*
X0169000Y0246500D01*
X0004000Y0246500D01*
X0001500Y0244000D01*
X0001500Y0004000D01*
X0179000Y0116500D02*
X0179000Y0159000D01*
X0199000Y0139000D01*
X0199000Y0136500D01*
X0179000Y0116500D01*
X0179000Y0116992D02*
X0179492Y0116992D01*
X0179000Y0117991D02*
X0180491Y0117991D01*
X0181489Y0118989D02*
X0179000Y0118989D01*
X0179000Y0119988D02*
X0182488Y0119988D01*
X0183486Y0120986D02*
X0179000Y0120986D01*
X0179000Y0121985D02*
X0184485Y0121985D01*
X0185483Y0122983D02*
X0179000Y0122983D01*
X0179000Y0123982D02*
X0186482Y0123982D01*
X0187480Y0124980D02*
X0179000Y0124980D01*
X0179000Y0125979D02*
X0188479Y0125979D01*
X0189477Y0126977D02*
X0179000Y0126977D01*
X0179000Y0127976D02*
X0190476Y0127976D01*
X0191474Y0128974D02*
X0179000Y0128974D01*
X0179000Y0129973D02*
X0192473Y0129973D01*
X0193472Y0130972D02*
X0179000Y0130972D01*
X0179000Y0131970D02*
X0194470Y0131970D01*
X0195469Y0132969D02*
X0179000Y0132969D01*
X0179000Y0133967D02*
X0196467Y0133967D01*
X0197466Y0134966D02*
X0179000Y0134966D01*
X0179000Y0135964D02*
X0198464Y0135964D01*
X0199000Y0136963D02*
X0179000Y0136963D01*
X0179000Y0137961D02*
X0199000Y0137961D01*
X0199000Y0138960D02*
X0179000Y0138960D01*
X0179000Y0139958D02*
X0198042Y0139958D01*
X0197043Y0140957D02*
X0179000Y0140957D01*
X0179000Y0141955D02*
X0196045Y0141955D01*
X0195046Y0142954D02*
X0179000Y0142954D01*
X0179000Y0143952D02*
X0194048Y0143952D01*
X0193049Y0144951D02*
X0179000Y0144951D01*
X0179000Y0145949D02*
X0192051Y0145949D01*
X0191052Y0146948D02*
X0179000Y0146948D01*
X0179000Y0147946D02*
X0190054Y0147946D01*
X0189055Y0148945D02*
X0179000Y0148945D01*
X0179000Y0149943D02*
X0188057Y0149943D01*
X0187058Y0150942D02*
X0179000Y0150942D01*
X0179000Y0151940D02*
X0186060Y0151940D01*
X0185061Y0152939D02*
X0179000Y0152939D01*
X0179000Y0153937D02*
X0184063Y0153937D01*
X0183064Y0154936D02*
X0179000Y0154936D01*
X0179000Y0155934D02*
X0182066Y0155934D01*
X0181067Y0156933D02*
X0179000Y0156933D01*
X0179000Y0157931D02*
X0180069Y0157931D01*
X0179070Y0158930D02*
X0179000Y0158930D01*
D11*
X0136139Y0192900D02*
X0129400Y0192900D01*
X0132769Y0192900D02*
X0132769Y0206378D01*
X0136139Y0206378D01*
X0132769Y0213117D02*
X0132769Y0216487D01*
X0122634Y0213117D02*
X0112525Y0213117D01*
X0109156Y0209748D01*
X0109156Y0206378D01*
X0112525Y0203009D01*
X0122634Y0203009D01*
X0122634Y0213117D02*
X0122634Y0192900D01*
X0112525Y0192900D01*
X0109156Y0196270D01*
X0109156Y0199639D01*
X0112525Y0203009D01*
X0102377Y0209748D02*
X0102377Y0196270D01*
X0099007Y0192900D01*
X0092268Y0192900D01*
X0088899Y0196270D01*
X0088899Y0209748D01*
X0092268Y0213117D01*
X0099007Y0213117D01*
X0102377Y0209748D01*
X0082120Y0213117D02*
X0082120Y0192900D01*
X0068641Y0192900D01*
X0061862Y0192900D02*
X0055123Y0192900D01*
X0058493Y0192900D02*
X0058493Y0213117D01*
X0061862Y0213117D02*
X0055123Y0213117D01*
X0048357Y0213117D02*
X0034879Y0213117D01*
X0041618Y0213117D02*
X0041618Y0192900D01*
D12*
X0040704Y0058608D02*
X0039169Y0057073D01*
X0040704Y0058608D02*
X0043773Y0058608D01*
X0045308Y0057073D01*
X0045308Y0055539D01*
X0043773Y0054004D01*
X0040704Y0054004D01*
X0039169Y0052469D01*
X0039169Y0050935D01*
X0040704Y0049400D01*
X0043773Y0049400D01*
X0045308Y0050935D01*
X0048377Y0050935D02*
X0049912Y0049400D01*
X0052981Y0049400D01*
X0054516Y0050935D01*
X0054516Y0057073D01*
X0052981Y0058608D01*
X0049912Y0058608D01*
X0048377Y0057073D01*
X0057585Y0058608D02*
X0060654Y0058608D01*
X0059120Y0058608D02*
X0059120Y0049400D01*
X0060654Y0049400D02*
X0057585Y0049400D01*
X0066793Y0049400D02*
X0066793Y0058608D01*
X0069862Y0058608D02*
X0063724Y0058608D01*
X0072932Y0057073D02*
X0074466Y0058608D01*
X0077535Y0058608D01*
X0079070Y0057073D01*
X0079070Y0055539D01*
X0077535Y0054004D01*
X0074466Y0054004D01*
X0072932Y0052469D01*
X0072932Y0050935D01*
X0074466Y0049400D01*
X0077535Y0049400D01*
X0079070Y0050935D01*
X0082139Y0050935D02*
X0082139Y0057073D01*
X0083674Y0058608D01*
X0086743Y0058608D01*
X0088278Y0057073D01*
X0088278Y0050935D01*
X0086743Y0049400D01*
X0083674Y0049400D01*
X0082139Y0050935D01*
X0091347Y0049400D02*
X0091347Y0058608D01*
X0097486Y0058608D02*
X0091347Y0049400D01*
X0097486Y0049400D02*
X0097486Y0058608D01*
X0100555Y0057073D02*
X0102090Y0058608D01*
X0105159Y0058608D01*
X0106694Y0057073D01*
X0106694Y0050935D01*
X0105159Y0049400D01*
X0102090Y0049400D01*
X0100555Y0050935D01*
X0100555Y0054004D01*
X0103624Y0054004D01*
X0109763Y0054004D02*
X0115902Y0054004D01*
X0115902Y0055539D02*
X0112832Y0058608D01*
X0109763Y0055539D01*
X0109763Y0049400D01*
X0115902Y0049400D02*
X0115902Y0055539D01*
X0118971Y0058608D02*
X0122040Y0058608D01*
X0120505Y0058608D02*
X0120505Y0049400D01*
X0118971Y0049400D02*
X0122040Y0049400D01*
X0125109Y0050935D02*
X0125109Y0057073D01*
X0126644Y0058608D01*
X0131248Y0058608D01*
X0131248Y0049400D01*
X0126644Y0049400D01*
X0125109Y0050935D01*
X0121867Y0038608D02*
X0118798Y0038608D01*
X0117263Y0037073D01*
X0114194Y0035539D02*
X0111124Y0038608D01*
X0108055Y0035539D01*
X0108055Y0029400D01*
X0104986Y0029400D02*
X0104986Y0038608D01*
X0100382Y0038608D01*
X0098847Y0037073D01*
X0098847Y0034004D01*
X0100382Y0032469D01*
X0104986Y0032469D01*
X0108055Y0034004D02*
X0114194Y0034004D01*
X0114194Y0035539D02*
X0114194Y0029400D01*
X0117263Y0030935D02*
X0118798Y0029400D01*
X0121867Y0029400D01*
X0123402Y0030935D01*
X0123402Y0037073D01*
X0121867Y0038608D01*
X0101917Y0032469D02*
X0098847Y0029400D01*
X0092709Y0029400D02*
X0092709Y0038608D01*
X0095778Y0038608D02*
X0089639Y0038608D01*
X0086570Y0038608D02*
X0081966Y0038608D01*
X0080432Y0037073D01*
X0080432Y0034004D01*
X0081966Y0032469D01*
X0086570Y0032469D01*
X0083501Y0032469D02*
X0080432Y0029400D01*
X0077362Y0029400D02*
X0074293Y0029400D01*
X0075828Y0029400D02*
X0075828Y0038608D01*
X0077362Y0038608D02*
X0074293Y0038608D01*
X0071224Y0038608D02*
X0066620Y0038608D01*
X0065085Y0037073D01*
X0065085Y0030935D01*
X0066620Y0029400D01*
X0071224Y0029400D01*
X0071224Y0038608D01*
X0062016Y0037073D02*
X0062016Y0030935D01*
X0060481Y0029400D01*
X0057412Y0029400D01*
X0055877Y0030935D01*
X0055877Y0034004D01*
X0058947Y0034004D01*
X0055877Y0037073D02*
X0057412Y0038608D01*
X0060481Y0038608D01*
X0062016Y0037073D01*
X0052808Y0038608D02*
X0052808Y0029400D01*
X0046669Y0029400D01*
X0049739Y0034004D02*
X0052808Y0034004D01*
X0052808Y0038608D02*
X0046669Y0038608D01*
X0086570Y0038608D02*
X0086570Y0029400D01*
D13*
X0176416Y0026101D02*
X0180119Y0026101D01*
X0180119Y0027952D01*
X0179502Y0028570D01*
X0178267Y0028570D01*
X0177650Y0027952D01*
X0177650Y0026101D01*
X0179502Y0024887D02*
X0179502Y0022418D01*
X0180119Y0020580D02*
X0177650Y0020580D01*
X0177650Y0021197D02*
X0177650Y0019962D01*
X0178267Y0018748D02*
X0177650Y0018131D01*
X0177650Y0016279D01*
X0181353Y0016279D01*
X0181353Y0018131D01*
X0180736Y0018748D01*
X0180119Y0018748D01*
X0179502Y0018131D01*
X0179502Y0016279D01*
X0179502Y0018131D02*
X0178884Y0018748D01*
X0178267Y0018748D01*
X0180119Y0019962D02*
X0180119Y0020580D01*
X0181353Y0020580D02*
X0181970Y0020580D01*
X0179502Y0029784D02*
X0178267Y0029784D01*
X0177650Y0030401D01*
X0177650Y0031636D01*
X0178267Y0032253D01*
X0179502Y0032253D01*
X0180119Y0031636D01*
X0180119Y0030401D01*
X0179502Y0029784D01*
X0181353Y0033467D02*
X0181353Y0034084D01*
X0177650Y0034084D01*
X0177650Y0033467D02*
X0177650Y0034702D01*
X0178267Y0035923D02*
X0178884Y0036540D01*
X0178884Y0038391D01*
X0179502Y0038391D02*
X0177650Y0038391D01*
X0177650Y0036540D01*
X0178267Y0035923D01*
X0180119Y0036540D02*
X0180119Y0037774D01*
X0179502Y0038391D01*
X0180119Y0039606D02*
X0177650Y0039606D01*
X0178884Y0039606D02*
X0180119Y0040840D01*
X0180119Y0041457D01*
X0179502Y0046358D02*
X0178267Y0046358D01*
X0177650Y0046975D01*
X0177650Y0048210D01*
X0178267Y0048827D01*
X0179502Y0048827D01*
X0180119Y0048210D01*
X0180119Y0046975D01*
X0179502Y0046358D01*
X0180119Y0050041D02*
X0177650Y0050041D01*
X0178884Y0050041D02*
X0180119Y0051276D01*
X0180119Y0051893D01*
X0179502Y0056794D02*
X0178267Y0056794D01*
X0177650Y0057411D01*
X0177650Y0059263D01*
X0178267Y0060477D02*
X0179502Y0060477D01*
X0180119Y0061094D01*
X0180119Y0062328D01*
X0179502Y0062946D01*
X0178884Y0062946D01*
X0178884Y0060477D01*
X0178267Y0060477D02*
X0177650Y0061094D01*
X0177650Y0062328D01*
X0177650Y0064160D02*
X0180119Y0064160D01*
X0180119Y0065394D02*
X0178884Y0064160D01*
X0180119Y0065394D02*
X0180119Y0066012D01*
X0180119Y0067846D02*
X0180119Y0069081D01*
X0179502Y0069698D01*
X0177650Y0069698D01*
X0177650Y0067846D01*
X0178267Y0067229D01*
X0178884Y0067846D01*
X0178884Y0069698D01*
X0177650Y0070912D02*
X0180119Y0070912D01*
X0180119Y0071530D01*
X0179502Y0072147D01*
X0180119Y0072764D01*
X0179502Y0073381D01*
X0177650Y0073381D01*
X0177650Y0074596D02*
X0177650Y0075830D01*
X0177650Y0075213D02*
X0180119Y0075213D01*
X0180119Y0074596D01*
X0181353Y0075213D02*
X0181970Y0075213D01*
X0180119Y0077668D02*
X0179502Y0077051D01*
X0178267Y0077051D01*
X0177650Y0077668D01*
X0177650Y0079520D01*
X0180119Y0079520D02*
X0180119Y0077668D01*
X0179502Y0072147D02*
X0177650Y0072147D01*
X0178267Y0084417D02*
X0177650Y0085034D01*
X0177650Y0086269D01*
X0178267Y0086886D01*
X0179502Y0086886D01*
X0180119Y0086269D01*
X0180119Y0085034D01*
X0179502Y0084417D01*
X0178267Y0084417D01*
X0177650Y0088100D02*
X0180119Y0088100D01*
X0180119Y0089952D01*
X0179502Y0090569D01*
X0177650Y0090569D01*
X0177650Y0091784D02*
X0177650Y0093018D01*
X0177650Y0092401D02*
X0181353Y0092401D01*
X0181353Y0091784D01*
X0180119Y0094239D02*
X0178267Y0094239D01*
X0177650Y0094856D01*
X0177650Y0096708D01*
X0177033Y0096708D02*
X0176416Y0096091D01*
X0176416Y0095473D01*
X0177033Y0096708D02*
X0180119Y0096708D01*
X0179502Y0097922D02*
X0181970Y0097922D01*
X0178267Y0097922D02*
X0177650Y0097922D01*
X0180119Y0059263D02*
X0180119Y0057411D01*
X0179502Y0056794D01*
D14*
X0179000Y0116500D02*
X0199000Y0139000D01*
X0179000Y0161500D01*
X0179000Y0116500D01*
D15*
X0173900Y0097800D02*
X0173900Y0090200D01*
X0164100Y0090200D02*
X0164100Y0097800D01*
X0161304Y0096873D02*
X0160537Y0096873D01*
X0157467Y0093804D01*
X0156700Y0093804D01*
X0157467Y0092269D02*
X0156700Y0091502D01*
X0156700Y0089967D01*
X0157467Y0089200D01*
X0160537Y0089200D01*
X0161304Y0089967D01*
X0161304Y0091502D01*
X0160537Y0092269D01*
X0161304Y0093804D02*
X0161304Y0096873D01*
X0164100Y0077800D02*
X0164100Y0070200D01*
X0161304Y0069967D02*
X0160537Y0069200D01*
X0157467Y0069200D01*
X0156700Y0069967D01*
X0156700Y0071502D01*
X0157467Y0072269D01*
X0157467Y0073804D02*
X0158235Y0073804D01*
X0159002Y0074571D01*
X0159002Y0076106D01*
X0158235Y0076873D01*
X0157467Y0076873D01*
X0156700Y0076106D01*
X0156700Y0074571D01*
X0157467Y0073804D01*
X0159002Y0074571D02*
X0159769Y0073804D01*
X0160537Y0073804D01*
X0161304Y0074571D01*
X0161304Y0076106D01*
X0160537Y0076873D01*
X0159769Y0076873D01*
X0159002Y0076106D01*
X0160537Y0072269D02*
X0161304Y0071502D01*
X0161304Y0069967D01*
X0173900Y0070200D02*
X0173900Y0077800D01*
X0173900Y0045300D02*
X0173900Y0037700D01*
X0164100Y0037700D02*
X0164100Y0045300D01*
X0161304Y0044398D02*
X0161304Y0042863D01*
X0160537Y0042096D01*
X0159769Y0042096D01*
X0159002Y0042863D01*
X0159002Y0045165D01*
X0157467Y0045165D02*
X0160537Y0045165D01*
X0161304Y0044398D01*
X0160537Y0040561D02*
X0161304Y0039794D01*
X0161304Y0038259D01*
X0160537Y0037492D01*
X0157467Y0037492D01*
X0156700Y0038259D01*
X0156700Y0039794D01*
X0157467Y0040561D01*
X0157467Y0042096D02*
X0156700Y0042863D01*
X0156700Y0044398D01*
X0157467Y0045165D01*
X0157467Y0025165D02*
X0158235Y0025165D01*
X0159002Y0024398D01*
X0159002Y0022096D01*
X0157467Y0022096D01*
X0156700Y0022863D01*
X0156700Y0024398D01*
X0157467Y0025165D01*
X0160537Y0023631D02*
X0159002Y0022096D01*
X0160537Y0020561D02*
X0161304Y0019794D01*
X0161304Y0018259D01*
X0160537Y0017492D01*
X0157467Y0017492D01*
X0156700Y0018259D01*
X0156700Y0019794D01*
X0157467Y0020561D01*
X0160537Y0023631D02*
X0161304Y0025165D01*
X0164100Y0025300D02*
X0164100Y0017700D01*
X0173900Y0017700D02*
X0173900Y0025300D01*
X0132983Y0016304D02*
X0132983Y0012200D01*
X0130931Y0012200D01*
X0130247Y0012884D01*
X0130247Y0015620D01*
X0130931Y0016304D01*
X0132983Y0016304D01*
X0128839Y0012884D02*
X0128155Y0013568D01*
X0126103Y0013568D01*
X0126103Y0014252D02*
X0126103Y0012200D01*
X0128155Y0012200D01*
X0128839Y0012884D01*
X0128155Y0014936D02*
X0126787Y0014936D01*
X0126103Y0014252D01*
X0124696Y0014936D02*
X0124696Y0012884D01*
X0124012Y0012200D01*
X0121960Y0012200D01*
X0121960Y0014936D01*
X0120552Y0014252D02*
X0120552Y0012884D01*
X0119868Y0012200D01*
X0117816Y0012200D01*
X0117816Y0011516D02*
X0117816Y0014936D01*
X0119868Y0014936D01*
X0120552Y0014252D01*
X0119184Y0010832D02*
X0118500Y0010832D01*
X0117816Y0011516D01*
X0116408Y0012200D02*
X0116408Y0016304D01*
X0115725Y0014936D02*
X0114357Y0014936D01*
X0113673Y0014252D01*
X0113673Y0012200D01*
X0111581Y0012884D02*
X0110897Y0012200D01*
X0111581Y0012884D02*
X0111581Y0015620D01*
X0112265Y0014936D02*
X0110897Y0014936D01*
X0109503Y0014252D02*
X0108819Y0014936D01*
X0107451Y0014936D01*
X0106767Y0014252D01*
X0106767Y0013568D01*
X0109503Y0013568D01*
X0109503Y0012884D02*
X0109503Y0014252D01*
X0109503Y0012884D02*
X0108819Y0012200D01*
X0107451Y0012200D01*
X0105359Y0012200D02*
X0105359Y0014936D01*
X0105359Y0013568D02*
X0103991Y0014936D01*
X0103307Y0014936D01*
X0101906Y0014936D02*
X0099854Y0014936D01*
X0099170Y0014252D01*
X0099170Y0012884D01*
X0099854Y0012200D01*
X0101906Y0012200D01*
X0101906Y0016304D01*
X0097763Y0014252D02*
X0097763Y0012884D01*
X0097079Y0012200D01*
X0095711Y0012200D01*
X0095027Y0012884D01*
X0095027Y0014252D01*
X0095711Y0014936D01*
X0097079Y0014936D01*
X0097763Y0014252D01*
X0093619Y0012884D02*
X0092935Y0012200D01*
X0090883Y0012200D01*
X0090883Y0014252D01*
X0091567Y0014936D01*
X0092935Y0014936D01*
X0092935Y0013568D02*
X0090883Y0013568D01*
X0089475Y0013568D02*
X0088108Y0014936D01*
X0087424Y0014936D01*
X0086023Y0014252D02*
X0085339Y0014936D01*
X0083287Y0014936D01*
X0083287Y0016304D02*
X0083287Y0012200D01*
X0085339Y0012200D01*
X0086023Y0012884D01*
X0086023Y0014252D01*
X0089475Y0014936D02*
X0089475Y0012200D01*
X0092935Y0013568D02*
X0093619Y0012884D01*
X0077735Y0013568D02*
X0076368Y0012200D01*
X0075000Y0013568D01*
X0075000Y0016304D01*
X0073592Y0014252D02*
X0072908Y0014936D01*
X0071540Y0014936D01*
X0070856Y0014252D01*
X0070856Y0013568D01*
X0073592Y0013568D01*
X0073592Y0012884D02*
X0073592Y0014252D01*
X0073592Y0012884D02*
X0072908Y0012200D01*
X0071540Y0012200D01*
X0069448Y0012200D02*
X0069448Y0014936D01*
X0068081Y0014936D02*
X0069448Y0013568D01*
X0068081Y0014936D02*
X0067397Y0014936D01*
X0065995Y0014252D02*
X0065312Y0014936D01*
X0063260Y0014936D01*
X0061852Y0014936D02*
X0061168Y0014936D01*
X0061168Y0012200D01*
X0061852Y0012200D02*
X0060484Y0012200D01*
X0059090Y0012884D02*
X0058406Y0012200D01*
X0057038Y0012200D01*
X0056354Y0012884D01*
X0056354Y0014252D01*
X0057038Y0014936D01*
X0058406Y0014936D01*
X0059090Y0014252D01*
X0059090Y0012884D01*
X0061168Y0016304D02*
X0061168Y0016987D01*
X0063944Y0013568D02*
X0065312Y0013568D01*
X0065995Y0014252D01*
X0065995Y0012200D02*
X0063944Y0012200D01*
X0063260Y0012884D01*
X0063944Y0013568D01*
X0054946Y0012200D02*
X0054946Y0014936D01*
X0052894Y0014936D01*
X0052210Y0014252D01*
X0052210Y0012200D01*
X0046659Y0012200D02*
X0043923Y0012200D01*
X0045291Y0012200D02*
X0045291Y0016304D01*
X0046659Y0014936D01*
X0042515Y0012884D02*
X0042515Y0012200D01*
X0041831Y0012200D01*
X0041831Y0012884D01*
X0042515Y0012884D01*
X0040444Y0012884D02*
X0039760Y0012200D01*
X0038392Y0012200D01*
X0037708Y0012884D01*
X0037708Y0015620D01*
X0040444Y0012884D01*
X0040444Y0015620D01*
X0039760Y0016304D01*
X0038392Y0016304D01*
X0037708Y0015620D01*
X0077735Y0016304D02*
X0077735Y0013568D01*
X0115725Y0014936D02*
X0116408Y0014252D01*
X0031304Y0079423D02*
X0030537Y0078656D01*
X0031304Y0079423D02*
X0031304Y0080957D01*
X0030537Y0081725D01*
X0029769Y0081725D01*
X0026700Y0078656D01*
X0026700Y0081725D01*
X0026700Y0083259D02*
X0031304Y0083259D01*
X0029769Y0085561D02*
X0028235Y0083259D01*
X0026700Y0085561D01*
X0026700Y0087096D02*
X0029769Y0090165D01*
X0030537Y0090165D01*
X0031304Y0089398D01*
X0031304Y0087863D01*
X0030537Y0087096D01*
X0026700Y0087096D02*
X0026700Y0090165D01*
X0016304Y0086131D02*
X0011700Y0086131D01*
X0011700Y0087665D02*
X0011700Y0084596D01*
X0011700Y0083061D02*
X0013235Y0081527D01*
X0013235Y0082294D02*
X0013235Y0079992D01*
X0011700Y0079992D02*
X0016304Y0079992D01*
X0016304Y0082294D01*
X0015537Y0083061D01*
X0014002Y0083061D01*
X0013235Y0082294D01*
X0014769Y0084596D02*
X0016304Y0086131D01*
D16*
X0086500Y0124000D03*
D17*
X0086500Y0124000D03*
D18*
X0024000Y0085614D02*
X0024000Y0082386D01*
X0019000Y0082386D02*
X0019000Y0085614D01*
D19*
X0021494Y0086920D03*
X0021494Y0081120D03*
D20*
X0009000Y0081500D02*
X0169000Y0081500D01*
X0169000Y0071500D01*
X0164000Y0071500D01*
X0164000Y0016500D01*
X0169000Y0016500D01*
X0169000Y0006500D01*
X0009000Y0006500D01*
X0006500Y0009000D01*
X0006500Y0079000D01*
X0009000Y0081500D01*
X0009000Y0086500D02*
X0006500Y0089000D01*
X0006500Y0159000D01*
X0009000Y0161500D01*
X0169000Y0161500D01*
X0169000Y0151500D01*
X0164000Y0151500D01*
X0164000Y0096500D01*
X0169000Y0096500D01*
X0169000Y0086500D01*
X0009000Y0086500D01*
X0009000Y0166500D02*
X0006500Y0169000D01*
X0006500Y0239000D01*
X0009000Y0241500D01*
X0169000Y0241500D01*
X0169000Y0231500D01*
X0164000Y0231500D01*
X0164000Y0176500D01*
X0169000Y0176500D01*
X0169000Y0166500D01*
X0009000Y0166500D01*
D21*
X0168982Y0099223D03*
X0169018Y0088777D03*
X0168982Y0079223D03*
X0169018Y0068777D03*
X0168982Y0046723D03*
X0169018Y0036277D03*
X0168982Y0026723D03*
X0169018Y0016277D03*
M02*
