G75*
%MOIN*%
%OFA0B0*%
%FSLAX25Y25*%
%IPPOS*%
%LPD*%
%AMOC8*
5,1,8,0,0,1.08239X$1,22.5*
%
%ADD10R,0.05906X0.05118*%
%ADD11R,0.05150X0.05150*%
%ADD12C,0.05150*%
%ADD13OC8,0.05600*%
%ADD14C,0.05600*%
%ADD15R,0.10630X0.06299*%
%ADD16C,0.03000*%
%ADD17C,0.04000*%
%ADD18C,0.03962*%
D10*
X0021500Y0080260D03*
X0021500Y0087740D03*
D11*
X0021500Y0109000D03*
X0021500Y0119000D03*
X0021500Y0129000D03*
X0021500Y0139000D03*
X0021500Y0189000D03*
X0021500Y0199000D03*
X0021500Y0209000D03*
X0021500Y0219000D03*
X0149000Y0219000D03*
X0149000Y0209000D03*
X0149000Y0199000D03*
X0149000Y0189000D03*
X0149000Y0139000D03*
X0149000Y0129000D03*
X0149000Y0119000D03*
X0149000Y0109000D03*
X0149000Y0059000D03*
X0149000Y0049000D03*
X0149000Y0039000D03*
X0149000Y0029000D03*
X0021500Y0029000D03*
X0021500Y0039000D03*
X0021500Y0049000D03*
X0021500Y0059000D03*
D12*
X0186500Y0069000D03*
X0186500Y0079000D03*
X0186500Y0089000D03*
X0186500Y0099000D03*
X0186500Y0046500D03*
X0186500Y0036500D03*
X0186500Y0026500D03*
X0186500Y0016500D03*
D13*
X0211500Y0119000D03*
X0211500Y0129000D03*
X0211500Y0139000D03*
X0211500Y0149000D03*
X0211500Y0159000D03*
X0221500Y0159000D03*
X0221500Y0149000D03*
X0221500Y0139000D03*
X0221500Y0129000D03*
X0221500Y0119000D03*
D14*
X0024300Y0029000D02*
X0018700Y0029000D01*
X0018700Y0039000D02*
X0024300Y0039000D01*
X0024300Y0049000D02*
X0018700Y0049000D01*
X0018700Y0059000D02*
X0024300Y0059000D01*
X0024300Y0109000D02*
X0018700Y0109000D01*
X0018700Y0119000D02*
X0024300Y0119000D01*
X0024300Y0129000D02*
X0018700Y0129000D01*
X0018700Y0139000D02*
X0024300Y0139000D01*
X0024300Y0189000D02*
X0018700Y0189000D01*
X0018700Y0199000D02*
X0024300Y0199000D01*
X0024300Y0209000D02*
X0018700Y0209000D01*
X0018700Y0219000D02*
X0024300Y0219000D01*
X0146200Y0219000D02*
X0151800Y0219000D01*
X0151800Y0209000D02*
X0146200Y0209000D01*
X0146200Y0199000D02*
X0151800Y0199000D01*
X0151800Y0189000D02*
X0146200Y0189000D01*
X0146200Y0139000D02*
X0151800Y0139000D01*
X0151800Y0129000D02*
X0146200Y0129000D01*
X0146200Y0119000D02*
X0151800Y0119000D01*
X0151800Y0109000D02*
X0146200Y0109000D01*
X0146200Y0059000D02*
X0151800Y0059000D01*
X0151800Y0049000D02*
X0146200Y0049000D01*
X0146200Y0039000D02*
X0151800Y0039000D01*
X0151800Y0029000D02*
X0146200Y0029000D01*
D15*
X0169000Y0027012D03*
X0169000Y0035988D03*
X0169000Y0047012D03*
X0169000Y0068488D03*
X0169000Y0079512D03*
X0169000Y0088488D03*
X0169000Y0099512D03*
X0169000Y0015988D03*
D16*
X0185988Y0015988D01*
X0186500Y0016500D01*
X0186500Y0026500D02*
X0185988Y0027012D01*
X0185988Y0035988D01*
X0186500Y0036500D01*
X0204000Y0054000D01*
X0204000Y0086500D01*
X0229000Y0111500D01*
X0229000Y0121500D01*
X0221500Y0129000D01*
X0216500Y0134000D02*
X0211500Y0129000D01*
X0216500Y0134000D02*
X0216500Y0144000D01*
X0211500Y0149000D01*
X0211500Y0139000D02*
X0199000Y0139000D01*
X0169000Y0109000D01*
X0149000Y0109000D01*
X0169000Y0099512D02*
X0185988Y0099512D01*
X0186500Y0099000D01*
X0196500Y0089000D01*
X0196500Y0079000D01*
X0186500Y0069000D01*
X0185988Y0068488D01*
X0169000Y0068488D01*
X0159512Y0059000D01*
X0149000Y0059000D01*
X0144000Y0059000D01*
X0134000Y0069000D01*
X0134000Y0149000D01*
X0134000Y0211500D01*
X0141500Y0219000D01*
X0149000Y0219000D01*
X0134000Y0149000D02*
X0144000Y0139000D01*
X0149000Y0139000D01*
X0169000Y0088488D02*
X0185988Y0088488D01*
X0186500Y0089000D01*
X0185988Y0079512D02*
X0186500Y0079000D01*
X0185988Y0079512D02*
X0169000Y0079512D01*
X0168488Y0079000D01*
X0149000Y0079000D01*
X0164512Y0047012D02*
X0159000Y0041500D01*
X0159000Y0019000D01*
X0154000Y0014000D01*
X0036500Y0014000D01*
X0021500Y0029000D01*
X0021500Y0049000D02*
X0014000Y0049000D01*
X0009000Y0054000D01*
X0009000Y0066500D01*
X0021500Y0079000D01*
X0021500Y0080260D01*
X0021500Y0087740D02*
X0021500Y0089000D01*
X0009000Y0101500D01*
X0009000Y0176500D01*
X0021500Y0189000D01*
X0164512Y0047012D02*
X0169000Y0047012D01*
X0185988Y0047012D01*
X0186500Y0046500D01*
X0185988Y0035988D02*
X0169000Y0035988D01*
X0169000Y0027012D02*
X0185988Y0027012D01*
D17*
X0164000Y0159000D02*
X0149000Y0174000D01*
X0149000Y0189000D01*
X0164000Y0159000D02*
X0211500Y0159000D01*
D18*
X0149000Y0079000D03*
M02*
